G75*
G70*
%OFA0B0*%
%FSLAX24Y24*%
%IPPOS*%
%LPD*%
%AMOC8*
5,1,8,0,0,1.08239X$1,22.5*
%
%ADD10C,0.0000*%
%ADD11R,0.0591X0.0512*%
%ADD12R,0.0512X0.0591*%
%ADD13R,0.0866X0.0236*%
%ADD14R,0.0551X0.0394*%
D10*
X002187Y002187D02*
X002187Y010437D01*
X007937Y010437D01*
X007937Y017437D01*
X002187Y017437D01*
X002187Y023687D01*
X028937Y023687D01*
X031057Y021187D02*
X031060Y021244D01*
X031067Y021301D01*
X031080Y021357D01*
X031098Y021411D01*
X031121Y021464D01*
X031149Y021514D01*
X031181Y021562D01*
X031217Y021606D01*
X031257Y021647D01*
X031301Y021685D01*
X031347Y021718D01*
X031397Y021746D01*
X031449Y021770D01*
X031503Y021790D01*
X031559Y021804D01*
X031615Y021813D01*
X031673Y021817D01*
X031730Y021816D01*
X031787Y021809D01*
X031843Y021797D01*
X031898Y021781D01*
X031951Y021759D01*
X032002Y021733D01*
X032050Y021702D01*
X032096Y021667D01*
X032138Y021627D01*
X032176Y021585D01*
X032210Y021538D01*
X032240Y021489D01*
X032265Y021438D01*
X032285Y021384D01*
X032301Y021329D01*
X032311Y021273D01*
X032316Y021216D01*
X032316Y021158D01*
X032311Y021101D01*
X032301Y021045D01*
X032285Y020990D01*
X032265Y020936D01*
X032240Y020885D01*
X032210Y020836D01*
X032176Y020789D01*
X032138Y020747D01*
X032096Y020707D01*
X032050Y020672D01*
X032002Y020641D01*
X031951Y020615D01*
X031898Y020593D01*
X031843Y020577D01*
X031787Y020565D01*
X031730Y020558D01*
X031673Y020557D01*
X031615Y020561D01*
X031559Y020570D01*
X031503Y020584D01*
X031449Y020604D01*
X031397Y020628D01*
X031347Y020656D01*
X031301Y020689D01*
X031257Y020727D01*
X031217Y020768D01*
X031181Y020812D01*
X031149Y020860D01*
X031121Y020910D01*
X031098Y020963D01*
X031080Y021017D01*
X031067Y021073D01*
X031060Y021130D01*
X031057Y021187D01*
X028937Y023687D02*
X029077Y023685D01*
X029217Y023679D01*
X029357Y023669D01*
X029497Y023656D01*
X029636Y023638D01*
X029775Y023616D01*
X029912Y023591D01*
X030050Y023562D01*
X030186Y023529D01*
X030321Y023492D01*
X030455Y023451D01*
X030588Y023406D01*
X030720Y023358D01*
X030850Y023306D01*
X030979Y023251D01*
X031106Y023192D01*
X031232Y023129D01*
X031356Y023063D01*
X031477Y022994D01*
X031597Y022921D01*
X031715Y022844D01*
X031830Y022765D01*
X031944Y022682D01*
X032054Y022596D01*
X032163Y022507D01*
X032269Y022415D01*
X032372Y022320D01*
X032473Y022223D01*
X032570Y022122D01*
X032665Y022019D01*
X032757Y021913D01*
X032846Y021804D01*
X032932Y021694D01*
X033015Y021580D01*
X033094Y021465D01*
X033171Y021347D01*
X033244Y021227D01*
X033313Y021106D01*
X033379Y020982D01*
X033442Y020856D01*
X033501Y020729D01*
X033556Y020600D01*
X033608Y020470D01*
X033656Y020338D01*
X033701Y020205D01*
X033742Y020071D01*
X033779Y019936D01*
X033812Y019800D01*
X033841Y019662D01*
X033866Y019525D01*
X033888Y019386D01*
X033906Y019247D01*
X033919Y019107D01*
X033929Y018967D01*
X033935Y018827D01*
X033937Y018687D01*
X033937Y007187D01*
X031057Y004687D02*
X031060Y004744D01*
X031067Y004801D01*
X031080Y004857D01*
X031098Y004911D01*
X031121Y004964D01*
X031149Y005014D01*
X031181Y005062D01*
X031217Y005106D01*
X031257Y005147D01*
X031301Y005185D01*
X031347Y005218D01*
X031397Y005246D01*
X031449Y005270D01*
X031503Y005290D01*
X031559Y005304D01*
X031615Y005313D01*
X031673Y005317D01*
X031730Y005316D01*
X031787Y005309D01*
X031843Y005297D01*
X031898Y005281D01*
X031951Y005259D01*
X032002Y005233D01*
X032050Y005202D01*
X032096Y005167D01*
X032138Y005127D01*
X032176Y005085D01*
X032210Y005038D01*
X032240Y004989D01*
X032265Y004938D01*
X032285Y004884D01*
X032301Y004829D01*
X032311Y004773D01*
X032316Y004716D01*
X032316Y004658D01*
X032311Y004601D01*
X032301Y004545D01*
X032285Y004490D01*
X032265Y004436D01*
X032240Y004385D01*
X032210Y004336D01*
X032176Y004289D01*
X032138Y004247D01*
X032096Y004207D01*
X032050Y004172D01*
X032002Y004141D01*
X031951Y004115D01*
X031898Y004093D01*
X031843Y004077D01*
X031787Y004065D01*
X031730Y004058D01*
X031673Y004057D01*
X031615Y004061D01*
X031559Y004070D01*
X031503Y004084D01*
X031449Y004104D01*
X031397Y004128D01*
X031347Y004156D01*
X031301Y004189D01*
X031257Y004227D01*
X031217Y004268D01*
X031181Y004312D01*
X031149Y004360D01*
X031121Y004410D01*
X031098Y004463D01*
X031080Y004517D01*
X031067Y004573D01*
X031060Y004630D01*
X031057Y004687D01*
X028937Y002187D02*
X002187Y002187D01*
X005057Y003437D02*
X005060Y003494D01*
X005067Y003551D01*
X005080Y003607D01*
X005098Y003661D01*
X005121Y003714D01*
X005149Y003764D01*
X005181Y003812D01*
X005217Y003856D01*
X005257Y003897D01*
X005301Y003935D01*
X005347Y003968D01*
X005397Y003996D01*
X005449Y004020D01*
X005503Y004040D01*
X005559Y004054D01*
X005615Y004063D01*
X005673Y004067D01*
X005730Y004066D01*
X005787Y004059D01*
X005843Y004047D01*
X005898Y004031D01*
X005951Y004009D01*
X006002Y003983D01*
X006050Y003952D01*
X006096Y003917D01*
X006138Y003877D01*
X006176Y003835D01*
X006210Y003788D01*
X006240Y003739D01*
X006265Y003688D01*
X006285Y003634D01*
X006301Y003579D01*
X006311Y003523D01*
X006316Y003466D01*
X006316Y003408D01*
X006311Y003351D01*
X006301Y003295D01*
X006285Y003240D01*
X006265Y003186D01*
X006240Y003135D01*
X006210Y003086D01*
X006176Y003039D01*
X006138Y002997D01*
X006096Y002957D01*
X006050Y002922D01*
X006002Y002891D01*
X005951Y002865D01*
X005898Y002843D01*
X005843Y002827D01*
X005787Y002815D01*
X005730Y002808D01*
X005673Y002807D01*
X005615Y002811D01*
X005559Y002820D01*
X005503Y002834D01*
X005449Y002854D01*
X005397Y002878D01*
X005347Y002906D01*
X005301Y002939D01*
X005257Y002977D01*
X005217Y003018D01*
X005181Y003062D01*
X005149Y003110D01*
X005121Y003160D01*
X005098Y003213D01*
X005080Y003267D01*
X005067Y003323D01*
X005060Y003380D01*
X005057Y003437D01*
X028937Y002187D02*
X029077Y002189D01*
X029217Y002195D01*
X029357Y002205D01*
X029497Y002218D01*
X029636Y002236D01*
X029775Y002258D01*
X029912Y002283D01*
X030050Y002312D01*
X030186Y002345D01*
X030321Y002382D01*
X030455Y002423D01*
X030588Y002468D01*
X030720Y002516D01*
X030850Y002568D01*
X030979Y002623D01*
X031106Y002682D01*
X031232Y002745D01*
X031356Y002811D01*
X031477Y002880D01*
X031597Y002953D01*
X031715Y003030D01*
X031830Y003109D01*
X031944Y003192D01*
X032054Y003278D01*
X032163Y003367D01*
X032269Y003459D01*
X032372Y003554D01*
X032473Y003651D01*
X032570Y003752D01*
X032665Y003855D01*
X032757Y003961D01*
X032846Y004070D01*
X032932Y004180D01*
X033015Y004294D01*
X033094Y004409D01*
X033171Y004527D01*
X033244Y004647D01*
X033313Y004768D01*
X033379Y004892D01*
X033442Y005018D01*
X033501Y005145D01*
X033556Y005274D01*
X033608Y005404D01*
X033656Y005536D01*
X033701Y005669D01*
X033742Y005803D01*
X033779Y005938D01*
X033812Y006074D01*
X033841Y006212D01*
X033866Y006349D01*
X033888Y006488D01*
X033906Y006627D01*
X033919Y006767D01*
X033929Y006907D01*
X033935Y007047D01*
X033937Y007187D01*
X005057Y022437D02*
X005060Y022494D01*
X005067Y022551D01*
X005080Y022607D01*
X005098Y022661D01*
X005121Y022714D01*
X005149Y022764D01*
X005181Y022812D01*
X005217Y022856D01*
X005257Y022897D01*
X005301Y022935D01*
X005347Y022968D01*
X005397Y022996D01*
X005449Y023020D01*
X005503Y023040D01*
X005559Y023054D01*
X005615Y023063D01*
X005673Y023067D01*
X005730Y023066D01*
X005787Y023059D01*
X005843Y023047D01*
X005898Y023031D01*
X005951Y023009D01*
X006002Y022983D01*
X006050Y022952D01*
X006096Y022917D01*
X006138Y022877D01*
X006176Y022835D01*
X006210Y022788D01*
X006240Y022739D01*
X006265Y022688D01*
X006285Y022634D01*
X006301Y022579D01*
X006311Y022523D01*
X006316Y022466D01*
X006316Y022408D01*
X006311Y022351D01*
X006301Y022295D01*
X006285Y022240D01*
X006265Y022186D01*
X006240Y022135D01*
X006210Y022086D01*
X006176Y022039D01*
X006138Y021997D01*
X006096Y021957D01*
X006050Y021922D01*
X006002Y021891D01*
X005951Y021865D01*
X005898Y021843D01*
X005843Y021827D01*
X005787Y021815D01*
X005730Y021808D01*
X005673Y021807D01*
X005615Y021811D01*
X005559Y021820D01*
X005503Y021834D01*
X005449Y021854D01*
X005397Y021878D01*
X005347Y021906D01*
X005301Y021939D01*
X005257Y021977D01*
X005217Y022018D01*
X005181Y022062D01*
X005149Y022110D01*
X005121Y022160D01*
X005098Y022213D01*
X005080Y022267D01*
X005067Y022323D01*
X005060Y022380D01*
X005057Y022437D01*
D11*
X009437Y017811D03*
X009437Y017063D03*
X014937Y011161D03*
X014937Y010413D03*
X019687Y007311D03*
X020687Y007311D03*
X020687Y006563D03*
X019687Y006563D03*
X027687Y009313D03*
X027687Y010061D03*
X027687Y014063D03*
X027687Y014811D03*
X027687Y018813D03*
X027687Y019561D03*
D12*
X026411Y018087D03*
X025663Y018087D03*
X025663Y016537D03*
X026411Y016537D03*
X026411Y013337D03*
X025663Y013337D03*
X025663Y011837D03*
X026411Y011837D03*
X026311Y008537D03*
X025563Y008537D03*
X025563Y007087D03*
X026311Y007087D03*
X031813Y006937D03*
X032561Y006937D03*
X032561Y009437D03*
X031813Y009437D03*
X031813Y011687D03*
X032561Y011687D03*
X032561Y014187D03*
X031813Y014187D03*
X031813Y016437D03*
X032561Y016437D03*
X032561Y018937D03*
X031813Y018937D03*
X014811Y006787D03*
X014063Y006787D03*
X008661Y005187D03*
X007913Y005187D03*
X007061Y006187D03*
X006313Y006187D03*
X004061Y018437D03*
X003313Y018437D03*
X003313Y020937D03*
X004061Y020937D03*
X010563Y020187D03*
X011311Y020187D03*
X011311Y018687D03*
X010563Y018687D03*
D13*
X011663Y012687D03*
X011663Y012187D03*
X011663Y011687D03*
X011663Y011187D03*
X013711Y011187D03*
X013711Y011687D03*
X013711Y012187D03*
X013711Y012687D03*
X014748Y009187D03*
X014748Y008687D03*
X014748Y008187D03*
X014748Y007687D03*
X011626Y007687D03*
X011626Y008187D03*
X011626Y008687D03*
X011626Y009187D03*
D14*
X009120Y018563D03*
X009120Y019311D03*
X009120Y020063D03*
X009120Y020811D03*
X008254Y020437D03*
X008254Y018937D03*
X028504Y018811D03*
X029370Y018437D03*
X028504Y018063D03*
X028504Y017311D03*
X029370Y016937D03*
X028504Y016563D03*
X028504Y014061D03*
X029370Y013687D03*
X028504Y013313D03*
X028504Y012561D03*
X029370Y012187D03*
X028504Y011813D03*
X028504Y009311D03*
X029370Y008937D03*
X028504Y008563D03*
X028504Y007811D03*
X029370Y007437D03*
X028504Y007063D03*
M02*
