G75*
G70*
%OFA0B0*%
%FSLAX24Y24*%
%IPPOS*%
%LPD*%
%AMOC8*
5,1,8,0,0,1.08239X$1,22.5*
%
%ADD10C,0.0000*%
%ADD11C,0.0150*%
%ADD12OC8,0.0600*%
%ADD13O,0.1200X0.0600*%
%ADD14R,0.0512X0.0591*%
%ADD15O,0.1080X0.0540*%
%ADD16R,0.0591X0.0394*%
%ADD17C,0.0160*%
%ADD18C,0.0356*%
%ADD19C,0.0100*%
%ADD20C,0.0240*%
D10*
X002187Y002187D02*
X002187Y010437D01*
X007937Y010437D01*
X007937Y017437D01*
X002187Y017437D01*
X002187Y023687D01*
X028937Y023687D01*
X031057Y021187D02*
X031060Y021244D01*
X031067Y021301D01*
X031080Y021357D01*
X031098Y021411D01*
X031121Y021464D01*
X031149Y021514D01*
X031181Y021562D01*
X031217Y021606D01*
X031257Y021647D01*
X031301Y021685D01*
X031347Y021718D01*
X031397Y021746D01*
X031449Y021770D01*
X031503Y021790D01*
X031559Y021804D01*
X031615Y021813D01*
X031673Y021817D01*
X031730Y021816D01*
X031787Y021809D01*
X031843Y021797D01*
X031898Y021781D01*
X031951Y021759D01*
X032002Y021733D01*
X032050Y021702D01*
X032096Y021667D01*
X032138Y021627D01*
X032176Y021585D01*
X032210Y021538D01*
X032240Y021489D01*
X032265Y021438D01*
X032285Y021384D01*
X032301Y021329D01*
X032311Y021273D01*
X032316Y021216D01*
X032316Y021158D01*
X032311Y021101D01*
X032301Y021045D01*
X032285Y020990D01*
X032265Y020936D01*
X032240Y020885D01*
X032210Y020836D01*
X032176Y020789D01*
X032138Y020747D01*
X032096Y020707D01*
X032050Y020672D01*
X032002Y020641D01*
X031951Y020615D01*
X031898Y020593D01*
X031843Y020577D01*
X031787Y020565D01*
X031730Y020558D01*
X031673Y020557D01*
X031615Y020561D01*
X031559Y020570D01*
X031503Y020584D01*
X031449Y020604D01*
X031397Y020628D01*
X031347Y020656D01*
X031301Y020689D01*
X031257Y020727D01*
X031217Y020768D01*
X031181Y020812D01*
X031149Y020860D01*
X031121Y020910D01*
X031098Y020963D01*
X031080Y021017D01*
X031067Y021073D01*
X031060Y021130D01*
X031057Y021187D01*
X028937Y023687D02*
X029077Y023685D01*
X029217Y023679D01*
X029357Y023669D01*
X029497Y023656D01*
X029636Y023638D01*
X029775Y023616D01*
X029912Y023591D01*
X030050Y023562D01*
X030186Y023529D01*
X030321Y023492D01*
X030455Y023451D01*
X030588Y023406D01*
X030720Y023358D01*
X030850Y023306D01*
X030979Y023251D01*
X031106Y023192D01*
X031232Y023129D01*
X031356Y023063D01*
X031477Y022994D01*
X031597Y022921D01*
X031715Y022844D01*
X031830Y022765D01*
X031944Y022682D01*
X032054Y022596D01*
X032163Y022507D01*
X032269Y022415D01*
X032372Y022320D01*
X032473Y022223D01*
X032570Y022122D01*
X032665Y022019D01*
X032757Y021913D01*
X032846Y021804D01*
X032932Y021694D01*
X033015Y021580D01*
X033094Y021465D01*
X033171Y021347D01*
X033244Y021227D01*
X033313Y021106D01*
X033379Y020982D01*
X033442Y020856D01*
X033501Y020729D01*
X033556Y020600D01*
X033608Y020470D01*
X033656Y020338D01*
X033701Y020205D01*
X033742Y020071D01*
X033779Y019936D01*
X033812Y019800D01*
X033841Y019662D01*
X033866Y019525D01*
X033888Y019386D01*
X033906Y019247D01*
X033919Y019107D01*
X033929Y018967D01*
X033935Y018827D01*
X033937Y018687D01*
X033937Y007187D01*
X031057Y004687D02*
X031060Y004744D01*
X031067Y004801D01*
X031080Y004857D01*
X031098Y004911D01*
X031121Y004964D01*
X031149Y005014D01*
X031181Y005062D01*
X031217Y005106D01*
X031257Y005147D01*
X031301Y005185D01*
X031347Y005218D01*
X031397Y005246D01*
X031449Y005270D01*
X031503Y005290D01*
X031559Y005304D01*
X031615Y005313D01*
X031673Y005317D01*
X031730Y005316D01*
X031787Y005309D01*
X031843Y005297D01*
X031898Y005281D01*
X031951Y005259D01*
X032002Y005233D01*
X032050Y005202D01*
X032096Y005167D01*
X032138Y005127D01*
X032176Y005085D01*
X032210Y005038D01*
X032240Y004989D01*
X032265Y004938D01*
X032285Y004884D01*
X032301Y004829D01*
X032311Y004773D01*
X032316Y004716D01*
X032316Y004658D01*
X032311Y004601D01*
X032301Y004545D01*
X032285Y004490D01*
X032265Y004436D01*
X032240Y004385D01*
X032210Y004336D01*
X032176Y004289D01*
X032138Y004247D01*
X032096Y004207D01*
X032050Y004172D01*
X032002Y004141D01*
X031951Y004115D01*
X031898Y004093D01*
X031843Y004077D01*
X031787Y004065D01*
X031730Y004058D01*
X031673Y004057D01*
X031615Y004061D01*
X031559Y004070D01*
X031503Y004084D01*
X031449Y004104D01*
X031397Y004128D01*
X031347Y004156D01*
X031301Y004189D01*
X031257Y004227D01*
X031217Y004268D01*
X031181Y004312D01*
X031149Y004360D01*
X031121Y004410D01*
X031098Y004463D01*
X031080Y004517D01*
X031067Y004573D01*
X031060Y004630D01*
X031057Y004687D01*
X028937Y002187D02*
X002187Y002187D01*
X005057Y003437D02*
X005060Y003494D01*
X005067Y003551D01*
X005080Y003607D01*
X005098Y003661D01*
X005121Y003714D01*
X005149Y003764D01*
X005181Y003812D01*
X005217Y003856D01*
X005257Y003897D01*
X005301Y003935D01*
X005347Y003968D01*
X005397Y003996D01*
X005449Y004020D01*
X005503Y004040D01*
X005559Y004054D01*
X005615Y004063D01*
X005673Y004067D01*
X005730Y004066D01*
X005787Y004059D01*
X005843Y004047D01*
X005898Y004031D01*
X005951Y004009D01*
X006002Y003983D01*
X006050Y003952D01*
X006096Y003917D01*
X006138Y003877D01*
X006176Y003835D01*
X006210Y003788D01*
X006240Y003739D01*
X006265Y003688D01*
X006285Y003634D01*
X006301Y003579D01*
X006311Y003523D01*
X006316Y003466D01*
X006316Y003408D01*
X006311Y003351D01*
X006301Y003295D01*
X006285Y003240D01*
X006265Y003186D01*
X006240Y003135D01*
X006210Y003086D01*
X006176Y003039D01*
X006138Y002997D01*
X006096Y002957D01*
X006050Y002922D01*
X006002Y002891D01*
X005951Y002865D01*
X005898Y002843D01*
X005843Y002827D01*
X005787Y002815D01*
X005730Y002808D01*
X005673Y002807D01*
X005615Y002811D01*
X005559Y002820D01*
X005503Y002834D01*
X005449Y002854D01*
X005397Y002878D01*
X005347Y002906D01*
X005301Y002939D01*
X005257Y002977D01*
X005217Y003018D01*
X005181Y003062D01*
X005149Y003110D01*
X005121Y003160D01*
X005098Y003213D01*
X005080Y003267D01*
X005067Y003323D01*
X005060Y003380D01*
X005057Y003437D01*
X028937Y002187D02*
X029077Y002189D01*
X029217Y002195D01*
X029357Y002205D01*
X029497Y002218D01*
X029636Y002236D01*
X029775Y002258D01*
X029912Y002283D01*
X030050Y002312D01*
X030186Y002345D01*
X030321Y002382D01*
X030455Y002423D01*
X030588Y002468D01*
X030720Y002516D01*
X030850Y002568D01*
X030979Y002623D01*
X031106Y002682D01*
X031232Y002745D01*
X031356Y002811D01*
X031477Y002880D01*
X031597Y002953D01*
X031715Y003030D01*
X031830Y003109D01*
X031944Y003192D01*
X032054Y003278D01*
X032163Y003367D01*
X032269Y003459D01*
X032372Y003554D01*
X032473Y003651D01*
X032570Y003752D01*
X032665Y003855D01*
X032757Y003961D01*
X032846Y004070D01*
X032932Y004180D01*
X033015Y004294D01*
X033094Y004409D01*
X033171Y004527D01*
X033244Y004647D01*
X033313Y004768D01*
X033379Y004892D01*
X033442Y005018D01*
X033501Y005145D01*
X033556Y005274D01*
X033608Y005404D01*
X033656Y005536D01*
X033701Y005669D01*
X033742Y005803D01*
X033779Y005938D01*
X033812Y006074D01*
X033841Y006212D01*
X033866Y006349D01*
X033888Y006488D01*
X033906Y006627D01*
X033919Y006767D01*
X033929Y006907D01*
X033935Y007047D01*
X033937Y007187D01*
X005057Y022437D02*
X005060Y022494D01*
X005067Y022551D01*
X005080Y022607D01*
X005098Y022661D01*
X005121Y022714D01*
X005149Y022764D01*
X005181Y022812D01*
X005217Y022856D01*
X005257Y022897D01*
X005301Y022935D01*
X005347Y022968D01*
X005397Y022996D01*
X005449Y023020D01*
X005503Y023040D01*
X005559Y023054D01*
X005615Y023063D01*
X005673Y023067D01*
X005730Y023066D01*
X005787Y023059D01*
X005843Y023047D01*
X005898Y023031D01*
X005951Y023009D01*
X006002Y022983D01*
X006050Y022952D01*
X006096Y022917D01*
X006138Y022877D01*
X006176Y022835D01*
X006210Y022788D01*
X006240Y022739D01*
X006265Y022688D01*
X006285Y022634D01*
X006301Y022579D01*
X006311Y022523D01*
X006316Y022466D01*
X006316Y022408D01*
X006311Y022351D01*
X006301Y022295D01*
X006285Y022240D01*
X006265Y022186D01*
X006240Y022135D01*
X006210Y022086D01*
X006176Y022039D01*
X006138Y021997D01*
X006096Y021957D01*
X006050Y021922D01*
X006002Y021891D01*
X005951Y021865D01*
X005898Y021843D01*
X005843Y021827D01*
X005787Y021815D01*
X005730Y021808D01*
X005673Y021807D01*
X005615Y021811D01*
X005559Y021820D01*
X005503Y021834D01*
X005449Y021854D01*
X005397Y021878D01*
X005347Y021906D01*
X005301Y021939D01*
X005257Y021977D01*
X005217Y022018D01*
X005181Y022062D01*
X005149Y022110D01*
X005121Y022160D01*
X005098Y022213D01*
X005080Y022267D01*
X005067Y022323D01*
X005060Y022380D01*
X005057Y022437D01*
D11*
X011012Y016613D02*
X011688Y016613D01*
X011913Y016388D01*
X011913Y016163D01*
X011688Y015938D01*
X011012Y015938D01*
X011012Y016613D02*
X011012Y015262D01*
X011688Y015262D01*
X011913Y015487D01*
X011913Y015712D01*
X011688Y015938D01*
X012393Y016388D02*
X012618Y016613D01*
X013069Y016613D01*
X013294Y016388D01*
X013294Y016163D01*
X013069Y015938D01*
X013294Y015712D01*
X013294Y015487D01*
X013069Y015262D01*
X012618Y015262D01*
X012393Y015487D01*
X012844Y015938D02*
X013069Y015938D01*
X013774Y015938D02*
X013774Y015487D01*
X014000Y015262D01*
X014675Y015262D01*
X015156Y015487D02*
X015381Y015712D01*
X016056Y015712D01*
X016056Y015938D02*
X016056Y015262D01*
X015381Y015262D01*
X015156Y015487D01*
X015381Y016163D02*
X015831Y016163D01*
X016056Y015938D01*
X016537Y016163D02*
X017212Y016163D01*
X017437Y015938D01*
X017437Y015487D01*
X017212Y015262D01*
X016537Y015262D01*
X016537Y014812D02*
X016537Y016163D01*
X017918Y015938D02*
X017918Y015487D01*
X018143Y015262D01*
X018593Y015262D01*
X018819Y015712D02*
X017918Y015712D01*
X017918Y015938D02*
X018143Y016163D01*
X018593Y016163D01*
X018819Y015938D01*
X018819Y015712D01*
X019299Y015487D02*
X019524Y015262D01*
X019974Y015262D01*
X020200Y015487D01*
X020200Y016388D01*
X019299Y015487D01*
X019299Y016388D01*
X019524Y016613D01*
X019974Y016613D01*
X020200Y016388D01*
X020680Y016163D02*
X021130Y016613D01*
X021130Y015262D01*
X020680Y015262D02*
X021581Y015262D01*
X014675Y016163D02*
X014000Y016163D01*
X013774Y015938D01*
D12*
X013687Y021937D03*
X012687Y021937D03*
X011687Y021937D03*
X010687Y021937D03*
X009687Y021937D03*
X008687Y021937D03*
X007687Y021937D03*
X007687Y022937D03*
X008687Y022937D03*
X009687Y022937D03*
X010687Y022937D03*
X011687Y022937D03*
X012687Y022937D03*
X013687Y022937D03*
X014687Y022937D03*
X014687Y021937D03*
X015687Y021937D03*
X016687Y021937D03*
X016687Y022937D03*
X015687Y022937D03*
X017687Y022937D03*
X017687Y021937D03*
X018687Y021937D03*
X018687Y022937D03*
X019687Y022937D03*
X020687Y022937D03*
X020687Y021937D03*
X019687Y021937D03*
X021687Y021937D03*
X021687Y022937D03*
X022687Y022937D03*
X022687Y021937D03*
X023687Y021937D03*
X024687Y021937D03*
X024687Y022937D03*
X023687Y022937D03*
X025687Y022937D03*
X025687Y021937D03*
X026687Y021937D03*
X026687Y022937D03*
X027687Y022937D03*
X028687Y022937D03*
X028687Y021937D03*
X027687Y021937D03*
X029687Y021937D03*
X029687Y022937D03*
X021687Y005187D03*
X020687Y005187D03*
X019687Y005187D03*
X018687Y005187D03*
X017687Y005187D03*
X016687Y005187D03*
X016687Y003937D03*
X015687Y003937D03*
X015687Y002937D03*
X016687Y002937D03*
X017687Y002937D03*
X017687Y003937D03*
X018687Y003937D03*
X018687Y002937D03*
X019687Y002937D03*
X020687Y002937D03*
X020687Y003937D03*
X019687Y003937D03*
X021687Y003937D03*
X021687Y002937D03*
X022687Y002937D03*
X022687Y003937D03*
X023687Y003937D03*
X024687Y003937D03*
X024687Y002937D03*
X023687Y002937D03*
X025687Y002937D03*
X025687Y003937D03*
X026687Y003937D03*
X026687Y002937D03*
X027687Y002937D03*
X028687Y002937D03*
X028687Y003937D03*
X027687Y003937D03*
X029687Y003937D03*
X029687Y002937D03*
X014687Y002937D03*
X013687Y002937D03*
X012687Y002937D03*
X011687Y002937D03*
X010687Y002937D03*
X009687Y002937D03*
X008687Y002937D03*
X007687Y002937D03*
X007687Y003937D03*
X008687Y003937D03*
X009687Y003937D03*
X010687Y003937D03*
X011687Y003937D03*
X012687Y003937D03*
X013687Y003937D03*
X014687Y003937D03*
D13*
X008937Y007187D03*
X008937Y008187D03*
X008937Y009187D03*
X008937Y010187D03*
X008937Y011187D03*
X008937Y012187D03*
D14*
X004561Y006187D03*
X003813Y006187D03*
D15*
X006937Y007687D03*
X006937Y008687D03*
D16*
X004856Y019411D03*
X004856Y019963D03*
X003518Y019963D03*
X003518Y019411D03*
X031268Y017963D03*
X031268Y017411D03*
X032606Y017411D03*
X032606Y017963D03*
X032606Y013213D03*
X032606Y012661D03*
X031268Y012661D03*
X031268Y013213D03*
X031268Y008463D03*
X031268Y007911D03*
X032606Y007911D03*
X032606Y008463D03*
D17*
X032661Y008463D01*
X032687Y008437D01*
X033187Y008437D01*
X033437Y008687D01*
X033437Y009187D01*
X033105Y009322D02*
X023792Y009322D01*
X023792Y009480D02*
X033224Y009480D01*
X033234Y009491D02*
X033134Y009390D01*
X033079Y009258D01*
X033079Y009116D01*
X033134Y008984D01*
X033177Y008941D01*
X033177Y008795D01*
X033082Y008699D01*
X033082Y008734D01*
X032976Y008839D01*
X032237Y008839D01*
X032131Y008734D01*
X032131Y008191D01*
X032135Y008187D01*
X032131Y008183D01*
X032131Y007640D01*
X032237Y007535D01*
X032976Y007535D01*
X033082Y007640D01*
X033082Y007675D01*
X033177Y007579D01*
X033177Y007433D01*
X033134Y007390D01*
X033079Y007258D01*
X033079Y007116D01*
X033134Y006984D01*
X033234Y006884D01*
X033366Y006829D01*
X033508Y006829D01*
X033640Y006884D01*
X033645Y006888D01*
X033627Y006659D01*
X033575Y006310D01*
X033496Y005965D01*
X033392Y005628D01*
X033309Y005416D01*
X033286Y005470D01*
X033208Y005612D01*
X033118Y005746D01*
X033015Y005872D01*
X032902Y005988D01*
X032779Y006093D01*
X032779Y006093D01*
X032646Y006186D01*
X032506Y006267D01*
X032359Y006335D01*
X032206Y006390D01*
X032049Y006430D01*
X031889Y006456D01*
X031728Y006467D01*
X031566Y006463D01*
X031405Y006444D01*
X031246Y006412D01*
X031091Y006364D01*
X030941Y006303D01*
X030797Y006229D01*
X030797Y006229D01*
X030661Y006141D01*
X030533Y006042D01*
X030533Y006042D01*
X030414Y005931D01*
X030306Y005810D01*
X030210Y005680D01*
X030126Y005542D01*
X030126Y005542D01*
X030054Y005396D01*
X029997Y005245D01*
X029953Y005089D01*
X029953Y005089D01*
X029924Y004929D01*
X029909Y004768D01*
X029909Y004606D01*
X029924Y004445D01*
X029924Y004445D01*
X029938Y004364D01*
X029886Y004417D01*
X029707Y004417D01*
X029707Y003957D01*
X029667Y003957D01*
X029667Y003917D01*
X029707Y003917D01*
X029707Y003457D01*
X029886Y003457D01*
X030167Y003738D01*
X030167Y003764D01*
X030210Y003694D01*
X030306Y003564D01*
X030414Y003443D01*
X030414Y003443D01*
X030414Y003443D01*
X030533Y003332D01*
X030661Y003233D01*
X030797Y003146D01*
X030941Y003071D01*
X031091Y003010D01*
X031117Y003002D01*
X030825Y002861D01*
X030496Y002732D01*
X030159Y002628D01*
X030026Y002598D01*
X030167Y002738D01*
X030167Y002917D01*
X029707Y002917D01*
X029707Y002957D01*
X029667Y002957D01*
X029667Y002917D01*
X029207Y002917D01*
X029207Y002738D01*
X029450Y002496D01*
X029114Y002470D01*
X028937Y002467D01*
X028896Y002467D01*
X029167Y002738D01*
X029167Y002917D01*
X028707Y002917D01*
X028707Y002957D01*
X028667Y002957D01*
X028667Y002917D01*
X028207Y002917D01*
X028207Y002738D01*
X028478Y002467D01*
X027896Y002467D01*
X028167Y002738D01*
X028167Y003136D01*
X027886Y003417D01*
X027488Y003417D01*
X027207Y003136D01*
X027207Y002738D01*
X027478Y002467D01*
X026896Y002467D01*
X027167Y002738D01*
X027167Y003136D01*
X026886Y003417D01*
X026488Y003417D01*
X026207Y003136D01*
X026207Y002738D01*
X026478Y002467D01*
X025896Y002467D01*
X026167Y002738D01*
X026167Y003136D01*
X025886Y003417D01*
X025488Y003417D01*
X025207Y003136D01*
X025207Y002738D01*
X025478Y002467D01*
X024896Y002467D01*
X025167Y002738D01*
X025167Y003136D01*
X024886Y003417D01*
X024488Y003417D01*
X024207Y003136D01*
X024207Y002738D01*
X024478Y002467D01*
X023896Y002467D01*
X024167Y002738D01*
X024167Y003136D01*
X023886Y003417D01*
X023488Y003417D01*
X023207Y003136D01*
X023207Y002738D01*
X023478Y002467D01*
X022896Y002467D01*
X023167Y002738D01*
X023167Y003136D01*
X022886Y003417D01*
X022488Y003417D01*
X022207Y003136D01*
X022207Y002738D01*
X022478Y002467D01*
X021896Y002467D01*
X022167Y002738D01*
X022167Y003136D01*
X021886Y003417D01*
X021488Y003417D01*
X021207Y003136D01*
X021207Y002738D01*
X021478Y002467D01*
X020896Y002467D01*
X021167Y002738D01*
X021167Y003136D01*
X020886Y003417D01*
X020488Y003417D01*
X020207Y003136D01*
X020207Y002738D01*
X020478Y002467D01*
X019896Y002467D01*
X020167Y002738D01*
X020167Y003136D01*
X019886Y003417D01*
X019488Y003417D01*
X019207Y003136D01*
X019207Y002738D01*
X019478Y002467D01*
X018896Y002467D01*
X019167Y002738D01*
X019167Y003136D01*
X018886Y003417D01*
X018488Y003417D01*
X018207Y003136D01*
X018207Y002738D01*
X018478Y002467D01*
X017896Y002467D01*
X018167Y002738D01*
X018167Y003136D01*
X017886Y003417D01*
X017488Y003417D01*
X017207Y003136D01*
X017207Y002738D01*
X017478Y002467D01*
X016896Y002467D01*
X017167Y002738D01*
X017167Y003136D01*
X016886Y003417D01*
X016488Y003417D01*
X016207Y003136D01*
X016207Y002738D01*
X016478Y002467D01*
X015896Y002467D01*
X016167Y002738D01*
X016167Y003136D01*
X015886Y003417D01*
X015488Y003417D01*
X015207Y003136D01*
X015207Y002738D01*
X015478Y002467D01*
X014896Y002467D01*
X015167Y002738D01*
X015167Y003136D01*
X014886Y003417D01*
X014488Y003417D01*
X014207Y003136D01*
X014207Y002738D01*
X014478Y002467D01*
X013896Y002467D01*
X014167Y002738D01*
X014167Y003136D01*
X013886Y003417D01*
X013488Y003417D01*
X013207Y003136D01*
X013207Y002738D01*
X013478Y002467D01*
X012896Y002467D01*
X013167Y002738D01*
X013167Y003136D01*
X012886Y003417D01*
X012488Y003417D01*
X012207Y003136D01*
X012207Y002738D01*
X012478Y002467D01*
X011896Y002467D01*
X012167Y002738D01*
X012167Y003136D01*
X011886Y003417D01*
X011488Y003417D01*
X011207Y003136D01*
X011207Y002738D01*
X011478Y002467D01*
X010896Y002467D01*
X011167Y002738D01*
X011167Y003136D01*
X010886Y003417D01*
X010488Y003417D01*
X010207Y003136D01*
X010207Y002738D01*
X010478Y002467D01*
X009896Y002467D01*
X010167Y002738D01*
X010167Y003136D01*
X009886Y003417D01*
X009488Y003417D01*
X009207Y003136D01*
X009207Y002738D01*
X009478Y002467D01*
X008896Y002467D01*
X009167Y002738D01*
X009167Y003136D01*
X008886Y003417D01*
X008488Y003417D01*
X008207Y003136D01*
X008207Y002738D01*
X008478Y002467D01*
X007896Y002467D01*
X008167Y002738D01*
X008167Y002917D01*
X007707Y002917D01*
X007707Y002957D01*
X007667Y002957D01*
X007667Y003417D01*
X007488Y003417D01*
X007465Y003394D01*
X007467Y003437D01*
X007465Y003480D01*
X007488Y003457D01*
X007667Y003457D01*
X007667Y003917D01*
X007707Y003917D01*
X007707Y003457D01*
X007886Y003457D01*
X008167Y003738D01*
X008167Y003917D01*
X007707Y003917D01*
X007707Y003957D01*
X007667Y003957D01*
X007667Y004417D01*
X007488Y004417D01*
X007287Y004216D01*
X007286Y004220D01*
X007208Y004362D01*
X007118Y004496D01*
X007015Y004622D01*
X006902Y004738D01*
X006779Y004843D01*
X006779Y004843D01*
X006646Y004936D01*
X006506Y005017D01*
X006359Y005085D01*
X006359Y005085D01*
X006206Y005140D01*
X006049Y005180D01*
X005889Y005206D01*
X005728Y005217D01*
X005728Y005217D01*
X005566Y005213D01*
X005566Y005213D01*
X005405Y005194D01*
X005246Y005162D01*
X005091Y005114D01*
X004941Y005053D01*
X004797Y004979D01*
X004661Y004891D01*
X004533Y004792D01*
X004414Y004681D01*
X004306Y004560D01*
X004210Y004430D01*
X004126Y004292D01*
X004054Y004146D01*
X003997Y003995D01*
X003953Y003839D01*
X003953Y003839D01*
X003924Y003679D01*
X003909Y003518D01*
X003909Y003356D01*
X003924Y003195D01*
X003924Y003195D01*
X003953Y003035D01*
X003997Y002879D01*
X004054Y002728D01*
X004126Y002582D01*
X004196Y002467D01*
X002467Y002467D01*
X002467Y010157D01*
X007821Y010157D01*
X008053Y010157D01*
X008157Y010261D01*
X008157Y009988D01*
X008438Y009707D01*
X009436Y009707D01*
X009686Y009957D01*
X009842Y009957D01*
X010342Y009457D01*
X010532Y009457D01*
X019161Y009457D01*
X019234Y009384D01*
X019366Y009329D01*
X019508Y009329D01*
X019640Y009384D01*
X019741Y009484D01*
X019795Y009616D01*
X019795Y009758D01*
X019741Y009890D01*
X019673Y009957D01*
X020161Y009957D01*
X020234Y009884D01*
X020366Y009829D01*
X020508Y009829D01*
X020640Y009884D01*
X020741Y009984D01*
X020795Y010116D01*
X020795Y010258D01*
X020741Y010390D01*
X020640Y010491D01*
X020508Y010545D01*
X020366Y010545D01*
X020234Y010491D01*
X020161Y010417D01*
X016423Y010417D01*
X016491Y010484D01*
X016545Y010616D01*
X016545Y010758D01*
X016491Y010890D01*
X016417Y010964D01*
X016417Y011661D01*
X016491Y011734D01*
X016545Y011866D01*
X016545Y012008D01*
X016491Y012140D01*
X016390Y012241D01*
X016258Y012295D01*
X016116Y012295D01*
X015984Y012241D01*
X015884Y012140D01*
X015829Y012008D01*
X015829Y011866D01*
X015884Y011734D01*
X015957Y011661D01*
X015957Y010964D01*
X015884Y010890D01*
X015829Y010758D01*
X015829Y010616D01*
X015884Y010484D01*
X015951Y010417D01*
X010782Y010417D01*
X010667Y010532D01*
X010667Y010842D01*
X010667Y011032D01*
X010417Y011282D01*
X010282Y011417D01*
X009686Y011417D01*
X009436Y011667D01*
X008438Y011667D01*
X008217Y011446D01*
X008217Y011928D01*
X008438Y011707D01*
X009436Y011707D01*
X009717Y011988D01*
X009717Y012386D01*
X009436Y012667D01*
X008438Y012667D01*
X008217Y012446D01*
X008217Y017321D01*
X008217Y017553D01*
X008053Y017717D01*
X002467Y017717D01*
X002467Y018401D01*
X002484Y018384D01*
X002616Y018329D01*
X002758Y018329D01*
X002890Y018384D01*
X002991Y018484D01*
X003045Y018616D01*
X003045Y018758D01*
X002991Y018890D01*
X002947Y018934D01*
X002947Y019079D01*
X003043Y019175D01*
X003043Y019140D01*
X003148Y019035D01*
X003888Y019035D01*
X003993Y019140D01*
X003993Y019683D01*
X003989Y019687D01*
X003993Y019691D01*
X003993Y020234D01*
X003888Y020339D01*
X003148Y020339D01*
X003043Y020234D01*
X003043Y020199D01*
X002947Y020295D01*
X002947Y020441D01*
X002991Y020484D01*
X003045Y020616D01*
X003045Y020758D01*
X002991Y020890D01*
X002890Y020991D01*
X002758Y021045D01*
X002616Y021045D01*
X002484Y020991D01*
X002467Y020973D01*
X002467Y023407D01*
X004196Y023407D01*
X004126Y023292D01*
X004126Y023292D01*
X004054Y023146D01*
X003997Y022995D01*
X003953Y022839D01*
X003953Y022839D01*
X003924Y022679D01*
X003909Y022518D01*
X003909Y022356D01*
X003924Y022195D01*
X003924Y022195D01*
X003953Y022035D01*
X003997Y021879D01*
X004054Y021728D01*
X004126Y021582D01*
X004210Y021444D01*
X004306Y021314D01*
X004414Y021193D01*
X004414Y021193D01*
X004414Y021193D01*
X004533Y021082D01*
X004661Y020983D01*
X004797Y020896D01*
X004941Y020821D01*
X005091Y020760D01*
X005246Y020713D01*
X005405Y020680D01*
X005566Y020661D01*
X005728Y020658D01*
X005889Y020669D01*
X006049Y020694D01*
X006206Y020734D01*
X006359Y020789D01*
X006506Y020857D01*
X006646Y020938D01*
X006779Y021031D01*
X006902Y021136D01*
X006902Y021136D01*
X007015Y021252D01*
X007118Y021378D01*
X007208Y021512D01*
X007286Y021654D01*
X007287Y021658D01*
X007488Y021457D01*
X007667Y021457D01*
X007667Y021917D01*
X007707Y021917D01*
X007707Y021457D01*
X007886Y021457D01*
X008167Y021738D01*
X008167Y021917D01*
X007707Y021917D01*
X007707Y021957D01*
X007667Y021957D01*
X007667Y022417D01*
X007488Y022417D01*
X007465Y022394D01*
X007467Y022437D01*
X007465Y022480D01*
X007488Y022457D01*
X007667Y022457D01*
X007667Y022917D01*
X007707Y022917D01*
X007707Y022457D01*
X007886Y022457D01*
X008167Y022738D01*
X008167Y022917D01*
X007707Y022917D01*
X007707Y022957D01*
X008167Y022957D01*
X008167Y023136D01*
X007896Y023407D01*
X008478Y023407D01*
X008207Y023136D01*
X008207Y022738D01*
X008488Y022457D01*
X008886Y022457D01*
X009167Y022738D01*
X009167Y023136D01*
X008896Y023407D01*
X009478Y023407D01*
X009207Y023136D01*
X009207Y022738D01*
X009488Y022457D01*
X009886Y022457D01*
X010167Y022738D01*
X010167Y023136D01*
X009896Y023407D01*
X010478Y023407D01*
X010207Y023136D01*
X010207Y022738D01*
X010488Y022457D01*
X010886Y022457D01*
X011167Y022738D01*
X011167Y023136D01*
X010896Y023407D01*
X011478Y023407D01*
X011207Y023136D01*
X011207Y022738D01*
X011488Y022457D01*
X011886Y022457D01*
X012167Y022738D01*
X012167Y023136D01*
X011896Y023407D01*
X012478Y023407D01*
X012207Y023136D01*
X012207Y022738D01*
X012488Y022457D01*
X012886Y022457D01*
X013167Y022738D01*
X013167Y023136D01*
X012896Y023407D01*
X013478Y023407D01*
X013207Y023136D01*
X013207Y022738D01*
X013488Y022457D01*
X013842Y022457D01*
X013882Y022417D01*
X013488Y022417D01*
X013207Y022136D01*
X013207Y021738D01*
X013488Y021457D01*
X013886Y021457D01*
X013957Y021528D01*
X013957Y018842D01*
X014092Y018707D01*
X014342Y018457D01*
X014532Y018457D01*
X022592Y018457D01*
X022707Y018342D01*
X022707Y007342D01*
X022842Y007207D01*
X023217Y006832D01*
X023407Y006832D01*
X027661Y006832D01*
X027734Y006759D01*
X027866Y006704D01*
X028008Y006704D01*
X028140Y006759D01*
X028241Y006859D01*
X028295Y006991D01*
X028295Y007133D01*
X028241Y007265D01*
X028140Y007366D01*
X028008Y007420D01*
X027866Y007420D01*
X027734Y007366D01*
X027661Y007292D01*
X023407Y007292D01*
X023167Y007532D01*
X023167Y018342D01*
X023167Y018532D01*
X022917Y018782D01*
X022782Y018917D01*
X014532Y018917D01*
X014417Y019032D01*
X014417Y021528D01*
X014457Y021488D01*
X014457Y019342D01*
X014592Y019207D01*
X014842Y018957D01*
X015032Y018957D01*
X023217Y018957D01*
X023332Y018842D01*
X023332Y008842D01*
X023467Y008707D01*
X023842Y008332D01*
X024032Y008332D01*
X027661Y008332D01*
X027734Y008259D01*
X027866Y008204D01*
X028008Y008204D01*
X028140Y008259D01*
X028241Y008359D01*
X028295Y008491D01*
X028295Y008633D01*
X028241Y008765D01*
X028140Y008866D01*
X028008Y008920D01*
X027866Y008920D01*
X027734Y008866D01*
X027661Y008792D01*
X024032Y008792D01*
X023792Y009032D01*
X023792Y018842D01*
X023792Y019032D01*
X023542Y019282D01*
X023407Y019417D01*
X015032Y019417D01*
X014917Y019532D01*
X014917Y021488D01*
X014957Y021528D01*
X014957Y019842D01*
X015092Y019707D01*
X015342Y019457D01*
X015532Y019457D01*
X024092Y019457D01*
X024207Y019342D01*
X024207Y012092D01*
X024342Y011957D01*
X024717Y011582D01*
X024907Y011582D01*
X027661Y011582D01*
X027734Y011509D01*
X027866Y011454D01*
X028008Y011454D01*
X028140Y011509D01*
X028241Y011609D01*
X028295Y011741D01*
X028295Y011883D01*
X028241Y012015D01*
X028140Y012116D01*
X028008Y012170D01*
X027866Y012170D01*
X027734Y012116D01*
X027661Y012042D01*
X024907Y012042D01*
X024667Y012282D01*
X024667Y019342D01*
X024667Y019532D01*
X024417Y019782D01*
X024282Y019917D01*
X015532Y019917D01*
X015417Y020032D01*
X015417Y021528D01*
X015457Y021488D01*
X015457Y020467D01*
X015592Y020332D01*
X015967Y019957D01*
X016157Y019957D01*
X024467Y019957D01*
X024707Y019717D01*
X024707Y013467D01*
X024842Y013332D01*
X025092Y013082D01*
X025282Y013082D01*
X027661Y013082D01*
X027734Y013009D01*
X027866Y012954D01*
X028008Y012954D01*
X028140Y013009D01*
X028241Y013109D01*
X028295Y013241D01*
X028295Y013383D01*
X028241Y013515D01*
X028140Y013616D01*
X028008Y013670D01*
X027866Y013670D01*
X027734Y013616D01*
X027661Y013542D01*
X025282Y013542D01*
X025167Y013657D01*
X025167Y019717D01*
X025167Y019907D01*
X024792Y020282D01*
X024657Y020417D01*
X016157Y020417D01*
X015917Y020657D01*
X015917Y021488D01*
X015957Y021528D01*
X015957Y021092D01*
X016092Y020957D01*
X016592Y020457D01*
X016782Y020457D01*
X024842Y020457D01*
X025207Y020092D01*
X025207Y016592D01*
X025342Y016457D01*
X025467Y016332D01*
X025657Y016332D01*
X027661Y016332D01*
X027734Y016259D01*
X027866Y016204D01*
X028008Y016204D01*
X028140Y016259D01*
X028241Y016359D01*
X028295Y016491D01*
X028295Y016633D01*
X028241Y016765D01*
X028140Y016866D01*
X028008Y016920D01*
X027866Y016920D01*
X027734Y016866D01*
X027661Y016792D01*
X025667Y016792D01*
X025667Y020092D01*
X025667Y020282D01*
X025167Y020782D01*
X025032Y020917D01*
X016782Y020917D01*
X016417Y021282D01*
X016417Y021528D01*
X016488Y021457D01*
X016886Y021457D01*
X017167Y021738D01*
X017167Y022136D01*
X016886Y022417D01*
X016488Y022417D01*
X016417Y022346D01*
X016417Y022528D01*
X016488Y022457D01*
X016886Y022457D01*
X017167Y022738D01*
X017167Y023136D01*
X016896Y023407D01*
X017478Y023407D01*
X017207Y023136D01*
X017207Y022738D01*
X017488Y022457D01*
X017886Y022457D01*
X018167Y022738D01*
X018167Y023136D01*
X017896Y023407D01*
X018478Y023407D01*
X018207Y023136D01*
X018207Y022738D01*
X018488Y022457D01*
X018886Y022457D01*
X019167Y022738D01*
X019167Y023136D01*
X018896Y023407D01*
X019478Y023407D01*
X019207Y023136D01*
X019207Y022738D01*
X019488Y022457D01*
X019842Y022457D01*
X019882Y022417D01*
X019488Y022417D01*
X019207Y022136D01*
X019207Y021738D01*
X019488Y021457D01*
X019886Y021457D01*
X019957Y021528D01*
X019957Y021342D01*
X020092Y021207D01*
X020342Y020957D01*
X020532Y020957D01*
X025592Y020957D01*
X025707Y020842D01*
X025707Y018217D01*
X025842Y018082D01*
X026092Y017832D01*
X026282Y017832D01*
X027661Y017832D01*
X027734Y017759D01*
X027866Y017704D01*
X028008Y017704D01*
X028140Y017759D01*
X028241Y017859D01*
X028295Y017991D01*
X028295Y018133D01*
X028241Y018265D01*
X028140Y018366D01*
X028008Y018420D01*
X027866Y018420D01*
X027734Y018366D01*
X027661Y018292D01*
X026282Y018292D01*
X026167Y018407D01*
X026167Y020842D01*
X026167Y021032D01*
X025917Y021282D01*
X025782Y021417D01*
X020532Y021417D01*
X020492Y021457D01*
X020886Y021457D01*
X021167Y021738D01*
X021167Y022136D01*
X020886Y022417D01*
X020488Y022417D01*
X020417Y022346D01*
X020417Y022528D01*
X020488Y022457D01*
X020886Y022457D01*
X021167Y022738D01*
X021167Y023136D01*
X020896Y023407D01*
X021478Y023407D01*
X021207Y023136D01*
X021207Y022738D01*
X021488Y022457D01*
X021886Y022457D01*
X022167Y022738D01*
X022167Y023136D01*
X021896Y023407D01*
X022478Y023407D01*
X022207Y023136D01*
X022207Y022738D01*
X022488Y022457D01*
X022886Y022457D01*
X023167Y022738D01*
X023167Y023136D01*
X022896Y023407D01*
X023478Y023407D01*
X023207Y023136D01*
X023207Y022738D01*
X023488Y022457D01*
X023886Y022457D01*
X024167Y022738D01*
X024167Y023136D01*
X023896Y023407D01*
X024478Y023407D01*
X024207Y023136D01*
X024207Y022738D01*
X024488Y022457D01*
X024886Y022457D01*
X025167Y022738D01*
X025167Y023136D01*
X024896Y023407D01*
X025478Y023407D01*
X025207Y023136D01*
X025207Y022738D01*
X025488Y022457D01*
X025886Y022457D01*
X026167Y022738D01*
X026167Y023136D01*
X025896Y023407D01*
X026478Y023407D01*
X026207Y023136D01*
X026207Y022738D01*
X026488Y022457D01*
X026886Y022457D01*
X027167Y022738D01*
X027167Y023136D01*
X026896Y023407D01*
X027478Y023407D01*
X027207Y023136D01*
X027207Y022738D01*
X027488Y022457D01*
X027886Y022457D01*
X028167Y022738D01*
X028167Y023136D01*
X027896Y023407D01*
X028478Y023407D01*
X028207Y023136D01*
X028207Y022738D01*
X028488Y022457D01*
X028886Y022457D01*
X029167Y022738D01*
X029167Y023136D01*
X028896Y023407D01*
X028937Y023407D01*
X029114Y023404D01*
X029450Y023379D01*
X029207Y023136D01*
X029207Y022738D01*
X029488Y022457D01*
X029886Y022457D01*
X030167Y022738D01*
X030167Y023136D01*
X030026Y023276D01*
X030159Y023246D01*
X030496Y023142D01*
X030825Y023013D01*
X031117Y022872D01*
X031091Y022864D01*
X030941Y022803D01*
X030797Y022729D01*
X030661Y022641D01*
X030533Y022542D01*
X030414Y022431D01*
X030306Y022310D01*
X030210Y022180D01*
X030167Y022110D01*
X030167Y022136D01*
X029886Y022417D01*
X029488Y022417D01*
X029207Y022136D01*
X029207Y021738D01*
X029488Y021457D01*
X029886Y021457D01*
X029938Y021510D01*
X029924Y021429D01*
X029909Y021268D01*
X029909Y021106D01*
X029924Y020945D01*
X029924Y020945D01*
X029953Y020785D01*
X029997Y020629D01*
X030054Y020478D01*
X030126Y020332D01*
X030210Y020194D01*
X030306Y020064D01*
X030414Y019943D01*
X030414Y019943D01*
X030414Y019943D01*
X030533Y019832D01*
X030661Y019733D01*
X030797Y019646D01*
X030941Y019571D01*
X031091Y019510D01*
X031246Y019463D01*
X031405Y019430D01*
X031566Y019411D01*
X031728Y019408D01*
X031889Y019419D01*
X032049Y019444D01*
X032206Y019484D01*
X032359Y019539D01*
X032506Y019607D01*
X032646Y019688D01*
X032779Y019781D01*
X032902Y019886D01*
X032902Y019886D01*
X033015Y020002D01*
X033117Y020128D01*
X033118Y020128D01*
X033208Y020262D01*
X033208Y020262D01*
X033286Y020404D01*
X033286Y020404D01*
X033309Y020458D01*
X033392Y020246D01*
X033496Y019909D01*
X033575Y019565D01*
X033627Y019216D01*
X033645Y018986D01*
X033640Y018991D01*
X033508Y019045D01*
X033366Y019045D01*
X033234Y018991D01*
X033134Y018890D01*
X033079Y018758D01*
X033079Y018616D01*
X033134Y018484D01*
X033177Y018441D01*
X033177Y018295D01*
X033082Y018199D01*
X033082Y018234D01*
X032976Y018339D01*
X032237Y018339D01*
X032131Y018234D01*
X032131Y017691D01*
X032135Y017687D01*
X032131Y017683D01*
X032131Y017140D01*
X032237Y017035D01*
X032976Y017035D01*
X033082Y017140D01*
X033082Y017175D01*
X033177Y017079D01*
X033177Y016933D01*
X033134Y016890D01*
X033079Y016758D01*
X033079Y016616D01*
X033134Y016484D01*
X033234Y016384D01*
X033366Y016329D01*
X033508Y016329D01*
X033640Y016384D01*
X033657Y016401D01*
X033657Y014223D01*
X033640Y014241D01*
X033508Y014295D01*
X033366Y014295D01*
X033234Y014241D01*
X033134Y014140D01*
X033079Y014008D01*
X033079Y013866D01*
X033134Y013734D01*
X033177Y013691D01*
X033177Y013545D01*
X033082Y013449D01*
X033082Y013484D01*
X032976Y013589D01*
X032237Y013589D01*
X032131Y013484D01*
X032131Y012941D01*
X032135Y012937D01*
X032131Y012933D01*
X032131Y012390D01*
X032237Y012285D01*
X032976Y012285D01*
X033082Y012390D01*
X033082Y012425D01*
X033177Y012329D01*
X033177Y012184D01*
X033134Y012140D01*
X033079Y012008D01*
X033079Y011866D01*
X033134Y011734D01*
X033234Y011634D01*
X033366Y011579D01*
X033508Y011579D01*
X033640Y011634D01*
X033657Y011651D01*
X033657Y009473D01*
X033640Y009491D01*
X033508Y009545D01*
X033366Y009545D01*
X033234Y009491D01*
X033079Y009163D02*
X030718Y009163D01*
X030741Y009140D02*
X030640Y009241D01*
X030508Y009295D01*
X030366Y009295D01*
X030234Y009241D01*
X030134Y009140D01*
X030079Y009008D01*
X030079Y008866D01*
X030134Y008734D01*
X030234Y008634D01*
X030366Y008579D01*
X030427Y008579D01*
X030793Y008214D01*
X030793Y008191D01*
X030797Y008187D01*
X030793Y008183D01*
X030793Y008160D01*
X030427Y007795D01*
X030366Y007795D01*
X030234Y007741D01*
X030134Y007640D01*
X030079Y007508D01*
X030079Y007366D01*
X030134Y007234D01*
X030234Y007134D01*
X030366Y007079D01*
X030508Y007079D01*
X030640Y007134D01*
X030741Y007234D01*
X030795Y007366D01*
X030795Y007427D01*
X030902Y007535D01*
X031638Y007535D01*
X031743Y007640D01*
X031743Y008183D01*
X031739Y008187D01*
X031743Y008191D01*
X031743Y008734D01*
X031638Y008839D01*
X030902Y008839D01*
X030795Y008947D01*
X030795Y009008D01*
X030741Y009140D01*
X030795Y009004D02*
X033125Y009004D01*
X033177Y008846D02*
X030896Y008846D01*
X030911Y008463D02*
X030437Y008937D01*
X030180Y008687D02*
X028273Y008687D01*
X028295Y008529D02*
X030478Y008529D01*
X030636Y008370D02*
X028245Y008370D01*
X028027Y008212D02*
X030793Y008212D01*
X030686Y008053D02*
X023167Y008053D01*
X023167Y007895D02*
X030527Y007895D01*
X030230Y007736D02*
X023167Y007736D01*
X023167Y007578D02*
X030108Y007578D01*
X030079Y007419D02*
X028011Y007419D01*
X027863Y007419D02*
X023280Y007419D01*
X022947Y007102D02*
X009717Y007102D01*
X009717Y007167D02*
X009717Y006988D01*
X009436Y006707D01*
X008957Y006707D01*
X008957Y007167D01*
X008917Y007167D01*
X008157Y007167D01*
X008157Y006988D01*
X008438Y006707D01*
X008917Y006707D01*
X008917Y007167D01*
X008917Y007207D01*
X008157Y007207D01*
X008157Y007386D01*
X008438Y007667D01*
X008917Y007667D01*
X008917Y007207D01*
X008957Y007207D01*
X008957Y007667D01*
X009436Y007667D01*
X009717Y007386D01*
X009717Y007207D01*
X008957Y007207D01*
X008957Y007167D01*
X009717Y007167D01*
X009717Y007260D02*
X022788Y007260D01*
X022707Y007419D02*
X009684Y007419D01*
X009525Y007578D02*
X022707Y007578D01*
X022707Y007736D02*
X009465Y007736D01*
X009436Y007707D02*
X009717Y007988D01*
X009717Y008386D01*
X009436Y008667D01*
X008438Y008667D01*
X008157Y008386D01*
X008157Y007988D01*
X008438Y007707D01*
X009436Y007707D01*
X009623Y007895D02*
X022707Y007895D01*
X022707Y008053D02*
X009717Y008053D01*
X009717Y008212D02*
X022707Y008212D01*
X022707Y008370D02*
X009717Y008370D01*
X009574Y008529D02*
X022707Y008529D01*
X022707Y008687D02*
X007657Y008687D01*
X007657Y008529D02*
X008300Y008529D01*
X008157Y008370D02*
X007527Y008370D01*
X007657Y008501D02*
X007393Y008237D01*
X006481Y008237D01*
X006217Y008501D01*
X006217Y008873D01*
X006481Y009137D01*
X007393Y009137D01*
X007657Y008873D01*
X007657Y008501D01*
X007657Y008846D02*
X008299Y008846D01*
X008438Y008707D02*
X008157Y008988D01*
X008157Y009386D01*
X008438Y009667D01*
X009436Y009667D01*
X009717Y009386D01*
X009717Y008988D01*
X009436Y008707D01*
X008438Y008707D01*
X008157Y009004D02*
X007526Y009004D01*
X008157Y009163D02*
X002467Y009163D01*
X002467Y009004D02*
X006348Y009004D01*
X006217Y008846D02*
X002467Y008846D01*
X002467Y008687D02*
X006217Y008687D01*
X006217Y008529D02*
X002467Y008529D01*
X002467Y008370D02*
X006347Y008370D01*
X006481Y008137D02*
X006217Y007873D01*
X006217Y007501D01*
X006481Y007237D01*
X007393Y007237D01*
X007657Y007501D01*
X007657Y007873D01*
X007393Y008137D01*
X006481Y008137D01*
X006397Y008053D02*
X002467Y008053D01*
X002467Y007895D02*
X006238Y007895D01*
X006217Y007736D02*
X002467Y007736D01*
X002467Y007578D02*
X006217Y007578D01*
X006299Y007419D02*
X002467Y007419D01*
X002467Y007260D02*
X006457Y007260D01*
X007417Y007260D02*
X008157Y007260D01*
X008157Y007102D02*
X002467Y007102D01*
X002467Y006943D02*
X008202Y006943D01*
X008361Y006785D02*
X002467Y006785D01*
X002467Y006626D02*
X003447Y006626D01*
X003483Y006662D02*
X003377Y006557D01*
X003377Y006235D01*
X003765Y006235D01*
X003765Y006139D01*
X003861Y006139D01*
X003861Y005712D01*
X004144Y005712D01*
X004187Y005755D01*
X004231Y005712D01*
X004892Y005712D01*
X004997Y005817D01*
X004997Y005927D01*
X005191Y005927D01*
X005234Y005884D01*
X005366Y005829D01*
X005508Y005829D01*
X005640Y005884D01*
X005741Y005984D01*
X005795Y006116D01*
X005795Y006258D01*
X005741Y006390D01*
X005640Y006491D01*
X005508Y006545D01*
X005366Y006545D01*
X005234Y006491D01*
X005191Y006447D01*
X004997Y006447D01*
X004997Y006557D01*
X004892Y006662D01*
X004231Y006662D01*
X004187Y006619D01*
X004144Y006662D01*
X003861Y006662D01*
X003861Y006235D01*
X003765Y006235D01*
X003765Y006662D01*
X003483Y006662D01*
X003377Y006468D02*
X002467Y006468D01*
X002467Y006309D02*
X003377Y006309D01*
X003377Y006139D02*
X003377Y005817D01*
X003483Y005712D01*
X003765Y005712D01*
X003765Y006139D01*
X003377Y006139D01*
X003377Y005992D02*
X002467Y005992D01*
X002467Y005834D02*
X003377Y005834D01*
X003765Y005834D02*
X003861Y005834D01*
X003861Y005992D02*
X003765Y005992D01*
X003765Y006151D02*
X002467Y006151D01*
X002467Y005675D02*
X030207Y005675D01*
X030210Y005680D02*
X030210Y005680D01*
X030306Y005810D02*
X030306Y005810D01*
X030327Y005834D02*
X017965Y005834D01*
X017991Y005859D02*
X018045Y005991D01*
X018045Y006133D01*
X017991Y006265D01*
X017890Y006366D01*
X017758Y006420D01*
X017616Y006420D01*
X017484Y006366D01*
X017481Y006362D01*
X016768Y006362D01*
X016765Y006366D01*
X016633Y006420D01*
X016491Y006420D01*
X016359Y006366D01*
X016259Y006265D01*
X016204Y006133D01*
X016204Y005991D01*
X016259Y005859D01*
X016359Y005759D01*
X016491Y005704D01*
X016633Y005704D01*
X016765Y005759D01*
X016768Y005762D01*
X017481Y005762D01*
X017484Y005759D01*
X017616Y005704D01*
X017758Y005704D01*
X017890Y005759D01*
X017991Y005859D01*
X018045Y005992D02*
X030479Y005992D01*
X030414Y005931D02*
X030414Y005931D01*
X030675Y006151D02*
X018038Y006151D01*
X017946Y006309D02*
X030956Y006309D01*
X030564Y007102D02*
X033085Y007102D01*
X033080Y007260D02*
X030751Y007260D01*
X030795Y007419D02*
X033163Y007419D01*
X033177Y007578D02*
X033019Y007578D01*
X033187Y007937D02*
X033437Y007687D01*
X033437Y007187D01*
X033174Y006943D02*
X028275Y006943D01*
X028295Y007102D02*
X030310Y007102D01*
X030123Y007260D02*
X028242Y007260D01*
X028166Y006785D02*
X033637Y006785D01*
X033623Y006626D02*
X004928Y006626D01*
X004997Y006468D02*
X005211Y006468D01*
X005437Y006187D02*
X004561Y006187D01*
X004437Y006187D01*
X004997Y005834D02*
X005355Y005834D01*
X005519Y005834D02*
X010159Y005834D01*
X010134Y005859D02*
X010234Y005759D01*
X010366Y005704D01*
X010508Y005704D01*
X010640Y005759D01*
X010644Y005762D01*
X013356Y005762D01*
X013359Y005759D01*
X013491Y005704D01*
X013633Y005704D01*
X013765Y005759D01*
X013866Y005859D01*
X013920Y005991D01*
X013920Y006133D01*
X013866Y006265D01*
X013765Y006366D01*
X013633Y006420D01*
X013491Y006420D01*
X013359Y006366D01*
X013356Y006362D01*
X010644Y006362D01*
X010640Y006366D01*
X010508Y006420D01*
X010366Y006420D01*
X010234Y006366D01*
X010134Y006265D01*
X010079Y006133D01*
X010079Y005991D01*
X010134Y005859D01*
X010079Y005992D02*
X005744Y005992D01*
X005795Y006151D02*
X010086Y006151D01*
X010178Y006309D02*
X005774Y006309D01*
X005663Y006468D02*
X033599Y006468D01*
X033575Y006309D02*
X032416Y006309D01*
X032506Y006267D02*
X032506Y006267D01*
X032646Y006186D02*
X032646Y006186D01*
X032697Y006151D02*
X033539Y006151D01*
X033502Y005992D02*
X032897Y005992D01*
X032902Y005988D02*
X032902Y005988D01*
X033015Y005872D02*
X033015Y005872D01*
X033047Y005834D02*
X033456Y005834D01*
X033407Y005675D02*
X033165Y005675D01*
X033208Y005612D02*
X033208Y005612D01*
X033260Y005516D02*
X033348Y005516D01*
X033286Y005470D02*
X033286Y005470D01*
X033118Y005746D02*
X033118Y005746D01*
X032194Y007578D02*
X031681Y007578D01*
X031743Y007736D02*
X032131Y007736D01*
X032131Y007895D02*
X031743Y007895D01*
X031743Y008053D02*
X032131Y008053D01*
X032131Y008212D02*
X031743Y008212D01*
X031743Y008370D02*
X032131Y008370D01*
X032131Y008529D02*
X031743Y008529D01*
X031743Y008687D02*
X032131Y008687D01*
X032687Y007937D02*
X033187Y007937D01*
X032687Y007937D02*
X032661Y007911D01*
X032606Y007911D01*
X031268Y007911D02*
X030911Y007911D01*
X030437Y007437D01*
X030911Y008463D02*
X031268Y008463D01*
X030087Y008846D02*
X028160Y008846D01*
X027714Y008846D02*
X023978Y008846D01*
X023820Y009004D02*
X030079Y009004D01*
X030157Y009163D02*
X023792Y009163D01*
X023332Y009163D02*
X023167Y009163D01*
X023167Y009004D02*
X023332Y009004D01*
X023332Y008846D02*
X023167Y008846D01*
X023167Y008687D02*
X023487Y008687D01*
X023645Y008529D02*
X023167Y008529D01*
X023167Y008370D02*
X023804Y008370D01*
X023167Y008212D02*
X027847Y008212D01*
X027708Y006785D02*
X009514Y006785D01*
X009672Y006943D02*
X023106Y006943D01*
X021886Y005667D02*
X021488Y005667D01*
X021207Y005386D01*
X021207Y004988D01*
X021488Y004707D01*
X021886Y004707D01*
X022167Y004988D01*
X022167Y005386D01*
X021886Y005667D01*
X022036Y005516D02*
X030113Y005516D01*
X030054Y005396D02*
X030054Y005396D01*
X030040Y005358D02*
X022167Y005358D01*
X022167Y005199D02*
X029984Y005199D01*
X029997Y005245D02*
X029997Y005245D01*
X029944Y005041D02*
X022167Y005041D01*
X022061Y004882D02*
X029919Y004882D01*
X029924Y004929D02*
X029924Y004929D01*
X029909Y004768D02*
X029909Y004768D01*
X029909Y004724D02*
X021903Y004724D01*
X021886Y004417D02*
X021488Y004417D01*
X021207Y004136D01*
X021207Y003738D01*
X021488Y003457D01*
X021886Y003457D01*
X022167Y003738D01*
X022167Y004136D01*
X021886Y004417D01*
X021896Y004407D02*
X022478Y004407D01*
X022488Y004417D02*
X022207Y004136D01*
X022207Y003738D01*
X022488Y003457D01*
X022886Y003457D01*
X023167Y003738D01*
X023167Y004136D01*
X022886Y004417D01*
X022488Y004417D01*
X022319Y004248D02*
X022055Y004248D01*
X022167Y004090D02*
X022207Y004090D01*
X022207Y003931D02*
X022167Y003931D01*
X022167Y003773D02*
X022207Y003773D01*
X022331Y003614D02*
X022043Y003614D01*
X022006Y003297D02*
X022368Y003297D01*
X022210Y003138D02*
X022165Y003138D01*
X022167Y002980D02*
X022207Y002980D01*
X022207Y002821D02*
X022167Y002821D01*
X022091Y002663D02*
X022283Y002663D01*
X022441Y002504D02*
X021933Y002504D01*
X021441Y002504D02*
X020933Y002504D01*
X021091Y002663D02*
X021283Y002663D01*
X021207Y002821D02*
X021167Y002821D01*
X021167Y002980D02*
X021207Y002980D01*
X021210Y003138D02*
X021165Y003138D01*
X021006Y003297D02*
X021368Y003297D01*
X021331Y003614D02*
X021043Y003614D01*
X021167Y003738D02*
X020886Y003457D01*
X020488Y003457D01*
X020207Y003738D01*
X020207Y004136D01*
X020488Y004417D01*
X020886Y004417D01*
X021167Y004136D01*
X021167Y003738D01*
X021167Y003773D02*
X021207Y003773D01*
X021207Y003931D02*
X021167Y003931D01*
X021167Y004090D02*
X021207Y004090D01*
X021319Y004248D02*
X021055Y004248D01*
X020896Y004407D02*
X021478Y004407D01*
X021472Y004724D02*
X020903Y004724D01*
X020886Y004707D02*
X021167Y004988D01*
X021167Y005386D01*
X020886Y005667D01*
X020488Y005667D01*
X020207Y005386D01*
X020207Y004988D01*
X020488Y004707D01*
X020886Y004707D01*
X021061Y004882D02*
X021313Y004882D01*
X021207Y005041D02*
X021167Y005041D01*
X021167Y005199D02*
X021207Y005199D01*
X021207Y005358D02*
X021167Y005358D01*
X021036Y005516D02*
X021338Y005516D01*
X020338Y005516D02*
X020036Y005516D01*
X020167Y005386D02*
X019886Y005667D01*
X019488Y005667D01*
X019207Y005386D01*
X019207Y004988D01*
X019488Y004707D01*
X019886Y004707D01*
X020167Y004988D01*
X020167Y005386D01*
X020167Y005358D02*
X020207Y005358D01*
X020207Y005199D02*
X020167Y005199D01*
X020167Y005041D02*
X020207Y005041D01*
X020313Y004882D02*
X020061Y004882D01*
X019903Y004724D02*
X020472Y004724D01*
X020478Y004407D02*
X019896Y004407D01*
X019886Y004417D02*
X019488Y004417D01*
X019207Y004136D01*
X019207Y003738D01*
X019488Y003457D01*
X019886Y003457D01*
X020167Y003738D01*
X020167Y004136D01*
X019886Y004417D01*
X020055Y004248D02*
X020319Y004248D01*
X020207Y004090D02*
X020167Y004090D01*
X020167Y003931D02*
X020207Y003931D01*
X020207Y003773D02*
X020167Y003773D01*
X020043Y003614D02*
X020331Y003614D01*
X020368Y003297D02*
X020006Y003297D01*
X020165Y003138D02*
X020210Y003138D01*
X020207Y002980D02*
X020167Y002980D01*
X020167Y002821D02*
X020207Y002821D01*
X020283Y002663D02*
X020091Y002663D01*
X019933Y002504D02*
X020441Y002504D01*
X019441Y002504D02*
X018933Y002504D01*
X019091Y002663D02*
X019283Y002663D01*
X019207Y002821D02*
X019167Y002821D01*
X019167Y002980D02*
X019207Y002980D01*
X019210Y003138D02*
X019165Y003138D01*
X019006Y003297D02*
X019368Y003297D01*
X019331Y003614D02*
X019043Y003614D01*
X019167Y003738D02*
X018886Y003457D01*
X018488Y003457D01*
X018207Y003738D01*
X018207Y004136D01*
X018488Y004417D01*
X018886Y004417D01*
X019167Y004136D01*
X019167Y003738D01*
X019167Y003773D02*
X019207Y003773D01*
X019207Y003931D02*
X019167Y003931D01*
X019167Y004090D02*
X019207Y004090D01*
X019319Y004248D02*
X019055Y004248D01*
X018896Y004407D02*
X019478Y004407D01*
X019472Y004724D02*
X018903Y004724D01*
X018886Y004707D02*
X019167Y004988D01*
X019167Y005386D01*
X018886Y005667D01*
X018488Y005667D01*
X018207Y005386D01*
X018207Y004988D01*
X018488Y004707D01*
X018886Y004707D01*
X019061Y004882D02*
X019313Y004882D01*
X019207Y005041D02*
X019167Y005041D01*
X019167Y005199D02*
X019207Y005199D01*
X019207Y005358D02*
X019167Y005358D01*
X019036Y005516D02*
X019338Y005516D01*
X018338Y005516D02*
X018036Y005516D01*
X018167Y005386D02*
X017886Y005667D01*
X017488Y005667D01*
X017207Y005386D01*
X017207Y004988D01*
X017488Y004707D01*
X017886Y004707D01*
X018167Y004988D01*
X018167Y005386D01*
X018167Y005358D02*
X018207Y005358D01*
X018207Y005199D02*
X018167Y005199D01*
X018167Y005041D02*
X018207Y005041D01*
X018313Y004882D02*
X018061Y004882D01*
X017903Y004724D02*
X018472Y004724D01*
X018478Y004407D02*
X017896Y004407D01*
X017886Y004417D02*
X017488Y004417D01*
X017207Y004136D01*
X017207Y003738D01*
X017488Y003457D01*
X017886Y003457D01*
X018167Y003738D01*
X018167Y004136D01*
X017886Y004417D01*
X018055Y004248D02*
X018319Y004248D01*
X018207Y004090D02*
X018167Y004090D01*
X018167Y003931D02*
X018207Y003931D01*
X018207Y003773D02*
X018167Y003773D01*
X018043Y003614D02*
X018331Y003614D01*
X018368Y003297D02*
X018006Y003297D01*
X018165Y003138D02*
X018210Y003138D01*
X018207Y002980D02*
X018167Y002980D01*
X018167Y002821D02*
X018207Y002821D01*
X018283Y002663D02*
X018091Y002663D01*
X017933Y002504D02*
X018441Y002504D01*
X017441Y002504D02*
X016933Y002504D01*
X017091Y002663D02*
X017283Y002663D01*
X017207Y002821D02*
X017167Y002821D01*
X017167Y002980D02*
X017207Y002980D01*
X017210Y003138D02*
X017165Y003138D01*
X017006Y003297D02*
X017368Y003297D01*
X017331Y003614D02*
X017043Y003614D01*
X017167Y003738D02*
X016886Y003457D01*
X016488Y003457D01*
X016207Y003738D01*
X016207Y004136D01*
X016488Y004417D01*
X016886Y004417D01*
X017167Y004136D01*
X017167Y003738D01*
X017167Y003773D02*
X017207Y003773D01*
X017207Y003931D02*
X017167Y003931D01*
X017167Y004090D02*
X017207Y004090D01*
X017319Y004248D02*
X017055Y004248D01*
X016896Y004407D02*
X017478Y004407D01*
X017472Y004724D02*
X016903Y004724D01*
X016886Y004707D02*
X017167Y004988D01*
X017167Y005167D01*
X016707Y005167D01*
X016707Y004707D01*
X016886Y004707D01*
X016707Y004724D02*
X016667Y004724D01*
X016667Y004707D02*
X016667Y005167D01*
X016707Y005167D01*
X016707Y005207D01*
X017167Y005207D01*
X017167Y005386D01*
X016886Y005667D01*
X016707Y005667D01*
X016707Y005207D01*
X016667Y005207D01*
X016667Y005167D01*
X016207Y005167D01*
X016207Y004988D01*
X016488Y004707D01*
X016667Y004707D01*
X016667Y004882D02*
X016707Y004882D01*
X016707Y005041D02*
X016667Y005041D01*
X016667Y005199D02*
X005927Y005199D01*
X005889Y005206D02*
X005889Y005206D01*
X006049Y005180D02*
X006049Y005180D01*
X006206Y005140D02*
X006206Y005140D01*
X006455Y005041D02*
X016207Y005041D01*
X016207Y005207D02*
X016667Y005207D01*
X016667Y005667D01*
X016488Y005667D01*
X016207Y005386D01*
X016207Y005207D01*
X016207Y005358D02*
X002467Y005358D01*
X002467Y005516D02*
X016338Y005516D01*
X016667Y005516D02*
X016707Y005516D01*
X016707Y005358D02*
X016667Y005358D01*
X016707Y005199D02*
X017207Y005199D01*
X017207Y005041D02*
X017167Y005041D01*
X017061Y004882D02*
X017313Y004882D01*
X017207Y005358D02*
X017167Y005358D01*
X017036Y005516D02*
X017338Y005516D01*
X016284Y005834D02*
X013840Y005834D01*
X013920Y005992D02*
X016204Y005992D01*
X016211Y006151D02*
X013913Y006151D01*
X013821Y006309D02*
X016303Y006309D01*
X016313Y004882D02*
X006723Y004882D01*
X006646Y004936D02*
X006646Y004936D01*
X006506Y005017D02*
X006506Y005017D01*
X006902Y004738D02*
X006902Y004738D01*
X006916Y004724D02*
X016472Y004724D01*
X016478Y004407D02*
X015896Y004407D01*
X015886Y004417D02*
X015488Y004417D01*
X015207Y004136D01*
X015207Y003738D01*
X015488Y003457D01*
X015886Y003457D01*
X016167Y003738D01*
X016167Y004136D01*
X015886Y004417D01*
X016055Y004248D02*
X016319Y004248D01*
X016207Y004090D02*
X016167Y004090D01*
X016167Y003931D02*
X016207Y003931D01*
X016207Y003773D02*
X016167Y003773D01*
X016043Y003614D02*
X016331Y003614D01*
X016368Y003297D02*
X016006Y003297D01*
X016165Y003138D02*
X016210Y003138D01*
X016207Y002980D02*
X016167Y002980D01*
X016167Y002821D02*
X016207Y002821D01*
X016283Y002663D02*
X016091Y002663D01*
X015933Y002504D02*
X016441Y002504D01*
X015441Y002504D02*
X014933Y002504D01*
X015091Y002663D02*
X015283Y002663D01*
X015207Y002821D02*
X015167Y002821D01*
X015167Y002980D02*
X015207Y002980D01*
X015210Y003138D02*
X015165Y003138D01*
X015006Y003297D02*
X015368Y003297D01*
X015331Y003614D02*
X015043Y003614D01*
X015167Y003738D02*
X014886Y003457D01*
X014488Y003457D01*
X014207Y003738D01*
X014207Y004136D01*
X014488Y004417D01*
X014886Y004417D01*
X015167Y004136D01*
X015167Y003738D01*
X015167Y003773D02*
X015207Y003773D01*
X015207Y003931D02*
X015167Y003931D01*
X015167Y004090D02*
X015207Y004090D01*
X015319Y004248D02*
X015055Y004248D01*
X014896Y004407D02*
X015478Y004407D01*
X014478Y004407D02*
X013896Y004407D01*
X013886Y004417D02*
X013488Y004417D01*
X013207Y004136D01*
X013207Y003738D01*
X013488Y003457D01*
X013886Y003457D01*
X014167Y003738D01*
X014167Y004136D01*
X013886Y004417D01*
X014055Y004248D02*
X014319Y004248D01*
X014207Y004090D02*
X014167Y004090D01*
X014167Y003931D02*
X014207Y003931D01*
X014207Y003773D02*
X014167Y003773D01*
X014043Y003614D02*
X014331Y003614D01*
X014368Y003297D02*
X014006Y003297D01*
X014165Y003138D02*
X014210Y003138D01*
X014207Y002980D02*
X014167Y002980D01*
X014167Y002821D02*
X014207Y002821D01*
X014283Y002663D02*
X014091Y002663D01*
X013933Y002504D02*
X014441Y002504D01*
X013441Y002504D02*
X012933Y002504D01*
X013091Y002663D02*
X013283Y002663D01*
X013207Y002821D02*
X013167Y002821D01*
X013167Y002980D02*
X013207Y002980D01*
X013210Y003138D02*
X013165Y003138D01*
X013006Y003297D02*
X013368Y003297D01*
X013331Y003614D02*
X013043Y003614D01*
X013167Y003738D02*
X012886Y003457D01*
X012488Y003457D01*
X012207Y003738D01*
X012207Y004136D01*
X012488Y004417D01*
X012886Y004417D01*
X013167Y004136D01*
X013167Y003738D01*
X013167Y003773D02*
X013207Y003773D01*
X013207Y003931D02*
X013167Y003931D01*
X013167Y004090D02*
X013207Y004090D01*
X013319Y004248D02*
X013055Y004248D01*
X012896Y004407D02*
X013478Y004407D01*
X012478Y004407D02*
X011896Y004407D01*
X011886Y004417D02*
X011488Y004417D01*
X011207Y004136D01*
X011207Y003738D01*
X011488Y003457D01*
X011886Y003457D01*
X012167Y003738D01*
X012167Y004136D01*
X011886Y004417D01*
X012055Y004248D02*
X012319Y004248D01*
X012207Y004090D02*
X012167Y004090D01*
X012167Y003931D02*
X012207Y003931D01*
X012207Y003773D02*
X012167Y003773D01*
X012043Y003614D02*
X012331Y003614D01*
X012368Y003297D02*
X012006Y003297D01*
X012165Y003138D02*
X012210Y003138D01*
X012207Y002980D02*
X012167Y002980D01*
X012167Y002821D02*
X012207Y002821D01*
X012283Y002663D02*
X012091Y002663D01*
X011933Y002504D02*
X012441Y002504D01*
X011441Y002504D02*
X010933Y002504D01*
X011091Y002663D02*
X011283Y002663D01*
X011207Y002821D02*
X011167Y002821D01*
X011167Y002980D02*
X011207Y002980D01*
X011210Y003138D02*
X011165Y003138D01*
X011006Y003297D02*
X011368Y003297D01*
X011331Y003614D02*
X011043Y003614D01*
X011167Y003738D02*
X010886Y003457D01*
X010488Y003457D01*
X010207Y003738D01*
X010207Y004136D01*
X010488Y004417D01*
X010886Y004417D01*
X011167Y004136D01*
X011167Y003738D01*
X011167Y003773D02*
X011207Y003773D01*
X011207Y003931D02*
X011167Y003931D01*
X011167Y004090D02*
X011207Y004090D01*
X011319Y004248D02*
X011055Y004248D01*
X010896Y004407D02*
X011478Y004407D01*
X010478Y004407D02*
X009896Y004407D01*
X009886Y004417D02*
X009488Y004417D01*
X009207Y004136D01*
X009207Y003738D01*
X009488Y003457D01*
X009886Y003457D01*
X010167Y003738D01*
X010167Y004136D01*
X009886Y004417D01*
X010055Y004248D02*
X010319Y004248D01*
X010207Y004090D02*
X010167Y004090D01*
X010167Y003931D02*
X010207Y003931D01*
X010207Y003773D02*
X010167Y003773D01*
X010043Y003614D02*
X010331Y003614D01*
X010368Y003297D02*
X010006Y003297D01*
X010165Y003138D02*
X010210Y003138D01*
X010207Y002980D02*
X010167Y002980D01*
X010167Y002821D02*
X010207Y002821D01*
X010283Y002663D02*
X010091Y002663D01*
X009933Y002504D02*
X010441Y002504D01*
X009441Y002504D02*
X008933Y002504D01*
X009091Y002663D02*
X009283Y002663D01*
X009207Y002821D02*
X009167Y002821D01*
X009167Y002980D02*
X009207Y002980D01*
X009210Y003138D02*
X009165Y003138D01*
X009006Y003297D02*
X009368Y003297D01*
X009331Y003614D02*
X009043Y003614D01*
X009167Y003738D02*
X008886Y003457D01*
X008488Y003457D01*
X008207Y003738D01*
X008207Y004136D01*
X008488Y004417D01*
X008886Y004417D01*
X009167Y004136D01*
X009167Y003738D01*
X009167Y003773D02*
X009207Y003773D01*
X009207Y003931D02*
X009167Y003931D01*
X009167Y004090D02*
X009207Y004090D01*
X009319Y004248D02*
X009055Y004248D01*
X008896Y004407D02*
X009478Y004407D01*
X008478Y004407D02*
X007896Y004407D01*
X007886Y004417D02*
X007707Y004417D01*
X007707Y003957D01*
X008167Y003957D01*
X008167Y004136D01*
X007886Y004417D01*
X007707Y004407D02*
X007667Y004407D01*
X007667Y004248D02*
X007707Y004248D01*
X007707Y004090D02*
X007667Y004090D01*
X007707Y003931D02*
X008207Y003931D01*
X008207Y003773D02*
X008167Y003773D01*
X008043Y003614D02*
X008331Y003614D01*
X008368Y003297D02*
X008006Y003297D01*
X007886Y003417D02*
X008167Y003136D01*
X008167Y002957D01*
X007707Y002957D01*
X007707Y003417D01*
X007886Y003417D01*
X007707Y003297D02*
X007667Y003297D01*
X007667Y003138D02*
X007707Y003138D01*
X007707Y002980D02*
X007667Y002980D01*
X008167Y002980D02*
X008207Y002980D01*
X008210Y003138D02*
X008165Y003138D01*
X008167Y002821D02*
X008207Y002821D01*
X008283Y002663D02*
X008091Y002663D01*
X007933Y002504D02*
X008441Y002504D01*
X007707Y003614D02*
X007667Y003614D01*
X007667Y003773D02*
X007707Y003773D01*
X007466Y003455D02*
X030403Y003455D01*
X030306Y003564D02*
X030306Y003564D01*
X030269Y003614D02*
X030043Y003614D01*
X030210Y003694D02*
X030210Y003694D01*
X029886Y003417D02*
X029707Y003417D01*
X029707Y002957D01*
X030167Y002957D01*
X030167Y003136D01*
X029886Y003417D01*
X030006Y003297D02*
X030578Y003297D01*
X030533Y003332D02*
X030533Y003332D01*
X030661Y003233D02*
X030661Y003233D01*
X030797Y003146D02*
X030797Y003146D01*
X030811Y003138D02*
X030165Y003138D01*
X030167Y002980D02*
X031072Y002980D01*
X031091Y003010D02*
X031091Y003010D01*
X030941Y003071D02*
X030941Y003071D01*
X030724Y002821D02*
X030167Y002821D01*
X030091Y002663D02*
X030272Y002663D01*
X029707Y002980D02*
X029667Y002980D01*
X029667Y002957D02*
X029667Y003417D01*
X029488Y003417D01*
X029207Y003136D01*
X029207Y002957D01*
X029667Y002957D01*
X029667Y003138D02*
X029707Y003138D01*
X029707Y003297D02*
X029667Y003297D01*
X029667Y003457D02*
X029667Y003917D01*
X029207Y003917D01*
X029207Y003738D01*
X029488Y003457D01*
X029667Y003457D01*
X029667Y003614D02*
X029707Y003614D01*
X029707Y003773D02*
X029667Y003773D01*
X029667Y003931D02*
X028707Y003931D01*
X028707Y003917D02*
X028707Y003957D01*
X029167Y003957D01*
X029167Y004136D01*
X028886Y004417D01*
X028707Y004417D01*
X028707Y003957D01*
X028667Y003957D01*
X028667Y003917D01*
X028707Y003917D01*
X028707Y003457D01*
X028886Y003457D01*
X029167Y003738D01*
X029167Y003917D01*
X028707Y003917D01*
X028667Y003917D02*
X028667Y003457D01*
X028488Y003457D01*
X028207Y003738D01*
X028207Y003917D01*
X028667Y003917D01*
X028667Y003931D02*
X028167Y003931D01*
X028207Y003957D02*
X028667Y003957D01*
X028667Y004417D01*
X028488Y004417D01*
X028207Y004136D01*
X028207Y003957D01*
X028207Y004090D02*
X028167Y004090D01*
X028167Y004136D02*
X027886Y004417D01*
X027488Y004417D01*
X027207Y004136D01*
X027207Y003738D01*
X027488Y003457D01*
X027886Y003457D01*
X028167Y003738D01*
X028167Y004136D01*
X028055Y004248D02*
X028319Y004248D01*
X028478Y004407D02*
X027896Y004407D01*
X027478Y004407D02*
X026896Y004407D01*
X026886Y004417D02*
X026488Y004417D01*
X026207Y004136D01*
X026207Y003738D01*
X026488Y003457D01*
X026886Y003457D01*
X027167Y003738D01*
X027167Y004136D01*
X026886Y004417D01*
X027055Y004248D02*
X027319Y004248D01*
X027207Y004090D02*
X027167Y004090D01*
X027167Y003931D02*
X027207Y003931D01*
X027207Y003773D02*
X027167Y003773D01*
X027043Y003614D02*
X027331Y003614D01*
X027368Y003297D02*
X027006Y003297D01*
X027165Y003138D02*
X027210Y003138D01*
X027207Y002980D02*
X027167Y002980D01*
X027167Y002821D02*
X027207Y002821D01*
X027283Y002663D02*
X027091Y002663D01*
X026933Y002504D02*
X027441Y002504D01*
X027933Y002504D02*
X028441Y002504D01*
X028283Y002663D02*
X028091Y002663D01*
X028167Y002821D02*
X028207Y002821D01*
X028207Y002957D02*
X028667Y002957D01*
X028667Y003417D01*
X028488Y003417D01*
X028207Y003136D01*
X028207Y002957D01*
X028207Y002980D02*
X028167Y002980D01*
X028165Y003138D02*
X028210Y003138D01*
X028368Y003297D02*
X028006Y003297D01*
X028043Y003614D02*
X028331Y003614D01*
X028207Y003773D02*
X028167Y003773D01*
X028667Y003773D02*
X028707Y003773D01*
X028707Y003614D02*
X028667Y003614D01*
X028707Y003417D02*
X028707Y002957D01*
X029167Y002957D01*
X029167Y003136D01*
X028886Y003417D01*
X028707Y003417D01*
X028707Y003297D02*
X028667Y003297D01*
X028667Y003138D02*
X028707Y003138D01*
X028707Y002980D02*
X028667Y002980D01*
X029006Y003297D02*
X029368Y003297D01*
X029210Y003138D02*
X029165Y003138D01*
X029167Y002980D02*
X029207Y002980D01*
X029207Y002821D02*
X029167Y002821D01*
X029091Y002663D02*
X029283Y002663D01*
X029441Y002504D02*
X028933Y002504D01*
X029043Y003614D02*
X029331Y003614D01*
X029207Y003773D02*
X029167Y003773D01*
X029207Y003957D02*
X029667Y003957D01*
X029667Y004417D01*
X029488Y004417D01*
X029207Y004136D01*
X029207Y003957D01*
X029207Y004090D02*
X029167Y004090D01*
X029055Y004248D02*
X029319Y004248D01*
X029478Y004407D02*
X028896Y004407D01*
X028707Y004407D02*
X028667Y004407D01*
X028667Y004248D02*
X028707Y004248D01*
X028707Y004090D02*
X028667Y004090D01*
X029667Y004090D02*
X029707Y004090D01*
X029707Y004248D02*
X029667Y004248D01*
X029667Y004407D02*
X029707Y004407D01*
X029896Y004407D02*
X029931Y004407D01*
X029913Y004565D02*
X007062Y004565D01*
X007015Y004622D02*
X007015Y004622D01*
X007118Y004496D02*
X007118Y004496D01*
X007178Y004407D02*
X007478Y004407D01*
X007319Y004248D02*
X007270Y004248D01*
X007286Y004220D02*
X007286Y004220D01*
X007208Y004362D02*
X007208Y004362D01*
X008055Y004248D02*
X008319Y004248D01*
X008207Y004090D02*
X008167Y004090D01*
X005448Y005199D02*
X002467Y005199D01*
X002467Y005041D02*
X004917Y005041D01*
X004649Y004882D02*
X002467Y004882D01*
X002467Y004724D02*
X004460Y004724D01*
X004414Y004681D02*
X004414Y004681D01*
X004311Y004565D02*
X002467Y004565D01*
X002467Y004407D02*
X004196Y004407D01*
X004104Y004248D02*
X002467Y004248D01*
X002467Y004090D02*
X004033Y004090D01*
X004054Y004146D02*
X004054Y004146D01*
X003997Y003995D02*
X003997Y003995D01*
X003979Y003931D02*
X002467Y003931D01*
X002467Y003773D02*
X003941Y003773D01*
X003924Y003679D02*
X003924Y003679D01*
X003918Y003614D02*
X002467Y003614D01*
X002467Y003455D02*
X003909Y003455D01*
X003909Y003518D02*
X003909Y003518D01*
X003909Y003356D02*
X003909Y003356D01*
X003914Y003297D02*
X002467Y003297D01*
X002467Y003138D02*
X003934Y003138D01*
X003953Y003035D02*
X003953Y003035D01*
X003969Y002980D02*
X002467Y002980D01*
X002467Y002821D02*
X004019Y002821D01*
X003997Y002879D02*
X003997Y002879D01*
X004054Y002728D02*
X004054Y002728D01*
X004086Y002663D02*
X002467Y002663D01*
X002467Y002504D02*
X004173Y002504D01*
X004126Y002582D02*
X004126Y002582D01*
X004533Y004792D02*
X004533Y004792D01*
X003861Y006309D02*
X003765Y006309D01*
X003765Y006468D02*
X003861Y006468D01*
X003861Y006626D02*
X003765Y006626D01*
X004180Y006626D02*
X004195Y006626D01*
X002467Y008212D02*
X008157Y008212D01*
X008157Y008053D02*
X007477Y008053D01*
X007636Y007895D02*
X008251Y007895D01*
X008409Y007736D02*
X007657Y007736D01*
X007657Y007578D02*
X008349Y007578D01*
X008190Y007419D02*
X007575Y007419D01*
X008917Y007419D02*
X008957Y007419D01*
X008957Y007578D02*
X008917Y007578D01*
X008917Y007260D02*
X008957Y007260D01*
X008957Y007102D02*
X008917Y007102D01*
X008917Y006943D02*
X008957Y006943D01*
X008957Y006785D02*
X008917Y006785D01*
X009575Y008846D02*
X022707Y008846D01*
X022707Y009004D02*
X009717Y009004D01*
X009717Y009163D02*
X022707Y009163D01*
X022707Y009322D02*
X009717Y009322D01*
X009623Y009480D02*
X010319Y009480D01*
X010160Y009639D02*
X009464Y009639D01*
X009526Y009797D02*
X010002Y009797D01*
X009843Y009956D02*
X009684Y009956D01*
X010667Y010590D02*
X015840Y010590D01*
X015829Y010748D02*
X010667Y010748D01*
X010667Y010907D02*
X015901Y010907D01*
X015957Y011066D02*
X010634Y011066D01*
X010475Y011224D02*
X012694Y011224D01*
X012734Y011184D02*
X012634Y011284D01*
X012579Y011416D01*
X012579Y011558D01*
X012634Y011690D01*
X012707Y011764D01*
X012707Y012211D01*
X012634Y012284D01*
X012579Y012416D01*
X012579Y012558D01*
X012634Y012690D01*
X012734Y012791D01*
X012866Y012845D01*
X013008Y012845D01*
X013140Y012791D01*
X013241Y012690D01*
X013295Y012558D01*
X013295Y012416D01*
X013241Y012284D01*
X013167Y012211D01*
X013167Y011764D01*
X013241Y011690D01*
X013295Y011558D01*
X013295Y011416D01*
X013241Y011284D01*
X013140Y011184D01*
X013008Y011129D01*
X012866Y011129D01*
X012734Y011184D01*
X012593Y011383D02*
X010317Y011383D01*
X009562Y011541D02*
X012579Y011541D01*
X012643Y011700D02*
X008217Y011700D01*
X008217Y011858D02*
X008287Y011858D01*
X008312Y011541D02*
X008217Y011541D01*
X008217Y012492D02*
X008264Y012492D01*
X008217Y012651D02*
X008422Y012651D01*
X008217Y012809D02*
X012780Y012809D01*
X012617Y012651D02*
X009452Y012651D01*
X009611Y012492D02*
X012579Y012492D01*
X012613Y012334D02*
X009717Y012334D01*
X009717Y012175D02*
X012707Y012175D01*
X012707Y012017D02*
X009717Y012017D01*
X009587Y011858D02*
X012707Y011858D01*
X013167Y011858D02*
X015832Y011858D01*
X015833Y012017D02*
X013167Y012017D01*
X013167Y012175D02*
X015919Y012175D01*
X015918Y011700D02*
X013231Y011700D01*
X013295Y011541D02*
X015957Y011541D01*
X015957Y011383D02*
X013281Y011383D01*
X013180Y011224D02*
X015957Y011224D01*
X016417Y011224D02*
X022707Y011224D01*
X022707Y011066D02*
X016417Y011066D01*
X016474Y010907D02*
X022707Y010907D01*
X022707Y010748D02*
X016545Y010748D01*
X016534Y010590D02*
X022707Y010590D01*
X022707Y010431D02*
X020699Y010431D01*
X020789Y010273D02*
X022707Y010273D01*
X022707Y010114D02*
X020794Y010114D01*
X020712Y009956D02*
X022707Y009956D01*
X022707Y009797D02*
X019779Y009797D01*
X019795Y009639D02*
X022707Y009639D01*
X022707Y009480D02*
X019736Y009480D01*
X019675Y009956D02*
X020162Y009956D01*
X020175Y010431D02*
X016438Y010431D01*
X015936Y010431D02*
X010768Y010431D01*
X008410Y009639D02*
X002467Y009639D01*
X002467Y009797D02*
X008348Y009797D01*
X008190Y009956D02*
X002467Y009956D01*
X002467Y010114D02*
X008157Y010114D01*
X008251Y009480D02*
X002467Y009480D01*
X002467Y009322D02*
X008157Y009322D01*
X013094Y012809D02*
X022707Y012809D01*
X022707Y012651D02*
X013257Y012651D01*
X013295Y012492D02*
X022707Y012492D01*
X022707Y012334D02*
X013261Y012334D01*
X010363Y014007D02*
X022262Y014007D01*
X022367Y014113D01*
X022367Y017262D01*
X022262Y017367D01*
X010363Y017367D01*
X010257Y017262D01*
X010257Y014113D01*
X010363Y014007D01*
X010292Y014078D02*
X008217Y014078D01*
X008217Y014236D02*
X010257Y014236D01*
X010257Y014395D02*
X008217Y014395D01*
X008217Y014553D02*
X010257Y014553D01*
X010257Y014712D02*
X008217Y014712D01*
X008217Y014871D02*
X010257Y014871D01*
X010257Y015029D02*
X008217Y015029D01*
X008217Y015188D02*
X010257Y015188D01*
X010257Y015346D02*
X008217Y015346D01*
X008217Y015505D02*
X010257Y015505D01*
X010257Y015663D02*
X008217Y015663D01*
X008217Y015822D02*
X010257Y015822D01*
X010257Y015980D02*
X008217Y015980D01*
X008217Y016139D02*
X010257Y016139D01*
X010257Y016297D02*
X008217Y016297D01*
X008217Y016456D02*
X010257Y016456D01*
X010257Y016615D02*
X008217Y016615D01*
X008217Y016773D02*
X010257Y016773D01*
X010257Y016932D02*
X008217Y016932D01*
X008217Y017090D02*
X010257Y017090D01*
X010257Y017249D02*
X008217Y017249D01*
X008217Y017407D02*
X022707Y017407D01*
X022707Y017249D02*
X022367Y017249D01*
X022367Y017090D02*
X022707Y017090D01*
X022707Y016932D02*
X022367Y016932D01*
X022367Y016773D02*
X022707Y016773D01*
X022707Y016615D02*
X022367Y016615D01*
X022367Y016456D02*
X022707Y016456D01*
X022707Y016297D02*
X022367Y016297D01*
X022367Y016139D02*
X022707Y016139D01*
X022707Y015980D02*
X022367Y015980D01*
X022367Y015822D02*
X022707Y015822D01*
X022707Y015663D02*
X022367Y015663D01*
X022367Y015505D02*
X022707Y015505D01*
X022707Y015346D02*
X022367Y015346D01*
X022367Y015188D02*
X022707Y015188D01*
X022707Y015029D02*
X022367Y015029D01*
X022367Y014871D02*
X022707Y014871D01*
X022707Y014712D02*
X022367Y014712D01*
X022367Y014553D02*
X022707Y014553D01*
X022707Y014395D02*
X022367Y014395D01*
X022367Y014236D02*
X022707Y014236D01*
X022707Y014078D02*
X022332Y014078D01*
X022707Y013919D02*
X008217Y013919D01*
X008217Y013761D02*
X022707Y013761D01*
X022707Y013602D02*
X008217Y013602D01*
X008217Y013444D02*
X022707Y013444D01*
X022707Y013285D02*
X008217Y013285D01*
X008217Y013127D02*
X022707Y013127D01*
X022707Y012968D02*
X008217Y012968D01*
X008204Y017566D02*
X022707Y017566D01*
X022707Y017724D02*
X002467Y017724D01*
X002467Y017883D02*
X022707Y017883D01*
X022707Y018041D02*
X002467Y018041D01*
X002467Y018200D02*
X022707Y018200D01*
X022690Y018359D02*
X002830Y018359D01*
X003004Y018517D02*
X014282Y018517D01*
X014123Y018676D02*
X006932Y018676D01*
X006890Y018634D02*
X006991Y018734D01*
X007045Y018866D01*
X007045Y019008D01*
X006991Y019140D01*
X006890Y019241D01*
X006758Y019295D01*
X006697Y019295D01*
X006320Y019671D01*
X006105Y019671D01*
X005332Y019671D01*
X005332Y019683D01*
X005327Y019687D01*
X005332Y019691D01*
X005332Y019703D01*
X006105Y019703D01*
X006320Y019703D01*
X006697Y020079D01*
X006758Y020079D01*
X006890Y020134D01*
X006991Y020234D01*
X007045Y020366D01*
X007045Y020508D01*
X006991Y020640D01*
X006890Y020741D01*
X006758Y020795D01*
X006616Y020795D01*
X006484Y020741D01*
X006384Y020640D01*
X006329Y020508D01*
X006329Y020447D01*
X006105Y020223D01*
X005332Y020223D01*
X005332Y020234D01*
X005226Y020339D01*
X004487Y020339D01*
X004381Y020234D01*
X004381Y019691D01*
X004385Y019687D01*
X004381Y019683D01*
X004381Y019140D01*
X004487Y019035D01*
X005226Y019035D01*
X005332Y019140D01*
X005332Y019151D01*
X006105Y019151D01*
X006329Y018927D01*
X006329Y018866D01*
X006384Y018734D01*
X006484Y018634D01*
X006616Y018579D01*
X006758Y018579D01*
X006890Y018634D01*
X007032Y018834D02*
X013965Y018834D01*
X013957Y018993D02*
X007045Y018993D01*
X006979Y019151D02*
X013957Y019151D01*
X013957Y019310D02*
X006682Y019310D01*
X006524Y019468D02*
X013957Y019468D01*
X013957Y019627D02*
X006365Y019627D01*
X006403Y019785D02*
X013957Y019785D01*
X013957Y019944D02*
X006562Y019944D01*
X006815Y020102D02*
X013957Y020102D01*
X013957Y020261D02*
X007002Y020261D01*
X007045Y020420D02*
X013957Y020420D01*
X013957Y020578D02*
X007016Y020578D01*
X006894Y020737D02*
X013957Y020737D01*
X013957Y020895D02*
X006573Y020895D01*
X006480Y020737D02*
X006212Y020737D01*
X006358Y020578D02*
X003030Y020578D01*
X003045Y020737D02*
X005167Y020737D01*
X005091Y020760D02*
X005091Y020760D01*
X004941Y020821D02*
X004941Y020821D01*
X004798Y020895D02*
X002985Y020895D01*
X002687Y020687D02*
X002687Y020187D01*
X002937Y019937D01*
X003437Y019937D01*
X003463Y019963D01*
X003518Y019963D01*
X003993Y019944D02*
X004381Y019944D01*
X004381Y020102D02*
X003993Y020102D01*
X003966Y020261D02*
X004408Y020261D01*
X004381Y019785D02*
X003993Y019785D01*
X003993Y019627D02*
X004381Y019627D01*
X004381Y019468D02*
X003993Y019468D01*
X003993Y019310D02*
X004381Y019310D01*
X004381Y019151D02*
X003993Y019151D01*
X003518Y019411D02*
X003463Y019411D01*
X003437Y019437D01*
X002937Y019437D01*
X002687Y019187D01*
X002687Y018687D01*
X002545Y018359D02*
X002467Y018359D01*
X003045Y018676D02*
X006442Y018676D01*
X006342Y018834D02*
X003014Y018834D01*
X002947Y018993D02*
X006264Y018993D01*
X006105Y019151D02*
X005332Y019151D01*
X004856Y019411D02*
X006213Y019411D01*
X006687Y018937D01*
X006213Y019963D02*
X006687Y020437D01*
X006302Y020420D02*
X002947Y020420D01*
X002981Y020261D02*
X003069Y020261D01*
X002467Y021054D02*
X004569Y021054D01*
X004533Y021082D02*
X004533Y021082D01*
X004661Y020983D02*
X004661Y020983D01*
X004797Y020896D02*
X004797Y020896D01*
X005246Y020713D02*
X005246Y020713D01*
X005405Y020680D02*
X005405Y020680D01*
X005566Y020661D02*
X005566Y020661D01*
X005728Y020658D02*
X005728Y020658D01*
X006143Y020261D02*
X005305Y020261D01*
X004856Y019963D02*
X006213Y019963D01*
X006805Y021054D02*
X013957Y021054D01*
X013957Y021212D02*
X006976Y021212D01*
X007112Y021371D02*
X013957Y021371D01*
X014417Y021371D02*
X014457Y021371D01*
X014457Y021212D02*
X014417Y021212D01*
X014417Y021054D02*
X014457Y021054D01*
X014457Y020895D02*
X014417Y020895D01*
X014417Y020737D02*
X014457Y020737D01*
X014457Y020578D02*
X014417Y020578D01*
X014417Y020420D02*
X014457Y020420D01*
X014457Y020261D02*
X014417Y020261D01*
X014417Y020102D02*
X014457Y020102D01*
X014457Y019944D02*
X014417Y019944D01*
X014417Y019785D02*
X014457Y019785D01*
X014457Y019627D02*
X014417Y019627D01*
X014417Y019468D02*
X014457Y019468D01*
X014489Y019310D02*
X014417Y019310D01*
X014417Y019151D02*
X014648Y019151D01*
X014806Y018993D02*
X014457Y018993D01*
X014981Y019468D02*
X015331Y019468D01*
X015172Y019627D02*
X014917Y019627D01*
X014917Y019785D02*
X015014Y019785D01*
X014957Y019944D02*
X014917Y019944D01*
X014917Y020102D02*
X014957Y020102D01*
X014957Y020261D02*
X014917Y020261D01*
X014917Y020420D02*
X014957Y020420D01*
X014957Y020578D02*
X014917Y020578D01*
X014917Y020737D02*
X014957Y020737D01*
X014957Y020895D02*
X014917Y020895D01*
X014917Y021054D02*
X014957Y021054D01*
X014957Y021212D02*
X014917Y021212D01*
X014917Y021371D02*
X014957Y021371D01*
X015417Y021371D02*
X015457Y021371D01*
X015457Y021212D02*
X015417Y021212D01*
X015417Y021054D02*
X015457Y021054D01*
X015457Y020895D02*
X015417Y020895D01*
X015417Y020737D02*
X015457Y020737D01*
X015457Y020578D02*
X015417Y020578D01*
X015417Y020420D02*
X015504Y020420D01*
X015417Y020261D02*
X015663Y020261D01*
X015821Y020102D02*
X015417Y020102D01*
X015505Y019944D02*
X024480Y019944D01*
X024414Y019785D02*
X024639Y019785D01*
X024573Y019627D02*
X024707Y019627D01*
X024707Y019468D02*
X024667Y019468D01*
X024667Y019310D02*
X024707Y019310D01*
X024707Y019151D02*
X024667Y019151D01*
X024667Y018993D02*
X024707Y018993D01*
X024707Y018834D02*
X024667Y018834D01*
X024667Y018676D02*
X024707Y018676D01*
X024707Y018517D02*
X024667Y018517D01*
X024667Y018359D02*
X024707Y018359D01*
X024707Y018200D02*
X024667Y018200D01*
X024667Y018041D02*
X024707Y018041D01*
X024707Y017883D02*
X024667Y017883D01*
X024667Y017724D02*
X024707Y017724D01*
X024707Y017566D02*
X024667Y017566D01*
X024667Y017407D02*
X024707Y017407D01*
X024707Y017249D02*
X024667Y017249D01*
X024667Y017090D02*
X024707Y017090D01*
X024707Y016932D02*
X024667Y016932D01*
X024667Y016773D02*
X024707Y016773D01*
X024707Y016615D02*
X024667Y016615D01*
X024667Y016456D02*
X024707Y016456D01*
X024707Y016297D02*
X024667Y016297D01*
X024667Y016139D02*
X024707Y016139D01*
X024707Y015980D02*
X024667Y015980D01*
X024667Y015822D02*
X024707Y015822D01*
X024707Y015663D02*
X024667Y015663D01*
X024667Y015505D02*
X024707Y015505D01*
X024707Y015346D02*
X024667Y015346D01*
X024667Y015188D02*
X024707Y015188D01*
X024707Y015029D02*
X024667Y015029D01*
X024667Y014871D02*
X024707Y014871D01*
X024707Y014712D02*
X024667Y014712D01*
X024667Y014553D02*
X024707Y014553D01*
X024707Y014395D02*
X024667Y014395D01*
X024667Y014236D02*
X024707Y014236D01*
X024707Y014078D02*
X024667Y014078D01*
X024667Y013919D02*
X024707Y013919D01*
X024707Y013761D02*
X024667Y013761D01*
X024667Y013602D02*
X024707Y013602D01*
X024730Y013444D02*
X024667Y013444D01*
X024667Y013285D02*
X024889Y013285D01*
X025047Y013127D02*
X024667Y013127D01*
X024667Y012968D02*
X027832Y012968D01*
X028042Y012968D02*
X030788Y012968D01*
X030793Y012964D02*
X030793Y012941D01*
X030797Y012937D01*
X030793Y012933D01*
X030793Y012910D01*
X030427Y012545D01*
X030366Y012545D01*
X030234Y012491D01*
X030134Y012390D01*
X030079Y012258D01*
X030079Y012116D01*
X030134Y011984D01*
X030234Y011884D01*
X030366Y011829D01*
X030508Y011829D01*
X030640Y011884D01*
X030741Y011984D01*
X030795Y012116D01*
X030795Y012177D01*
X030902Y012285D01*
X031638Y012285D01*
X031743Y012390D01*
X031743Y012933D01*
X031739Y012937D01*
X031743Y012941D01*
X031743Y013484D01*
X031638Y013589D01*
X030902Y013589D01*
X030795Y013697D01*
X030795Y013758D01*
X030741Y013890D01*
X030640Y013991D01*
X030508Y014045D01*
X030366Y014045D01*
X030234Y013991D01*
X030134Y013890D01*
X030079Y013758D01*
X030079Y013616D01*
X030134Y013484D01*
X030234Y013384D01*
X030366Y013329D01*
X030427Y013329D01*
X030793Y012964D01*
X030692Y012809D02*
X024667Y012809D01*
X024667Y012651D02*
X030533Y012651D01*
X030239Y012492D02*
X024667Y012492D01*
X024667Y012334D02*
X030110Y012334D01*
X030079Y012175D02*
X024774Y012175D01*
X024441Y011858D02*
X023792Y011858D01*
X023792Y011700D02*
X024599Y011700D01*
X024282Y012017D02*
X023792Y012017D01*
X023792Y012175D02*
X024207Y012175D01*
X024207Y012334D02*
X023792Y012334D01*
X023792Y012492D02*
X024207Y012492D01*
X024207Y012651D02*
X023792Y012651D01*
X023792Y012809D02*
X024207Y012809D01*
X024207Y012968D02*
X023792Y012968D01*
X023792Y013127D02*
X024207Y013127D01*
X024207Y013285D02*
X023792Y013285D01*
X023792Y013444D02*
X024207Y013444D01*
X024207Y013602D02*
X023792Y013602D01*
X023792Y013761D02*
X024207Y013761D01*
X024207Y013919D02*
X023792Y013919D01*
X023792Y014078D02*
X024207Y014078D01*
X024207Y014236D02*
X023792Y014236D01*
X023792Y014395D02*
X024207Y014395D01*
X024207Y014553D02*
X023792Y014553D01*
X023792Y014712D02*
X024207Y014712D01*
X024207Y014871D02*
X023792Y014871D01*
X023792Y015029D02*
X024207Y015029D01*
X024207Y015188D02*
X023792Y015188D01*
X023792Y015346D02*
X024207Y015346D01*
X024207Y015505D02*
X023792Y015505D01*
X023792Y015663D02*
X024207Y015663D01*
X024207Y015822D02*
X023792Y015822D01*
X023792Y015980D02*
X024207Y015980D01*
X024207Y016139D02*
X023792Y016139D01*
X023792Y016297D02*
X024207Y016297D01*
X024207Y016456D02*
X023792Y016456D01*
X023792Y016615D02*
X024207Y016615D01*
X024207Y016773D02*
X023792Y016773D01*
X023792Y016932D02*
X024207Y016932D01*
X024207Y017090D02*
X023792Y017090D01*
X023792Y017249D02*
X024207Y017249D01*
X024207Y017407D02*
X023792Y017407D01*
X023792Y017566D02*
X024207Y017566D01*
X024207Y017724D02*
X023792Y017724D01*
X023792Y017883D02*
X024207Y017883D01*
X024207Y018041D02*
X023792Y018041D01*
X023792Y018200D02*
X024207Y018200D01*
X024207Y018359D02*
X023792Y018359D01*
X023792Y018517D02*
X024207Y018517D01*
X024207Y018676D02*
X023792Y018676D01*
X023792Y018834D02*
X024207Y018834D01*
X024207Y018993D02*
X023792Y018993D01*
X023673Y019151D02*
X024207Y019151D01*
X024207Y019310D02*
X023515Y019310D01*
X023332Y018834D02*
X022865Y018834D01*
X023024Y018676D02*
X023332Y018676D01*
X023332Y018517D02*
X023167Y018517D01*
X023167Y018359D02*
X023332Y018359D01*
X023332Y018200D02*
X023167Y018200D01*
X023167Y018041D02*
X023332Y018041D01*
X023332Y017883D02*
X023167Y017883D01*
X023167Y017724D02*
X023332Y017724D01*
X023332Y017566D02*
X023167Y017566D01*
X023167Y017407D02*
X023332Y017407D01*
X023332Y017249D02*
X023167Y017249D01*
X023167Y017090D02*
X023332Y017090D01*
X023332Y016932D02*
X023167Y016932D01*
X023167Y016773D02*
X023332Y016773D01*
X023332Y016615D02*
X023167Y016615D01*
X023167Y016456D02*
X023332Y016456D01*
X023332Y016297D02*
X023167Y016297D01*
X023167Y016139D02*
X023332Y016139D01*
X023332Y015980D02*
X023167Y015980D01*
X023167Y015822D02*
X023332Y015822D01*
X023332Y015663D02*
X023167Y015663D01*
X023167Y015505D02*
X023332Y015505D01*
X023332Y015346D02*
X023167Y015346D01*
X023167Y015188D02*
X023332Y015188D01*
X023332Y015029D02*
X023167Y015029D01*
X023167Y014871D02*
X023332Y014871D01*
X023332Y014712D02*
X023167Y014712D01*
X023167Y014553D02*
X023332Y014553D01*
X023332Y014395D02*
X023167Y014395D01*
X023167Y014236D02*
X023332Y014236D01*
X023332Y014078D02*
X023167Y014078D01*
X023167Y013919D02*
X023332Y013919D01*
X023332Y013761D02*
X023167Y013761D01*
X023167Y013602D02*
X023332Y013602D01*
X023332Y013444D02*
X023167Y013444D01*
X023167Y013285D02*
X023332Y013285D01*
X023332Y013127D02*
X023167Y013127D01*
X023167Y012968D02*
X023332Y012968D01*
X023332Y012809D02*
X023167Y012809D01*
X023167Y012651D02*
X023332Y012651D01*
X023332Y012492D02*
X023167Y012492D01*
X023167Y012334D02*
X023332Y012334D01*
X023332Y012175D02*
X023167Y012175D01*
X023167Y012017D02*
X023332Y012017D01*
X023332Y011858D02*
X023167Y011858D01*
X023167Y011700D02*
X023332Y011700D01*
X023332Y011541D02*
X023167Y011541D01*
X023167Y011383D02*
X023332Y011383D01*
X023332Y011224D02*
X023167Y011224D01*
X023167Y011066D02*
X023332Y011066D01*
X023332Y010907D02*
X023167Y010907D01*
X023167Y010748D02*
X023332Y010748D01*
X023332Y010590D02*
X023167Y010590D01*
X023167Y010431D02*
X023332Y010431D01*
X023332Y010273D02*
X023167Y010273D01*
X023167Y010114D02*
X023332Y010114D01*
X023332Y009956D02*
X023167Y009956D01*
X023167Y009797D02*
X023332Y009797D01*
X023332Y009639D02*
X023167Y009639D01*
X023167Y009480D02*
X023332Y009480D01*
X023332Y009322D02*
X023167Y009322D01*
X023792Y009639D02*
X033657Y009639D01*
X033657Y009797D02*
X023792Y009797D01*
X023792Y009956D02*
X033657Y009956D01*
X033657Y010114D02*
X023792Y010114D01*
X023792Y010273D02*
X033657Y010273D01*
X033657Y010431D02*
X023792Y010431D01*
X023792Y010590D02*
X033657Y010590D01*
X033657Y010748D02*
X023792Y010748D01*
X023792Y010907D02*
X033657Y010907D01*
X033657Y011066D02*
X023792Y011066D01*
X023792Y011224D02*
X033657Y011224D01*
X033657Y011383D02*
X023792Y011383D01*
X023792Y011541D02*
X027702Y011541D01*
X028173Y011541D02*
X033657Y011541D01*
X033168Y011700D02*
X028278Y011700D01*
X028295Y011858D02*
X030295Y011858D01*
X030120Y012017D02*
X028239Y012017D01*
X028248Y013127D02*
X030630Y013127D01*
X030471Y013285D02*
X028295Y013285D01*
X028270Y013444D02*
X030174Y013444D01*
X030085Y013602D02*
X028153Y013602D01*
X027721Y013602D02*
X025222Y013602D01*
X025167Y013761D02*
X030080Y013761D01*
X030163Y013919D02*
X025167Y013919D01*
X025167Y014078D02*
X033108Y014078D01*
X033079Y013919D02*
X030711Y013919D01*
X030794Y013761D02*
X033122Y013761D01*
X033177Y013602D02*
X030890Y013602D01*
X030911Y013213D02*
X030437Y013687D01*
X030911Y013213D02*
X031268Y013213D01*
X031743Y013285D02*
X032131Y013285D01*
X032131Y013127D02*
X031743Y013127D01*
X031743Y012968D02*
X032131Y012968D01*
X032131Y012809D02*
X031743Y012809D01*
X031743Y012651D02*
X032131Y012651D01*
X032131Y012492D02*
X031743Y012492D01*
X031687Y012334D02*
X032187Y012334D01*
X032606Y012661D02*
X032661Y012661D01*
X032687Y012687D01*
X033187Y012687D01*
X033437Y012437D01*
X033437Y011937D01*
X033169Y012175D02*
X030795Y012175D01*
X030754Y012017D02*
X033083Y012017D01*
X033082Y011858D02*
X030579Y011858D01*
X030437Y012187D02*
X030911Y012661D01*
X031268Y012661D01*
X031743Y013444D02*
X032131Y013444D01*
X032606Y013213D02*
X032661Y013213D01*
X032687Y013187D01*
X033187Y013187D01*
X033437Y013437D01*
X033437Y013937D01*
X033230Y014236D02*
X025167Y014236D01*
X025167Y014395D02*
X033657Y014395D01*
X033657Y014553D02*
X025167Y014553D01*
X025167Y014712D02*
X033657Y014712D01*
X033657Y014871D02*
X025167Y014871D01*
X025167Y015029D02*
X033657Y015029D01*
X033657Y015188D02*
X025167Y015188D01*
X025167Y015346D02*
X033657Y015346D01*
X033657Y015505D02*
X025167Y015505D01*
X025167Y015663D02*
X033657Y015663D01*
X033657Y015822D02*
X025167Y015822D01*
X025167Y015980D02*
X033657Y015980D01*
X033657Y016139D02*
X025167Y016139D01*
X025167Y016297D02*
X027695Y016297D01*
X028179Y016297D02*
X033657Y016297D01*
X033162Y016456D02*
X028281Y016456D01*
X028295Y016615D02*
X030280Y016615D01*
X030234Y016634D02*
X030366Y016579D01*
X030508Y016579D01*
X030640Y016634D01*
X030741Y016734D01*
X030795Y016866D01*
X030795Y016927D01*
X030902Y017035D01*
X031638Y017035D01*
X031743Y017140D01*
X031743Y017683D01*
X031739Y017687D01*
X031743Y017691D01*
X031743Y018234D01*
X031638Y018339D01*
X030902Y018339D01*
X030795Y018447D01*
X030795Y018508D01*
X030741Y018640D01*
X030640Y018741D01*
X030508Y018795D01*
X030366Y018795D01*
X030234Y018741D01*
X030134Y018640D01*
X030079Y018508D01*
X030079Y018366D01*
X030134Y018234D01*
X030234Y018134D01*
X030366Y018079D01*
X030427Y018079D01*
X030793Y017714D01*
X030793Y017691D01*
X030797Y017687D01*
X030793Y017683D01*
X030793Y017660D01*
X030427Y017295D01*
X030366Y017295D01*
X030234Y017241D01*
X030134Y017140D01*
X030079Y017008D01*
X030079Y016866D01*
X030134Y016734D01*
X030234Y016634D01*
X030117Y016773D02*
X028232Y016773D01*
X028057Y017724D02*
X030782Y017724D01*
X030698Y017566D02*
X025667Y017566D01*
X025667Y017724D02*
X027817Y017724D01*
X028250Y017883D02*
X030624Y017883D01*
X030465Y018041D02*
X028295Y018041D01*
X028268Y018200D02*
X030168Y018200D01*
X030082Y018359D02*
X028147Y018359D01*
X027727Y018359D02*
X026216Y018359D01*
X026167Y018517D02*
X030083Y018517D01*
X030169Y018676D02*
X026167Y018676D01*
X026167Y018834D02*
X033110Y018834D01*
X033079Y018676D02*
X030705Y018676D01*
X030792Y018517D02*
X033120Y018517D01*
X033177Y018359D02*
X030883Y018359D01*
X030911Y017963D02*
X030437Y018437D01*
X030911Y017963D02*
X031268Y017963D01*
X031743Y018041D02*
X032131Y018041D01*
X032131Y017883D02*
X031743Y017883D01*
X031743Y017724D02*
X032131Y017724D01*
X032131Y017566D02*
X031743Y017566D01*
X031743Y017407D02*
X032131Y017407D01*
X032131Y017249D02*
X031743Y017249D01*
X031693Y017090D02*
X032181Y017090D01*
X032606Y017411D02*
X032661Y017411D01*
X032687Y017437D01*
X033187Y017437D01*
X033437Y017187D01*
X033437Y016687D01*
X033175Y016932D02*
X030799Y016932D01*
X030757Y016773D02*
X033085Y016773D01*
X033079Y016615D02*
X030594Y016615D01*
X030437Y016937D02*
X030911Y017411D01*
X031268Y017411D01*
X030540Y017407D02*
X025667Y017407D01*
X025667Y017249D02*
X030254Y017249D01*
X030113Y017090D02*
X025667Y017090D01*
X025667Y016932D02*
X030079Y016932D01*
X031743Y018200D02*
X032131Y018200D01*
X032606Y017963D02*
X032661Y017963D01*
X032687Y017937D01*
X033187Y017937D01*
X033437Y018187D01*
X033437Y018687D01*
X033082Y018200D02*
X033082Y018200D01*
X033239Y018993D02*
X026167Y018993D01*
X026167Y019151D02*
X033632Y019151D01*
X033635Y018993D02*
X033644Y018993D01*
X033613Y019310D02*
X026167Y019310D01*
X026167Y019468D02*
X031227Y019468D01*
X031246Y019463D02*
X031246Y019463D01*
X031091Y019510D02*
X031091Y019510D01*
X030941Y019571D02*
X030941Y019571D01*
X030833Y019627D02*
X026167Y019627D01*
X026167Y019785D02*
X030593Y019785D01*
X030533Y019832D02*
X030533Y019832D01*
X030661Y019733D02*
X030661Y019733D01*
X030797Y019646D02*
X030797Y019646D01*
X030413Y019944D02*
X026167Y019944D01*
X026167Y020102D02*
X030278Y020102D01*
X030306Y020064D02*
X030306Y020064D01*
X030210Y020194D02*
X030210Y020194D01*
X030169Y020261D02*
X026167Y020261D01*
X026167Y020420D02*
X030083Y020420D01*
X030054Y020478D02*
X030054Y020478D01*
X030016Y020578D02*
X026167Y020578D01*
X026167Y020737D02*
X029967Y020737D01*
X029953Y020785D02*
X029953Y020785D01*
X029933Y020895D02*
X026167Y020895D01*
X026146Y021054D02*
X029914Y021054D01*
X029909Y021106D02*
X029909Y021106D01*
X029909Y021212D02*
X025987Y021212D01*
X025829Y021371D02*
X029918Y021371D01*
X029924Y021429D02*
X029924Y021429D01*
X029909Y021268D02*
X029909Y021268D01*
X029416Y021529D02*
X028958Y021529D01*
X028886Y021457D02*
X029167Y021738D01*
X029167Y022136D01*
X028886Y022417D01*
X028488Y022417D01*
X028207Y022136D01*
X028207Y021738D01*
X028488Y021457D01*
X028886Y021457D01*
X029117Y021688D02*
X029257Y021688D01*
X029207Y021846D02*
X029167Y021846D01*
X029167Y022005D02*
X029207Y022005D01*
X029235Y022164D02*
X029139Y022164D01*
X028981Y022322D02*
X029393Y022322D01*
X029465Y022481D02*
X028909Y022481D01*
X029068Y022639D02*
X029306Y022639D01*
X029207Y022798D02*
X029167Y022798D01*
X029167Y022956D02*
X029207Y022956D01*
X029207Y023115D02*
X029167Y023115D01*
X029030Y023273D02*
X029345Y023273D01*
X030030Y023273D02*
X030040Y023273D01*
X030167Y023115D02*
X030566Y023115D01*
X030943Y022956D02*
X030167Y022956D01*
X030167Y022798D02*
X030931Y022798D01*
X030661Y022641D02*
X030661Y022641D01*
X030658Y022639D02*
X030068Y022639D01*
X029909Y022481D02*
X030467Y022481D01*
X030414Y022431D02*
X030414Y022431D01*
X030317Y022322D02*
X029981Y022322D01*
X030139Y022164D02*
X030200Y022164D01*
X030210Y022180D02*
X030210Y022180D01*
X030306Y022310D02*
X030306Y022310D01*
X030533Y022542D02*
X030533Y022542D01*
X028465Y022481D02*
X027909Y022481D01*
X027886Y022417D02*
X027488Y022417D01*
X027207Y022136D01*
X027207Y021738D01*
X027488Y021457D01*
X027886Y021457D01*
X028167Y021738D01*
X028167Y022136D01*
X027886Y022417D01*
X027981Y022322D02*
X028393Y022322D01*
X028235Y022164D02*
X028139Y022164D01*
X028167Y022005D02*
X028207Y022005D01*
X028207Y021846D02*
X028167Y021846D01*
X028117Y021688D02*
X028257Y021688D01*
X028416Y021529D02*
X027958Y021529D01*
X027416Y021529D02*
X026958Y021529D01*
X026886Y021457D02*
X027167Y021738D01*
X027167Y022136D01*
X026886Y022417D01*
X026488Y022417D01*
X026207Y022136D01*
X026207Y021738D01*
X026488Y021457D01*
X026886Y021457D01*
X027117Y021688D02*
X027257Y021688D01*
X027207Y021846D02*
X027167Y021846D01*
X027167Y022005D02*
X027207Y022005D01*
X027235Y022164D02*
X027139Y022164D01*
X026981Y022322D02*
X027393Y022322D01*
X027465Y022481D02*
X026909Y022481D01*
X027068Y022639D02*
X027306Y022639D01*
X027207Y022798D02*
X027167Y022798D01*
X027167Y022956D02*
X027207Y022956D01*
X027207Y023115D02*
X027167Y023115D01*
X027030Y023273D02*
X027345Y023273D01*
X028030Y023273D02*
X028345Y023273D01*
X028207Y023115D02*
X028167Y023115D01*
X028167Y022956D02*
X028207Y022956D01*
X028207Y022798D02*
X028167Y022798D01*
X028068Y022639D02*
X028306Y022639D01*
X026465Y022481D02*
X025909Y022481D01*
X025886Y022417D02*
X025488Y022417D01*
X025207Y022136D01*
X025207Y021738D01*
X025488Y021457D01*
X025886Y021457D01*
X026167Y021738D01*
X026167Y022136D01*
X025886Y022417D01*
X025981Y022322D02*
X026393Y022322D01*
X026235Y022164D02*
X026139Y022164D01*
X026167Y022005D02*
X026207Y022005D01*
X026207Y021846D02*
X026167Y021846D01*
X026117Y021688D02*
X026257Y021688D01*
X026416Y021529D02*
X025958Y021529D01*
X025416Y021529D02*
X024958Y021529D01*
X024886Y021457D02*
X025167Y021738D01*
X025167Y022136D01*
X024886Y022417D01*
X024488Y022417D01*
X024207Y022136D01*
X024207Y021738D01*
X024488Y021457D01*
X024886Y021457D01*
X025117Y021688D02*
X025257Y021688D01*
X025207Y021846D02*
X025167Y021846D01*
X025167Y022005D02*
X025207Y022005D01*
X025235Y022164D02*
X025139Y022164D01*
X024981Y022322D02*
X025393Y022322D01*
X025465Y022481D02*
X024909Y022481D01*
X025068Y022639D02*
X025306Y022639D01*
X025207Y022798D02*
X025167Y022798D01*
X025167Y022956D02*
X025207Y022956D01*
X025207Y023115D02*
X025167Y023115D01*
X025030Y023273D02*
X025345Y023273D01*
X026030Y023273D02*
X026345Y023273D01*
X026207Y023115D02*
X026167Y023115D01*
X026167Y022956D02*
X026207Y022956D01*
X026207Y022798D02*
X026167Y022798D01*
X026068Y022639D02*
X026306Y022639D01*
X024465Y022481D02*
X023909Y022481D01*
X023886Y022417D02*
X023488Y022417D01*
X023207Y022136D01*
X023207Y021738D01*
X023488Y021457D01*
X023886Y021457D01*
X024167Y021738D01*
X024167Y022136D01*
X023886Y022417D01*
X023981Y022322D02*
X024393Y022322D01*
X024235Y022164D02*
X024139Y022164D01*
X024167Y022005D02*
X024207Y022005D01*
X024207Y021846D02*
X024167Y021846D01*
X024117Y021688D02*
X024257Y021688D01*
X024416Y021529D02*
X023958Y021529D01*
X023416Y021529D02*
X022958Y021529D01*
X022886Y021457D02*
X023167Y021738D01*
X023167Y022136D01*
X022886Y022417D01*
X022488Y022417D01*
X022207Y022136D01*
X022207Y021738D01*
X022488Y021457D01*
X022886Y021457D01*
X023117Y021688D02*
X023257Y021688D01*
X023207Y021846D02*
X023167Y021846D01*
X023167Y022005D02*
X023207Y022005D01*
X023235Y022164D02*
X023139Y022164D01*
X022981Y022322D02*
X023393Y022322D01*
X023465Y022481D02*
X022909Y022481D01*
X023068Y022639D02*
X023306Y022639D01*
X023207Y022798D02*
X023167Y022798D01*
X023167Y022956D02*
X023207Y022956D01*
X023207Y023115D02*
X023167Y023115D01*
X023030Y023273D02*
X023345Y023273D01*
X024030Y023273D02*
X024345Y023273D01*
X024207Y023115D02*
X024167Y023115D01*
X024167Y022956D02*
X024207Y022956D01*
X024207Y022798D02*
X024167Y022798D01*
X024068Y022639D02*
X024306Y022639D01*
X022465Y022481D02*
X021909Y022481D01*
X021886Y022417D02*
X021488Y022417D01*
X021207Y022136D01*
X021207Y021738D01*
X021488Y021457D01*
X021886Y021457D01*
X022167Y021738D01*
X022167Y022136D01*
X021886Y022417D01*
X021981Y022322D02*
X022393Y022322D01*
X022235Y022164D02*
X022139Y022164D01*
X022167Y022005D02*
X022207Y022005D01*
X022207Y021846D02*
X022167Y021846D01*
X022117Y021688D02*
X022257Y021688D01*
X022416Y021529D02*
X021958Y021529D01*
X021416Y021529D02*
X020958Y021529D01*
X021117Y021688D02*
X021257Y021688D01*
X021207Y021846D02*
X021167Y021846D01*
X021167Y022005D02*
X021207Y022005D01*
X021235Y022164D02*
X021139Y022164D01*
X020981Y022322D02*
X021393Y022322D01*
X021465Y022481D02*
X020909Y022481D01*
X021068Y022639D02*
X021306Y022639D01*
X021207Y022798D02*
X021167Y022798D01*
X021167Y022956D02*
X021207Y022956D01*
X021207Y023115D02*
X021167Y023115D01*
X021030Y023273D02*
X021345Y023273D01*
X022030Y023273D02*
X022345Y023273D01*
X022207Y023115D02*
X022167Y023115D01*
X022167Y022956D02*
X022207Y022956D01*
X022207Y022798D02*
X022167Y022798D01*
X022068Y022639D02*
X022306Y022639D01*
X020465Y022481D02*
X020417Y022481D01*
X019465Y022481D02*
X018909Y022481D01*
X018886Y022417D02*
X018488Y022417D01*
X018207Y022136D01*
X018207Y021738D01*
X018488Y021457D01*
X018886Y021457D01*
X019167Y021738D01*
X019167Y022136D01*
X018886Y022417D01*
X018981Y022322D02*
X019393Y022322D01*
X019235Y022164D02*
X019139Y022164D01*
X019167Y022005D02*
X019207Y022005D01*
X019207Y021846D02*
X019167Y021846D01*
X019117Y021688D02*
X019257Y021688D01*
X019416Y021529D02*
X018958Y021529D01*
X018416Y021529D02*
X017958Y021529D01*
X017886Y021457D02*
X018167Y021738D01*
X018167Y022136D01*
X017886Y022417D01*
X017488Y022417D01*
X017207Y022136D01*
X017207Y021738D01*
X017488Y021457D01*
X017886Y021457D01*
X018117Y021688D02*
X018257Y021688D01*
X018207Y021846D02*
X018167Y021846D01*
X018167Y022005D02*
X018207Y022005D01*
X018235Y022164D02*
X018139Y022164D01*
X017981Y022322D02*
X018393Y022322D01*
X018465Y022481D02*
X017909Y022481D01*
X018068Y022639D02*
X018306Y022639D01*
X018207Y022798D02*
X018167Y022798D01*
X018167Y022956D02*
X018207Y022956D01*
X018207Y023115D02*
X018167Y023115D01*
X018030Y023273D02*
X018345Y023273D01*
X019030Y023273D02*
X019345Y023273D01*
X019207Y023115D02*
X019167Y023115D01*
X019167Y022956D02*
X019207Y022956D01*
X019207Y022798D02*
X019167Y022798D01*
X019068Y022639D02*
X019306Y022639D01*
X019957Y021371D02*
X016417Y021371D01*
X016487Y021212D02*
X020087Y021212D01*
X020245Y021054D02*
X016646Y021054D01*
X016312Y020737D02*
X015917Y020737D01*
X015917Y020895D02*
X016154Y020895D01*
X015995Y021054D02*
X015917Y021054D01*
X015917Y021212D02*
X015957Y021212D01*
X015957Y021371D02*
X015917Y021371D01*
X015996Y020578D02*
X016471Y020578D01*
X016155Y020420D02*
X024879Y020420D01*
X024813Y020261D02*
X025038Y020261D01*
X024972Y020102D02*
X025196Y020102D01*
X025207Y019944D02*
X025130Y019944D01*
X025167Y019785D02*
X025207Y019785D01*
X025207Y019627D02*
X025167Y019627D01*
X025167Y019468D02*
X025207Y019468D01*
X025207Y019310D02*
X025167Y019310D01*
X025167Y019151D02*
X025207Y019151D01*
X025207Y018993D02*
X025167Y018993D01*
X025167Y018834D02*
X025207Y018834D01*
X025207Y018676D02*
X025167Y018676D01*
X025167Y018517D02*
X025207Y018517D01*
X025207Y018359D02*
X025167Y018359D01*
X025167Y018200D02*
X025207Y018200D01*
X025207Y018041D02*
X025167Y018041D01*
X025167Y017883D02*
X025207Y017883D01*
X025207Y017724D02*
X025167Y017724D01*
X025167Y017566D02*
X025207Y017566D01*
X025207Y017407D02*
X025167Y017407D01*
X025167Y017249D02*
X025207Y017249D01*
X025207Y017090D02*
X025167Y017090D01*
X025167Y016932D02*
X025207Y016932D01*
X025207Y016773D02*
X025167Y016773D01*
X025167Y016615D02*
X025207Y016615D01*
X025167Y016456D02*
X025343Y016456D01*
X025667Y017883D02*
X026041Y017883D01*
X025882Y018041D02*
X025667Y018041D01*
X025667Y018200D02*
X025724Y018200D01*
X025707Y018359D02*
X025667Y018359D01*
X025667Y018517D02*
X025707Y018517D01*
X025707Y018676D02*
X025667Y018676D01*
X025667Y018834D02*
X025707Y018834D01*
X025707Y018993D02*
X025667Y018993D01*
X025667Y019151D02*
X025707Y019151D01*
X025707Y019310D02*
X025667Y019310D01*
X025667Y019468D02*
X025707Y019468D01*
X025707Y019627D02*
X025667Y019627D01*
X025667Y019785D02*
X025707Y019785D01*
X025707Y019944D02*
X025667Y019944D01*
X025667Y020102D02*
X025707Y020102D01*
X025707Y020261D02*
X025667Y020261D01*
X025707Y020420D02*
X025530Y020420D01*
X025371Y020578D02*
X025707Y020578D01*
X025707Y020737D02*
X025213Y020737D01*
X025054Y020895D02*
X025654Y020895D01*
X029997Y020629D02*
X029997Y020629D01*
X030126Y020332D02*
X030126Y020332D01*
X031405Y019430D02*
X031405Y019430D01*
X031566Y019411D02*
X031566Y019411D01*
X032143Y019468D02*
X033589Y019468D01*
X033561Y019627D02*
X032541Y019627D01*
X032779Y019781D02*
X032779Y019781D01*
X032784Y019785D02*
X033524Y019785D01*
X033485Y019944D02*
X032958Y019944D01*
X033097Y020102D02*
X033436Y020102D01*
X033386Y020261D02*
X033207Y020261D01*
X033292Y020420D02*
X033324Y020420D01*
X033166Y017090D02*
X033032Y017090D01*
X033644Y014236D02*
X033657Y014236D01*
X033173Y012334D02*
X033025Y012334D01*
X033650Y009480D02*
X033657Y009480D01*
X029909Y004606D02*
X029909Y004606D01*
X026478Y004407D02*
X025896Y004407D01*
X025886Y004417D02*
X025488Y004417D01*
X025207Y004136D01*
X025207Y003738D01*
X025488Y003457D01*
X025886Y003457D01*
X026167Y003738D01*
X026167Y004136D01*
X025886Y004417D01*
X026055Y004248D02*
X026319Y004248D01*
X026207Y004090D02*
X026167Y004090D01*
X026167Y003931D02*
X026207Y003931D01*
X026207Y003773D02*
X026167Y003773D01*
X026043Y003614D02*
X026331Y003614D01*
X026368Y003297D02*
X026006Y003297D01*
X026165Y003138D02*
X026210Y003138D01*
X026207Y002980D02*
X026167Y002980D01*
X026167Y002821D02*
X026207Y002821D01*
X026283Y002663D02*
X026091Y002663D01*
X025933Y002504D02*
X026441Y002504D01*
X025441Y002504D02*
X024933Y002504D01*
X025091Y002663D02*
X025283Y002663D01*
X025207Y002821D02*
X025167Y002821D01*
X025167Y002980D02*
X025207Y002980D01*
X025210Y003138D02*
X025165Y003138D01*
X025006Y003297D02*
X025368Y003297D01*
X025331Y003614D02*
X025043Y003614D01*
X025167Y003738D02*
X024886Y003457D01*
X024488Y003457D01*
X024207Y003738D01*
X024207Y004136D01*
X024488Y004417D01*
X024886Y004417D01*
X025167Y004136D01*
X025167Y003738D01*
X025167Y003773D02*
X025207Y003773D01*
X025207Y003931D02*
X025167Y003931D01*
X025167Y004090D02*
X025207Y004090D01*
X025319Y004248D02*
X025055Y004248D01*
X024896Y004407D02*
X025478Y004407D01*
X024478Y004407D02*
X023896Y004407D01*
X023886Y004417D02*
X023488Y004417D01*
X023207Y004136D01*
X023207Y003738D01*
X023488Y003457D01*
X023886Y003457D01*
X024167Y003738D01*
X024167Y004136D01*
X023886Y004417D01*
X024055Y004248D02*
X024319Y004248D01*
X024207Y004090D02*
X024167Y004090D01*
X024167Y003931D02*
X024207Y003931D01*
X024207Y003773D02*
X024167Y003773D01*
X024043Y003614D02*
X024331Y003614D01*
X024368Y003297D02*
X024006Y003297D01*
X024165Y003138D02*
X024210Y003138D01*
X024207Y002980D02*
X024167Y002980D01*
X024167Y002821D02*
X024207Y002821D01*
X024283Y002663D02*
X024091Y002663D01*
X023933Y002504D02*
X024441Y002504D01*
X023441Y002504D02*
X022933Y002504D01*
X023091Y002663D02*
X023283Y002663D01*
X023207Y002821D02*
X023167Y002821D01*
X023167Y002980D02*
X023207Y002980D01*
X023210Y003138D02*
X023165Y003138D01*
X023006Y003297D02*
X023368Y003297D01*
X023331Y003614D02*
X023043Y003614D01*
X023167Y003773D02*
X023207Y003773D01*
X023207Y003931D02*
X023167Y003931D01*
X023167Y004090D02*
X023207Y004090D01*
X023319Y004248D02*
X023055Y004248D01*
X022896Y004407D02*
X023478Y004407D01*
X022707Y011383D02*
X016417Y011383D01*
X016417Y011541D02*
X022707Y011541D01*
X022707Y011700D02*
X016456Y011700D01*
X016542Y011858D02*
X022707Y011858D01*
X022707Y012017D02*
X016542Y012017D01*
X016455Y012175D02*
X022707Y012175D01*
X017416Y021529D02*
X016958Y021529D01*
X017117Y021688D02*
X017257Y021688D01*
X017207Y021846D02*
X017167Y021846D01*
X017167Y022005D02*
X017207Y022005D01*
X017235Y022164D02*
X017139Y022164D01*
X016981Y022322D02*
X017393Y022322D01*
X017465Y022481D02*
X016909Y022481D01*
X017068Y022639D02*
X017306Y022639D01*
X017207Y022798D02*
X017167Y022798D01*
X017167Y022956D02*
X017207Y022956D01*
X017207Y023115D02*
X017167Y023115D01*
X017030Y023273D02*
X017345Y023273D01*
X016465Y022481D02*
X016417Y022481D01*
X013465Y022481D02*
X012909Y022481D01*
X012886Y022417D02*
X012488Y022417D01*
X012207Y022136D01*
X012207Y021738D01*
X012488Y021457D01*
X012886Y021457D01*
X013167Y021738D01*
X013167Y022136D01*
X012886Y022417D01*
X012981Y022322D02*
X013393Y022322D01*
X013235Y022164D02*
X013139Y022164D01*
X013167Y022005D02*
X013207Y022005D01*
X013207Y021846D02*
X013167Y021846D01*
X013117Y021688D02*
X013257Y021688D01*
X013416Y021529D02*
X012958Y021529D01*
X012416Y021529D02*
X011958Y021529D01*
X011886Y021457D02*
X012167Y021738D01*
X012167Y022136D01*
X011886Y022417D01*
X011488Y022417D01*
X011207Y022136D01*
X011207Y021738D01*
X011488Y021457D01*
X011886Y021457D01*
X012117Y021688D02*
X012257Y021688D01*
X012207Y021846D02*
X012167Y021846D01*
X012167Y022005D02*
X012207Y022005D01*
X012235Y022164D02*
X012139Y022164D01*
X011981Y022322D02*
X012393Y022322D01*
X012465Y022481D02*
X011909Y022481D01*
X012068Y022639D02*
X012306Y022639D01*
X012207Y022798D02*
X012167Y022798D01*
X012167Y022956D02*
X012207Y022956D01*
X012207Y023115D02*
X012167Y023115D01*
X012030Y023273D02*
X012345Y023273D01*
X013030Y023273D02*
X013345Y023273D01*
X013207Y023115D02*
X013167Y023115D01*
X013167Y022956D02*
X013207Y022956D01*
X013207Y022798D02*
X013167Y022798D01*
X013068Y022639D02*
X013306Y022639D01*
X011465Y022481D02*
X010909Y022481D01*
X010886Y022417D02*
X010488Y022417D01*
X010207Y022136D01*
X010207Y021738D01*
X010488Y021457D01*
X010886Y021457D01*
X011167Y021738D01*
X011167Y022136D01*
X010886Y022417D01*
X010981Y022322D02*
X011393Y022322D01*
X011235Y022164D02*
X011139Y022164D01*
X011167Y022005D02*
X011207Y022005D01*
X011207Y021846D02*
X011167Y021846D01*
X011117Y021688D02*
X011257Y021688D01*
X011416Y021529D02*
X010958Y021529D01*
X010416Y021529D02*
X009958Y021529D01*
X009886Y021457D02*
X010167Y021738D01*
X010167Y022136D01*
X009886Y022417D01*
X009488Y022417D01*
X009207Y022136D01*
X009207Y021738D01*
X009488Y021457D01*
X009886Y021457D01*
X010117Y021688D02*
X010257Y021688D01*
X010207Y021846D02*
X010167Y021846D01*
X010167Y022005D02*
X010207Y022005D01*
X010235Y022164D02*
X010139Y022164D01*
X009981Y022322D02*
X010393Y022322D01*
X010465Y022481D02*
X009909Y022481D01*
X010068Y022639D02*
X010306Y022639D01*
X010207Y022798D02*
X010167Y022798D01*
X010167Y022956D02*
X010207Y022956D01*
X010207Y023115D02*
X010167Y023115D01*
X010030Y023273D02*
X010345Y023273D01*
X011030Y023273D02*
X011345Y023273D01*
X011207Y023115D02*
X011167Y023115D01*
X011167Y022956D02*
X011207Y022956D01*
X011207Y022798D02*
X011167Y022798D01*
X011068Y022639D02*
X011306Y022639D01*
X009465Y022481D02*
X008909Y022481D01*
X008886Y022417D02*
X008488Y022417D01*
X008207Y022136D01*
X008207Y021738D01*
X008488Y021457D01*
X008886Y021457D01*
X009167Y021738D01*
X009167Y022136D01*
X008886Y022417D01*
X008981Y022322D02*
X009393Y022322D01*
X009235Y022164D02*
X009139Y022164D01*
X009167Y022005D02*
X009207Y022005D01*
X009207Y021846D02*
X009167Y021846D01*
X009117Y021688D02*
X009257Y021688D01*
X009416Y021529D02*
X008958Y021529D01*
X008416Y021529D02*
X007958Y021529D01*
X008117Y021688D02*
X008257Y021688D01*
X008207Y021846D02*
X008167Y021846D01*
X008167Y021957D02*
X007707Y021957D01*
X007707Y022417D01*
X007886Y022417D01*
X008167Y022136D01*
X008167Y021957D01*
X008167Y022005D02*
X008207Y022005D01*
X008235Y022164D02*
X008139Y022164D01*
X007981Y022322D02*
X008393Y022322D01*
X008465Y022481D02*
X007909Y022481D01*
X007707Y022481D02*
X007667Y022481D01*
X007667Y022639D02*
X007707Y022639D01*
X007707Y022798D02*
X007667Y022798D01*
X007707Y022956D02*
X008207Y022956D01*
X008207Y022798D02*
X008167Y022798D01*
X008068Y022639D02*
X008306Y022639D01*
X007707Y022322D02*
X007667Y022322D01*
X007667Y022164D02*
X007707Y022164D01*
X007707Y022005D02*
X007667Y022005D01*
X007667Y021846D02*
X007707Y021846D01*
X007707Y021688D02*
X007667Y021688D01*
X007667Y021529D02*
X007707Y021529D01*
X007416Y021529D02*
X007217Y021529D01*
X007286Y021654D02*
X007286Y021654D01*
X009068Y022639D02*
X009306Y022639D01*
X009207Y022798D02*
X009167Y022798D01*
X009167Y022956D02*
X009207Y022956D01*
X009207Y023115D02*
X009167Y023115D01*
X009030Y023273D02*
X009345Y023273D01*
X008345Y023273D02*
X008030Y023273D01*
X008167Y023115D02*
X008207Y023115D01*
X004397Y021212D02*
X002467Y021212D01*
X002467Y021371D02*
X004264Y021371D01*
X004306Y021314D02*
X004306Y021314D01*
X004210Y021444D02*
X004210Y021444D01*
X004158Y021529D02*
X002467Y021529D01*
X002467Y021688D02*
X004074Y021688D01*
X004054Y021728D02*
X004054Y021728D01*
X004009Y021846D02*
X002467Y021846D01*
X002467Y022005D02*
X003961Y022005D01*
X003953Y022035D02*
X003953Y022035D01*
X003929Y022164D02*
X002467Y022164D01*
X002467Y022322D02*
X003912Y022322D01*
X003909Y022356D02*
X003909Y022356D01*
X003909Y022481D02*
X002467Y022481D01*
X002467Y022639D02*
X003920Y022639D01*
X003924Y022679D02*
X003924Y022679D01*
X003945Y022798D02*
X002467Y022798D01*
X002467Y022956D02*
X003986Y022956D01*
X003997Y022995D02*
X003997Y022995D01*
X004043Y023115D02*
X002467Y023115D01*
X002467Y023273D02*
X004117Y023273D01*
X004054Y023146D02*
X004054Y023146D01*
X003909Y022518D02*
X003909Y022518D01*
X003997Y021879D02*
X003997Y021879D01*
X004126Y021582D02*
X004126Y021582D01*
X003043Y019151D02*
X003019Y019151D01*
D18*
X002687Y018687D03*
X002687Y017937D03*
X004937Y017937D03*
X006437Y017937D03*
X006687Y018937D03*
X007687Y018437D03*
X008437Y017187D03*
X008437Y015687D03*
X008437Y013687D03*
X010937Y012687D03*
X012937Y012487D03*
X012937Y011487D03*
X013437Y010687D03*
X014187Y010687D03*
X016187Y010687D03*
X016187Y011937D03*
X019437Y009687D03*
X020437Y010187D03*
X025937Y009437D03*
X027937Y008562D03*
X027937Y007062D03*
X025937Y006187D03*
X026187Y003437D03*
X024187Y003437D03*
X022187Y003437D03*
X020187Y003437D03*
X017187Y003437D03*
X017687Y006062D03*
X016562Y006062D03*
X013562Y006062D03*
X010437Y006062D03*
X009937Y009187D03*
X010937Y009187D03*
X010937Y010687D03*
X011937Y010687D03*
X005437Y006187D03*
X002687Y006187D03*
X002687Y004187D03*
X002687Y002687D03*
X002687Y008187D03*
X002687Y009937D03*
X004937Y009937D03*
X011937Y018687D03*
X011937Y020187D03*
X013187Y022437D03*
X010187Y022437D03*
X006687Y020437D03*
X007687Y019687D03*
X003937Y021687D03*
X002687Y021687D03*
X002687Y020687D03*
X002687Y023187D03*
X003687Y023187D03*
X017187Y022437D03*
X019187Y022437D03*
X021187Y022437D03*
X023187Y022437D03*
X026187Y022437D03*
X029187Y022437D03*
X033187Y019687D03*
X033437Y018687D03*
X033437Y016687D03*
X033437Y015187D03*
X033437Y013937D03*
X033437Y011937D03*
X033437Y010687D03*
X033437Y009187D03*
X033437Y007187D03*
X033187Y006187D03*
X030437Y007437D03*
X030187Y006187D03*
X029687Y004937D03*
X030437Y008937D03*
X027937Y011812D03*
X025937Y010937D03*
X027937Y013312D03*
X025937Y014187D03*
X025937Y015687D03*
X027937Y016562D03*
X027937Y018062D03*
X026687Y018937D03*
X030437Y018437D03*
X030437Y016937D03*
X030437Y013687D03*
X030437Y012187D03*
D19*
X027937Y011812D02*
X024812Y011812D01*
X024437Y012187D01*
X024437Y019437D01*
X024187Y019687D01*
X015437Y019687D01*
X015187Y019937D01*
X015187Y022437D01*
X014687Y022937D01*
X014187Y022437D02*
X013687Y022937D01*
X014187Y022437D02*
X014187Y018937D01*
X014437Y018687D01*
X022687Y018687D01*
X022937Y018437D01*
X022937Y007437D01*
X023312Y007062D01*
X027937Y007062D01*
X027937Y008562D02*
X023937Y008562D01*
X023562Y008937D01*
X023562Y018937D01*
X023312Y019187D01*
X014937Y019187D01*
X014687Y019437D01*
X014687Y021937D01*
X015687Y021937D02*
X015687Y020562D01*
X016062Y020187D01*
X024562Y020187D01*
X024937Y019812D01*
X024937Y013562D01*
X025187Y013312D01*
X027937Y013312D01*
X027937Y016562D02*
X025562Y016562D01*
X025437Y016687D01*
X025437Y020187D01*
X024937Y020687D01*
X016687Y020687D01*
X016187Y021187D01*
X016187Y022437D01*
X015687Y022937D01*
X019687Y022937D02*
X020187Y022437D01*
X020187Y021437D01*
X020437Y021187D01*
X025687Y021187D01*
X025937Y020937D01*
X025937Y018312D01*
X026187Y018062D01*
X027937Y018062D01*
X020437Y010187D02*
X010687Y010187D01*
X010437Y010437D01*
X010437Y010937D01*
X010187Y011187D01*
X008937Y011187D01*
X008937Y010187D02*
X009937Y010187D01*
X010437Y009687D01*
X019437Y009687D01*
X016187Y010687D02*
X016187Y011937D01*
X012937Y011487D02*
X012937Y012487D01*
D20*
X013562Y006062D02*
X010437Y006062D01*
X016562Y006062D02*
X017687Y006062D01*
M02*
