G75*
G70*
%OFA0B0*%
%FSLAX24Y24*%
%IPPOS*%
%LPD*%
%AMOC8*
5,1,8,0,0,1.08239X$1,22.5*
%
%ADD10C,0.0000*%
%ADD11OC8,0.0600*%
%ADD12O,0.1200X0.0600*%
%ADD13R,0.0591X0.0512*%
%ADD14R,0.0512X0.0591*%
%ADD15R,0.0866X0.0236*%
%ADD16O,0.1080X0.0540*%
%ADD17R,0.0551X0.0394*%
%ADD18C,0.0160*%
%ADD19C,0.0356*%
%ADD20C,0.0100*%
%ADD21C,0.0240*%
D10*
X002187Y002187D02*
X002187Y010437D01*
X007937Y010437D01*
X007937Y017437D01*
X002187Y017437D01*
X002187Y023687D01*
X028937Y023687D01*
X031057Y021187D02*
X031060Y021244D01*
X031067Y021301D01*
X031080Y021357D01*
X031098Y021411D01*
X031121Y021464D01*
X031149Y021514D01*
X031181Y021562D01*
X031217Y021606D01*
X031257Y021647D01*
X031301Y021685D01*
X031347Y021718D01*
X031397Y021746D01*
X031449Y021770D01*
X031503Y021790D01*
X031559Y021804D01*
X031615Y021813D01*
X031673Y021817D01*
X031730Y021816D01*
X031787Y021809D01*
X031843Y021797D01*
X031898Y021781D01*
X031951Y021759D01*
X032002Y021733D01*
X032050Y021702D01*
X032096Y021667D01*
X032138Y021627D01*
X032176Y021585D01*
X032210Y021538D01*
X032240Y021489D01*
X032265Y021438D01*
X032285Y021384D01*
X032301Y021329D01*
X032311Y021273D01*
X032316Y021216D01*
X032316Y021158D01*
X032311Y021101D01*
X032301Y021045D01*
X032285Y020990D01*
X032265Y020936D01*
X032240Y020885D01*
X032210Y020836D01*
X032176Y020789D01*
X032138Y020747D01*
X032096Y020707D01*
X032050Y020672D01*
X032002Y020641D01*
X031951Y020615D01*
X031898Y020593D01*
X031843Y020577D01*
X031787Y020565D01*
X031730Y020558D01*
X031673Y020557D01*
X031615Y020561D01*
X031559Y020570D01*
X031503Y020584D01*
X031449Y020604D01*
X031397Y020628D01*
X031347Y020656D01*
X031301Y020689D01*
X031257Y020727D01*
X031217Y020768D01*
X031181Y020812D01*
X031149Y020860D01*
X031121Y020910D01*
X031098Y020963D01*
X031080Y021017D01*
X031067Y021073D01*
X031060Y021130D01*
X031057Y021187D01*
X028937Y023687D02*
X029077Y023685D01*
X029217Y023679D01*
X029357Y023669D01*
X029497Y023656D01*
X029636Y023638D01*
X029775Y023616D01*
X029912Y023591D01*
X030050Y023562D01*
X030186Y023529D01*
X030321Y023492D01*
X030455Y023451D01*
X030588Y023406D01*
X030720Y023358D01*
X030850Y023306D01*
X030979Y023251D01*
X031106Y023192D01*
X031232Y023129D01*
X031356Y023063D01*
X031477Y022994D01*
X031597Y022921D01*
X031715Y022844D01*
X031830Y022765D01*
X031944Y022682D01*
X032054Y022596D01*
X032163Y022507D01*
X032269Y022415D01*
X032372Y022320D01*
X032473Y022223D01*
X032570Y022122D01*
X032665Y022019D01*
X032757Y021913D01*
X032846Y021804D01*
X032932Y021694D01*
X033015Y021580D01*
X033094Y021465D01*
X033171Y021347D01*
X033244Y021227D01*
X033313Y021106D01*
X033379Y020982D01*
X033442Y020856D01*
X033501Y020729D01*
X033556Y020600D01*
X033608Y020470D01*
X033656Y020338D01*
X033701Y020205D01*
X033742Y020071D01*
X033779Y019936D01*
X033812Y019800D01*
X033841Y019662D01*
X033866Y019525D01*
X033888Y019386D01*
X033906Y019247D01*
X033919Y019107D01*
X033929Y018967D01*
X033935Y018827D01*
X033937Y018687D01*
X033937Y007187D01*
X031057Y004687D02*
X031060Y004744D01*
X031067Y004801D01*
X031080Y004857D01*
X031098Y004911D01*
X031121Y004964D01*
X031149Y005014D01*
X031181Y005062D01*
X031217Y005106D01*
X031257Y005147D01*
X031301Y005185D01*
X031347Y005218D01*
X031397Y005246D01*
X031449Y005270D01*
X031503Y005290D01*
X031559Y005304D01*
X031615Y005313D01*
X031673Y005317D01*
X031730Y005316D01*
X031787Y005309D01*
X031843Y005297D01*
X031898Y005281D01*
X031951Y005259D01*
X032002Y005233D01*
X032050Y005202D01*
X032096Y005167D01*
X032138Y005127D01*
X032176Y005085D01*
X032210Y005038D01*
X032240Y004989D01*
X032265Y004938D01*
X032285Y004884D01*
X032301Y004829D01*
X032311Y004773D01*
X032316Y004716D01*
X032316Y004658D01*
X032311Y004601D01*
X032301Y004545D01*
X032285Y004490D01*
X032265Y004436D01*
X032240Y004385D01*
X032210Y004336D01*
X032176Y004289D01*
X032138Y004247D01*
X032096Y004207D01*
X032050Y004172D01*
X032002Y004141D01*
X031951Y004115D01*
X031898Y004093D01*
X031843Y004077D01*
X031787Y004065D01*
X031730Y004058D01*
X031673Y004057D01*
X031615Y004061D01*
X031559Y004070D01*
X031503Y004084D01*
X031449Y004104D01*
X031397Y004128D01*
X031347Y004156D01*
X031301Y004189D01*
X031257Y004227D01*
X031217Y004268D01*
X031181Y004312D01*
X031149Y004360D01*
X031121Y004410D01*
X031098Y004463D01*
X031080Y004517D01*
X031067Y004573D01*
X031060Y004630D01*
X031057Y004687D01*
X028937Y002187D02*
X002187Y002187D01*
X005057Y003437D02*
X005060Y003494D01*
X005067Y003551D01*
X005080Y003607D01*
X005098Y003661D01*
X005121Y003714D01*
X005149Y003764D01*
X005181Y003812D01*
X005217Y003856D01*
X005257Y003897D01*
X005301Y003935D01*
X005347Y003968D01*
X005397Y003996D01*
X005449Y004020D01*
X005503Y004040D01*
X005559Y004054D01*
X005615Y004063D01*
X005673Y004067D01*
X005730Y004066D01*
X005787Y004059D01*
X005843Y004047D01*
X005898Y004031D01*
X005951Y004009D01*
X006002Y003983D01*
X006050Y003952D01*
X006096Y003917D01*
X006138Y003877D01*
X006176Y003835D01*
X006210Y003788D01*
X006240Y003739D01*
X006265Y003688D01*
X006285Y003634D01*
X006301Y003579D01*
X006311Y003523D01*
X006316Y003466D01*
X006316Y003408D01*
X006311Y003351D01*
X006301Y003295D01*
X006285Y003240D01*
X006265Y003186D01*
X006240Y003135D01*
X006210Y003086D01*
X006176Y003039D01*
X006138Y002997D01*
X006096Y002957D01*
X006050Y002922D01*
X006002Y002891D01*
X005951Y002865D01*
X005898Y002843D01*
X005843Y002827D01*
X005787Y002815D01*
X005730Y002808D01*
X005673Y002807D01*
X005615Y002811D01*
X005559Y002820D01*
X005503Y002834D01*
X005449Y002854D01*
X005397Y002878D01*
X005347Y002906D01*
X005301Y002939D01*
X005257Y002977D01*
X005217Y003018D01*
X005181Y003062D01*
X005149Y003110D01*
X005121Y003160D01*
X005098Y003213D01*
X005080Y003267D01*
X005067Y003323D01*
X005060Y003380D01*
X005057Y003437D01*
X028937Y002187D02*
X029077Y002189D01*
X029217Y002195D01*
X029357Y002205D01*
X029497Y002218D01*
X029636Y002236D01*
X029775Y002258D01*
X029912Y002283D01*
X030050Y002312D01*
X030186Y002345D01*
X030321Y002382D01*
X030455Y002423D01*
X030588Y002468D01*
X030720Y002516D01*
X030850Y002568D01*
X030979Y002623D01*
X031106Y002682D01*
X031232Y002745D01*
X031356Y002811D01*
X031477Y002880D01*
X031597Y002953D01*
X031715Y003030D01*
X031830Y003109D01*
X031944Y003192D01*
X032054Y003278D01*
X032163Y003367D01*
X032269Y003459D01*
X032372Y003554D01*
X032473Y003651D01*
X032570Y003752D01*
X032665Y003855D01*
X032757Y003961D01*
X032846Y004070D01*
X032932Y004180D01*
X033015Y004294D01*
X033094Y004409D01*
X033171Y004527D01*
X033244Y004647D01*
X033313Y004768D01*
X033379Y004892D01*
X033442Y005018D01*
X033501Y005145D01*
X033556Y005274D01*
X033608Y005404D01*
X033656Y005536D01*
X033701Y005669D01*
X033742Y005803D01*
X033779Y005938D01*
X033812Y006074D01*
X033841Y006212D01*
X033866Y006349D01*
X033888Y006488D01*
X033906Y006627D01*
X033919Y006767D01*
X033929Y006907D01*
X033935Y007047D01*
X033937Y007187D01*
X005057Y022437D02*
X005060Y022494D01*
X005067Y022551D01*
X005080Y022607D01*
X005098Y022661D01*
X005121Y022714D01*
X005149Y022764D01*
X005181Y022812D01*
X005217Y022856D01*
X005257Y022897D01*
X005301Y022935D01*
X005347Y022968D01*
X005397Y022996D01*
X005449Y023020D01*
X005503Y023040D01*
X005559Y023054D01*
X005615Y023063D01*
X005673Y023067D01*
X005730Y023066D01*
X005787Y023059D01*
X005843Y023047D01*
X005898Y023031D01*
X005951Y023009D01*
X006002Y022983D01*
X006050Y022952D01*
X006096Y022917D01*
X006138Y022877D01*
X006176Y022835D01*
X006210Y022788D01*
X006240Y022739D01*
X006265Y022688D01*
X006285Y022634D01*
X006301Y022579D01*
X006311Y022523D01*
X006316Y022466D01*
X006316Y022408D01*
X006311Y022351D01*
X006301Y022295D01*
X006285Y022240D01*
X006265Y022186D01*
X006240Y022135D01*
X006210Y022086D01*
X006176Y022039D01*
X006138Y021997D01*
X006096Y021957D01*
X006050Y021922D01*
X006002Y021891D01*
X005951Y021865D01*
X005898Y021843D01*
X005843Y021827D01*
X005787Y021815D01*
X005730Y021808D01*
X005673Y021807D01*
X005615Y021811D01*
X005559Y021820D01*
X005503Y021834D01*
X005449Y021854D01*
X005397Y021878D01*
X005347Y021906D01*
X005301Y021939D01*
X005257Y021977D01*
X005217Y022018D01*
X005181Y022062D01*
X005149Y022110D01*
X005121Y022160D01*
X005098Y022213D01*
X005080Y022267D01*
X005067Y022323D01*
X005060Y022380D01*
X005057Y022437D01*
D11*
X007687Y021937D03*
X008687Y021937D03*
X008687Y022937D03*
X007687Y022937D03*
X009687Y022937D03*
X009687Y021937D03*
X010687Y021937D03*
X010687Y022937D03*
X011687Y022937D03*
X012687Y022937D03*
X012687Y021937D03*
X011687Y021937D03*
X013687Y021937D03*
X013687Y022937D03*
X014687Y022937D03*
X014687Y021937D03*
X015687Y021937D03*
X016687Y021937D03*
X016687Y022937D03*
X015687Y022937D03*
X017687Y022937D03*
X017687Y021937D03*
X018687Y021937D03*
X018687Y022937D03*
X019687Y022937D03*
X020687Y022937D03*
X020687Y021937D03*
X019687Y021937D03*
X021687Y021937D03*
X021687Y022937D03*
X022687Y022937D03*
X022687Y021937D03*
X023687Y021937D03*
X024687Y021937D03*
X024687Y022937D03*
X023687Y022937D03*
X025687Y022937D03*
X025687Y021937D03*
X026687Y021937D03*
X026687Y022937D03*
X027687Y022937D03*
X028687Y022937D03*
X028687Y021937D03*
X027687Y021937D03*
X029687Y021937D03*
X029687Y022937D03*
X021687Y005187D03*
X020687Y005187D03*
X019687Y005187D03*
X018687Y005187D03*
X017687Y005187D03*
X016687Y005187D03*
X016687Y003937D03*
X015687Y003937D03*
X015687Y002937D03*
X016687Y002937D03*
X017687Y002937D03*
X017687Y003937D03*
X018687Y003937D03*
X018687Y002937D03*
X019687Y002937D03*
X020687Y002937D03*
X020687Y003937D03*
X019687Y003937D03*
X021687Y003937D03*
X021687Y002937D03*
X022687Y002937D03*
X022687Y003937D03*
X023687Y003937D03*
X024687Y003937D03*
X024687Y002937D03*
X023687Y002937D03*
X025687Y002937D03*
X025687Y003937D03*
X026687Y003937D03*
X026687Y002937D03*
X027687Y002937D03*
X028687Y002937D03*
X028687Y003937D03*
X027687Y003937D03*
X029687Y003937D03*
X029687Y002937D03*
X014687Y002937D03*
X013687Y002937D03*
X012687Y002937D03*
X011687Y002937D03*
X010687Y002937D03*
X009687Y002937D03*
X008687Y002937D03*
X007687Y002937D03*
X007687Y003937D03*
X008687Y003937D03*
X009687Y003937D03*
X010687Y003937D03*
X011687Y003937D03*
X012687Y003937D03*
X013687Y003937D03*
X014687Y003937D03*
D12*
X008937Y007187D03*
X008937Y008187D03*
X008937Y009187D03*
X008937Y010187D03*
X008937Y011187D03*
X008937Y012187D03*
D13*
X014937Y011161D03*
X014937Y010413D03*
X019687Y007311D03*
X020687Y007311D03*
X020687Y006563D03*
X019687Y006563D03*
X027687Y009313D03*
X027687Y010061D03*
X027687Y014063D03*
X027687Y014811D03*
X027687Y018813D03*
X027687Y019561D03*
X009437Y017811D03*
X009437Y017063D03*
D14*
X010563Y018687D03*
X011311Y018687D03*
X011311Y020187D03*
X010563Y020187D03*
X004061Y020937D03*
X003313Y020937D03*
X003313Y018437D03*
X004061Y018437D03*
X014063Y006787D03*
X014811Y006787D03*
X008661Y005187D03*
X007913Y005187D03*
X007061Y006187D03*
X006313Y006187D03*
X025563Y007087D03*
X026311Y007087D03*
X026311Y008537D03*
X025563Y008537D03*
X025663Y011837D03*
X026411Y011837D03*
X026411Y013337D03*
X025663Y013337D03*
X025663Y016537D03*
X026411Y016537D03*
X026411Y018087D03*
X025663Y018087D03*
X031813Y018937D03*
X032561Y018937D03*
X032561Y016437D03*
X031813Y016437D03*
X031813Y014187D03*
X032561Y014187D03*
X032561Y011687D03*
X031813Y011687D03*
X031813Y009437D03*
X032561Y009437D03*
X032561Y006937D03*
X031813Y006937D03*
D15*
X014748Y007687D03*
X014748Y008187D03*
X014748Y008687D03*
X014748Y009187D03*
X013711Y011187D03*
X013711Y011687D03*
X013711Y012187D03*
X013711Y012687D03*
X011663Y012687D03*
X011663Y012187D03*
X011663Y011687D03*
X011663Y011187D03*
X011626Y009187D03*
X011626Y008687D03*
X011626Y008187D03*
X011626Y007687D03*
D16*
X006937Y007687D03*
X006937Y008687D03*
D17*
X009120Y018563D03*
X009120Y019311D03*
X009120Y020063D03*
X009120Y020811D03*
X008254Y020437D03*
X008254Y018937D03*
X028504Y018811D03*
X029370Y018437D03*
X028504Y018063D03*
X028504Y017311D03*
X029370Y016937D03*
X028504Y016563D03*
X028504Y014061D03*
X029370Y013687D03*
X028504Y013313D03*
X028504Y012561D03*
X029370Y012187D03*
X028504Y011813D03*
X028504Y009311D03*
X029370Y008937D03*
X028504Y008563D03*
X028504Y007811D03*
X029370Y007437D03*
X028504Y007063D03*
D18*
X028960Y007102D02*
X028978Y007102D01*
X028960Y007121D02*
X029020Y007060D01*
X029720Y007060D01*
X029826Y007166D01*
X029826Y007177D01*
X030191Y007177D01*
X030234Y007134D01*
X030366Y007079D01*
X030508Y007079D01*
X030637Y007132D01*
X030637Y007063D01*
X030813Y006887D01*
X030887Y006813D01*
X030887Y006813D01*
X031063Y006637D01*
X031377Y006637D01*
X031377Y006567D01*
X031483Y006462D01*
X031556Y006462D01*
X031405Y006444D01*
X031246Y006412D01*
X031091Y006364D01*
X030941Y006303D01*
X030797Y006229D01*
X030661Y006141D01*
X030661Y006141D01*
X030533Y006042D01*
X030414Y005931D01*
X030306Y005810D01*
X030210Y005680D01*
X030126Y005542D01*
X030054Y005396D01*
X029997Y005245D01*
X029953Y005089D01*
X029924Y004929D01*
X029909Y004768D01*
X029909Y004606D01*
X029924Y004445D01*
X029938Y004364D01*
X029886Y004417D01*
X029707Y004417D01*
X029707Y003957D01*
X029667Y003957D01*
X029667Y003917D01*
X029707Y003917D01*
X029707Y003457D01*
X029886Y003457D01*
X030167Y003738D01*
X030167Y003764D01*
X030210Y003694D01*
X030306Y003564D01*
X030414Y003443D01*
X030414Y003443D01*
X030414Y003443D01*
X030533Y003332D01*
X030661Y003233D01*
X030797Y003146D01*
X030941Y003071D01*
X031091Y003010D01*
X031117Y003002D01*
X030825Y002861D01*
X030496Y002732D01*
X030159Y002628D01*
X030026Y002598D01*
X030167Y002738D01*
X030167Y002917D01*
X029707Y002917D01*
X029707Y002957D01*
X029667Y002957D01*
X029667Y002917D01*
X029207Y002917D01*
X029207Y002738D01*
X029450Y002496D01*
X029114Y002470D01*
X028937Y002467D01*
X028896Y002467D01*
X029167Y002738D01*
X029167Y002917D01*
X028707Y002917D01*
X028707Y002957D01*
X028667Y002957D01*
X028667Y002917D01*
X028207Y002917D01*
X028207Y002738D01*
X028478Y002467D01*
X027896Y002467D01*
X028167Y002738D01*
X028167Y003136D01*
X027886Y003417D01*
X027488Y003417D01*
X027207Y003136D01*
X027207Y002738D01*
X027478Y002467D01*
X026896Y002467D01*
X027167Y002738D01*
X027167Y003136D01*
X026886Y003417D01*
X026488Y003417D01*
X026207Y003136D01*
X026207Y002738D01*
X026478Y002467D01*
X025896Y002467D01*
X026167Y002738D01*
X026167Y003136D01*
X025886Y003417D01*
X025488Y003417D01*
X025207Y003136D01*
X025207Y002738D01*
X025478Y002467D01*
X024896Y002467D01*
X025167Y002738D01*
X025167Y003136D01*
X024886Y003417D01*
X024488Y003417D01*
X024207Y003136D01*
X024207Y002738D01*
X024478Y002467D01*
X023896Y002467D01*
X024167Y002738D01*
X024167Y003136D01*
X023886Y003417D01*
X023488Y003417D01*
X023207Y003136D01*
X023207Y002738D01*
X023478Y002467D01*
X022896Y002467D01*
X023167Y002738D01*
X023167Y003136D01*
X022886Y003417D01*
X022488Y003417D01*
X022207Y003136D01*
X022207Y002738D01*
X022478Y002467D01*
X021896Y002467D01*
X022167Y002738D01*
X022167Y003136D01*
X021886Y003417D01*
X021488Y003417D01*
X021207Y003136D01*
X021207Y002738D01*
X021478Y002467D01*
X020896Y002467D01*
X021167Y002738D01*
X021167Y003136D01*
X020886Y003417D01*
X020488Y003417D01*
X020207Y003136D01*
X020207Y002738D01*
X020478Y002467D01*
X019896Y002467D01*
X020167Y002738D01*
X020167Y003136D01*
X019886Y003417D01*
X019488Y003417D01*
X019207Y003136D01*
X019207Y002738D01*
X019478Y002467D01*
X018896Y002467D01*
X019167Y002738D01*
X019167Y003136D01*
X018886Y003417D01*
X018488Y003417D01*
X018207Y003136D01*
X018207Y002738D01*
X018478Y002467D01*
X017896Y002467D01*
X018167Y002738D01*
X018167Y003136D01*
X017886Y003417D01*
X017488Y003417D01*
X017207Y003136D01*
X017207Y002738D01*
X017278Y002667D01*
X017096Y002667D01*
X017167Y002738D01*
X017167Y003136D01*
X016886Y003417D01*
X016488Y003417D01*
X016207Y003136D01*
X016207Y002738D01*
X016278Y002667D01*
X016096Y002667D01*
X016167Y002738D01*
X016167Y003136D01*
X015886Y003417D01*
X015532Y003417D01*
X015492Y003457D01*
X015886Y003457D01*
X016167Y003738D01*
X016167Y004136D01*
X015886Y004417D01*
X015532Y004417D01*
X015167Y004782D01*
X015032Y004917D01*
X013282Y004917D01*
X013167Y005032D01*
X013167Y008792D01*
X013167Y008842D01*
X013282Y008957D01*
X014172Y008957D01*
X014192Y008937D01*
X014135Y008880D01*
X014135Y008494D01*
X014192Y008437D01*
X014135Y008380D01*
X014135Y007994D01*
X014192Y007937D01*
X014135Y007880D01*
X014135Y007494D01*
X014240Y007389D01*
X014551Y007389D01*
X014551Y007262D01*
X014481Y007262D01*
X014437Y007219D01*
X014394Y007262D01*
X014111Y007262D01*
X014111Y006835D01*
X014015Y006835D01*
X014015Y006739D01*
X013627Y006739D01*
X013627Y006420D01*
X013491Y006420D01*
X013359Y006366D01*
X013259Y006265D01*
X013204Y006133D01*
X013204Y005991D01*
X013259Y005859D01*
X013359Y005759D01*
X013491Y005704D01*
X013633Y005704D01*
X013765Y005759D01*
X013769Y005762D01*
X014811Y005762D01*
X016356Y005762D01*
X016359Y005759D01*
X016491Y005704D01*
X016633Y005704D01*
X016765Y005759D01*
X016866Y005859D01*
X016920Y005991D01*
X016920Y006133D01*
X016866Y006265D01*
X016765Y006366D01*
X016633Y006420D01*
X016491Y006420D01*
X016359Y006366D01*
X016356Y006362D01*
X015192Y006362D01*
X015247Y006417D01*
X015247Y007157D01*
X015142Y007262D01*
X015071Y007262D01*
X015071Y007389D01*
X015256Y007389D01*
X015361Y007494D01*
X015361Y007880D01*
X015304Y007937D01*
X015361Y007994D01*
X015361Y008380D01*
X015304Y008437D01*
X015324Y008457D01*
X016342Y008457D01*
X016532Y008457D01*
X016877Y008457D01*
X016957Y008356D01*
X016957Y005596D01*
X016886Y005667D01*
X016707Y005667D01*
X016707Y005207D01*
X016667Y005207D01*
X016667Y005167D01*
X016707Y005167D01*
X016707Y004707D01*
X016886Y004707D01*
X016957Y004778D01*
X016957Y004442D01*
X016999Y004400D01*
X017029Y004370D01*
X017092Y004307D01*
X017099Y004307D01*
X017246Y004175D01*
X017207Y004136D01*
X017207Y003738D01*
X017488Y003457D01*
X017886Y003457D01*
X018167Y003738D01*
X018167Y004136D01*
X017886Y004417D01*
X017664Y004417D01*
X017417Y004639D01*
X017417Y004778D01*
X017488Y004707D01*
X017886Y004707D01*
X018167Y004988D01*
X018167Y005386D01*
X017886Y005667D01*
X017488Y005667D01*
X017417Y005596D01*
X017417Y005826D01*
X017484Y005759D01*
X017616Y005704D01*
X017758Y005704D01*
X017890Y005759D01*
X017894Y005762D01*
X017938Y005762D01*
X018186Y005762D01*
X018737Y006313D01*
X018737Y006561D01*
X018737Y010663D01*
X018737Y013387D01*
X018811Y013387D01*
X021438Y013387D01*
X021637Y013188D01*
X021637Y010313D01*
X021813Y010137D01*
X022313Y009637D01*
X022561Y009637D01*
X023563Y009637D01*
X027212Y009637D01*
X027212Y009361D01*
X027639Y009361D01*
X027639Y009265D01*
X027735Y009265D01*
X027735Y008877D01*
X027762Y008877D01*
X027734Y008866D01*
X027636Y008767D01*
X026747Y008767D01*
X026747Y008907D01*
X026642Y009012D01*
X025981Y009012D01*
X025937Y008969D01*
X025894Y009012D01*
X025611Y009012D01*
X025611Y008585D01*
X025515Y008585D01*
X025515Y008489D01*
X025611Y008489D01*
X025611Y008062D01*
X025894Y008062D01*
X025937Y008105D01*
X025981Y008062D01*
X026642Y008062D01*
X026747Y008167D01*
X026747Y008307D01*
X027686Y008307D01*
X027734Y008259D01*
X027866Y008204D01*
X028008Y008204D01*
X028099Y008241D01*
X028153Y008187D01*
X028048Y008082D01*
X028048Y007830D01*
X028485Y007830D01*
X028485Y007793D01*
X028048Y007793D01*
X028048Y007540D01*
X028151Y007437D01*
X028097Y007383D01*
X028008Y007420D01*
X027866Y007420D01*
X027734Y007366D01*
X027686Y007317D01*
X026747Y007317D01*
X026747Y007457D01*
X026642Y007562D01*
X025981Y007562D01*
X025937Y007519D01*
X025894Y007562D01*
X025611Y007562D01*
X025611Y007135D01*
X025515Y007135D01*
X025515Y007039D01*
X025611Y007039D01*
X025611Y006612D01*
X025894Y006612D01*
X025937Y006655D01*
X025981Y006612D01*
X026642Y006612D01*
X026747Y006717D01*
X026747Y006857D01*
X027636Y006857D01*
X027734Y006759D01*
X027866Y006704D01*
X028008Y006704D01*
X028099Y006741D01*
X028154Y006686D01*
X028854Y006686D01*
X028960Y006792D01*
X028960Y007121D01*
X028960Y006943D02*
X030757Y006943D01*
X030637Y007102D02*
X030564Y007102D01*
X030310Y007102D02*
X029762Y007102D01*
X029370Y007437D02*
X030437Y007437D01*
X030191Y007697D02*
X029826Y007697D01*
X029826Y007708D01*
X029720Y007814D01*
X029020Y007814D01*
X028960Y007753D01*
X028960Y007793D01*
X028523Y007793D01*
X028523Y007830D01*
X028960Y007830D01*
X028960Y008082D01*
X028855Y008187D01*
X028960Y008292D01*
X028960Y008621D01*
X029020Y008560D01*
X029720Y008560D01*
X029826Y008666D01*
X029826Y008677D01*
X030191Y008677D01*
X030234Y008634D01*
X030366Y008579D01*
X030508Y008579D01*
X030637Y008632D01*
X030637Y007742D01*
X030508Y007795D01*
X030366Y007795D01*
X030234Y007741D01*
X030191Y007697D01*
X030230Y007736D02*
X029798Y007736D01*
X028960Y007895D02*
X030637Y007895D01*
X030637Y008053D02*
X028960Y008053D01*
X028880Y008212D02*
X030637Y008212D01*
X030637Y008370D02*
X028960Y008370D01*
X028960Y008529D02*
X030637Y008529D01*
X030437Y008937D02*
X029370Y008937D01*
X029720Y009314D02*
X029826Y009208D01*
X029826Y009197D01*
X030191Y009197D01*
X030234Y009241D01*
X030366Y009295D01*
X030508Y009295D01*
X030637Y009242D01*
X030637Y009563D01*
X030637Y009563D01*
X030563Y009637D01*
X028905Y009637D01*
X028960Y009582D01*
X028960Y009330D01*
X028523Y009330D01*
X028523Y009293D01*
X028960Y009293D01*
X028960Y009253D01*
X029020Y009314D01*
X029720Y009314D01*
X028960Y009480D02*
X030637Y009480D01*
X030637Y009322D02*
X028523Y009322D01*
X028485Y009322D02*
X027735Y009322D01*
X027735Y009361D02*
X028048Y009361D01*
X028048Y009330D01*
X028485Y009330D01*
X028485Y009293D01*
X028048Y009293D01*
X028048Y009265D01*
X027735Y009265D01*
X027735Y009361D01*
X027639Y009322D02*
X020917Y009322D01*
X020917Y009480D02*
X027212Y009480D01*
X027212Y009265D02*
X027212Y008983D01*
X027317Y008877D01*
X027639Y008877D01*
X027639Y009265D01*
X027212Y009265D01*
X027212Y009163D02*
X020917Y009163D01*
X020917Y009004D02*
X025225Y009004D01*
X025233Y009012D02*
X025127Y008907D01*
X025127Y008585D01*
X025515Y008585D01*
X025515Y009012D01*
X025233Y009012D01*
X025127Y008846D02*
X020917Y008846D01*
X020917Y008687D02*
X025127Y008687D01*
X025127Y008489D02*
X025127Y008167D01*
X025233Y008062D01*
X025515Y008062D01*
X025515Y008489D01*
X025127Y008489D01*
X025127Y008370D02*
X020917Y008370D01*
X020917Y008212D02*
X025127Y008212D01*
X025515Y008212D02*
X025611Y008212D01*
X025611Y008370D02*
X025515Y008370D01*
X025515Y008529D02*
X020917Y008529D01*
X020457Y008529D02*
X019917Y008529D01*
X019917Y008687D02*
X020457Y008687D01*
X020457Y008846D02*
X019917Y008846D01*
X019917Y009004D02*
X020457Y009004D01*
X020457Y009163D02*
X019917Y009163D01*
X019917Y009322D02*
X020457Y009322D01*
X020457Y009480D02*
X019917Y009480D01*
X019917Y009532D02*
X019917Y009342D01*
X019917Y007747D01*
X020057Y007747D01*
X020162Y007642D01*
X020162Y006981D01*
X020119Y006937D01*
X020162Y006894D01*
X020162Y006233D01*
X020057Y006127D01*
X019917Y006127D01*
X019917Y005636D01*
X020167Y005386D01*
X020167Y004988D01*
X019886Y004707D01*
X019488Y004707D01*
X019207Y004988D01*
X019207Y005386D01*
X019457Y005636D01*
X019457Y006127D01*
X019317Y006127D01*
X019212Y006233D01*
X019212Y006894D01*
X019255Y006937D01*
X019212Y006981D01*
X019212Y007642D01*
X019317Y007747D01*
X019457Y007747D01*
X019457Y009329D01*
X019366Y009329D01*
X019234Y009384D01*
X019134Y009484D01*
X019079Y009616D01*
X019079Y009758D01*
X019134Y009890D01*
X019234Y009991D01*
X019366Y010045D01*
X019508Y010045D01*
X019640Y009991D01*
X019741Y009890D01*
X019795Y009758D01*
X019795Y009654D01*
X019917Y009532D01*
X019811Y009639D02*
X020457Y009639D01*
X020457Y009721D02*
X020457Y007747D01*
X020317Y007747D01*
X020212Y007642D01*
X020212Y006981D01*
X020255Y006937D01*
X020212Y006894D01*
X020212Y006233D01*
X020317Y006127D01*
X020457Y006127D01*
X020457Y005636D01*
X020207Y005386D01*
X020207Y004988D01*
X020488Y004707D01*
X020886Y004707D01*
X021167Y004988D01*
X021167Y005386D01*
X020917Y005636D01*
X020917Y006127D01*
X021057Y006127D01*
X021162Y006233D01*
X021162Y006894D01*
X021119Y006937D01*
X021162Y006981D01*
X021162Y007642D01*
X021057Y007747D01*
X020917Y007747D01*
X020917Y009692D01*
X020917Y009853D01*
X020917Y009882D01*
X020868Y009931D01*
X020778Y010075D01*
X020795Y010116D01*
X020795Y010258D01*
X020741Y010390D01*
X020640Y010491D01*
X020508Y010545D01*
X020366Y010545D01*
X020234Y010491D01*
X020134Y010390D01*
X020079Y010258D01*
X020079Y010116D01*
X020134Y009984D01*
X020234Y009884D01*
X020366Y009829D01*
X020390Y009829D01*
X020457Y009721D01*
X020410Y009797D02*
X019779Y009797D01*
X019675Y009956D02*
X020162Y009956D01*
X020080Y010114D02*
X018737Y010114D01*
X018737Y009956D02*
X019199Y009956D01*
X019095Y009797D02*
X018737Y009797D01*
X018737Y009639D02*
X019079Y009639D01*
X019138Y009480D02*
X018737Y009480D01*
X018737Y009322D02*
X019457Y009322D01*
X019457Y009163D02*
X018737Y009163D01*
X018737Y009004D02*
X019457Y009004D01*
X019457Y008846D02*
X018737Y008846D01*
X018737Y008687D02*
X019457Y008687D01*
X019457Y008529D02*
X018737Y008529D01*
X018737Y008370D02*
X019457Y008370D01*
X019457Y008212D02*
X018737Y008212D01*
X018737Y008053D02*
X019457Y008053D01*
X019457Y007895D02*
X018737Y007895D01*
X018737Y007736D02*
X019306Y007736D01*
X019212Y007578D02*
X018737Y007578D01*
X018737Y007419D02*
X019212Y007419D01*
X019212Y007260D02*
X018737Y007260D01*
X018737Y007102D02*
X019212Y007102D01*
X019249Y006943D02*
X018737Y006943D01*
X018737Y006785D02*
X019212Y006785D01*
X019212Y006626D02*
X018737Y006626D01*
X018737Y006468D02*
X019212Y006468D01*
X019212Y006309D02*
X018733Y006309D01*
X018575Y006151D02*
X019294Y006151D01*
X019457Y005992D02*
X018416Y005992D01*
X018258Y005834D02*
X019457Y005834D01*
X019457Y005675D02*
X017417Y005675D01*
X016957Y005675D02*
X013167Y005675D01*
X013167Y005516D02*
X016338Y005516D01*
X016207Y005386D02*
X016207Y005207D01*
X016667Y005207D01*
X016667Y005667D01*
X016488Y005667D01*
X016207Y005386D01*
X016207Y005358D02*
X013167Y005358D01*
X013167Y005199D02*
X016667Y005199D01*
X016667Y005167D02*
X016207Y005167D01*
X016207Y004988D01*
X016488Y004707D01*
X016667Y004707D01*
X016667Y005167D01*
X016667Y005041D02*
X016707Y005041D01*
X016707Y004882D02*
X016667Y004882D01*
X016667Y004724D02*
X016707Y004724D01*
X016903Y004724D02*
X016957Y004724D01*
X016957Y004565D02*
X015384Y004565D01*
X015226Y004724D02*
X016472Y004724D01*
X016313Y004882D02*
X015067Y004882D01*
X015896Y004407D02*
X016478Y004407D01*
X016488Y004417D02*
X016207Y004136D01*
X016207Y003738D01*
X016488Y003457D01*
X016886Y003457D01*
X017167Y003738D01*
X017167Y004136D01*
X016886Y004417D01*
X016488Y004417D01*
X016319Y004248D02*
X016055Y004248D01*
X016167Y004090D02*
X016207Y004090D01*
X016207Y003931D02*
X016167Y003931D01*
X016167Y003773D02*
X016207Y003773D01*
X016331Y003614D02*
X016043Y003614D01*
X016006Y003297D02*
X016368Y003297D01*
X016210Y003138D02*
X016165Y003138D01*
X016167Y002980D02*
X016207Y002980D01*
X016207Y002821D02*
X016167Y002821D01*
X017006Y003297D02*
X017368Y003297D01*
X017210Y003138D02*
X017165Y003138D01*
X017167Y002980D02*
X017207Y002980D01*
X017207Y002821D02*
X017167Y002821D01*
X017933Y002504D02*
X018441Y002504D01*
X018283Y002663D02*
X018091Y002663D01*
X018167Y002821D02*
X018207Y002821D01*
X018207Y002980D02*
X018167Y002980D01*
X018165Y003138D02*
X018210Y003138D01*
X018368Y003297D02*
X018006Y003297D01*
X018043Y003614D02*
X018331Y003614D01*
X018207Y003738D02*
X018488Y003457D01*
X018886Y003457D01*
X019167Y003738D01*
X019167Y004136D01*
X018886Y004417D01*
X018488Y004417D01*
X018207Y004136D01*
X018207Y003738D01*
X018207Y003773D02*
X018167Y003773D01*
X018167Y003931D02*
X018207Y003931D01*
X018207Y004090D02*
X018167Y004090D01*
X018055Y004248D02*
X018319Y004248D01*
X018478Y004407D02*
X017896Y004407D01*
X017903Y004724D02*
X018472Y004724D01*
X018488Y004707D02*
X018886Y004707D01*
X019167Y004988D01*
X019167Y005386D01*
X018886Y005667D01*
X018488Y005667D01*
X018207Y005386D01*
X018207Y004988D01*
X018488Y004707D01*
X018313Y004882D02*
X018061Y004882D01*
X018167Y005041D02*
X018207Y005041D01*
X018207Y005199D02*
X018167Y005199D01*
X018167Y005358D02*
X018207Y005358D01*
X018338Y005516D02*
X018036Y005516D01*
X017472Y004724D02*
X017417Y004724D01*
X017500Y004565D02*
X029913Y004565D01*
X029909Y004724D02*
X021903Y004724D01*
X021886Y004707D02*
X022167Y004988D01*
X022167Y005386D01*
X021886Y005667D01*
X021488Y005667D01*
X021207Y005386D01*
X021207Y004988D01*
X021488Y004707D01*
X021886Y004707D01*
X022061Y004882D02*
X029919Y004882D01*
X029944Y005041D02*
X022167Y005041D01*
X022167Y005199D02*
X029984Y005199D01*
X030040Y005358D02*
X022167Y005358D01*
X022036Y005516D02*
X030113Y005516D01*
X030207Y005675D02*
X020917Y005675D01*
X020917Y005834D02*
X030327Y005834D01*
X030414Y005931D02*
X030414Y005931D01*
X030479Y005992D02*
X020917Y005992D01*
X021080Y006151D02*
X030675Y006151D01*
X030797Y006229D02*
X030797Y006229D01*
X030941Y006303D02*
X030941Y006303D01*
X030956Y006309D02*
X021162Y006309D01*
X021162Y006468D02*
X031477Y006468D01*
X031405Y006444D02*
X031405Y006444D01*
X031246Y006412D02*
X031246Y006412D01*
X031091Y006364D02*
X031091Y006364D01*
X031377Y006626D02*
X026656Y006626D01*
X026747Y006785D02*
X027708Y006785D01*
X027863Y007419D02*
X026747Y007419D01*
X026747Y008212D02*
X027847Y008212D01*
X028027Y008212D02*
X028128Y008212D01*
X028048Y008053D02*
X020917Y008053D01*
X020917Y007895D02*
X028048Y007895D01*
X028048Y007736D02*
X021068Y007736D01*
X021162Y007578D02*
X028048Y007578D01*
X028011Y007419D02*
X028133Y007419D01*
X028953Y006785D02*
X030915Y006785D01*
X031797Y006462D02*
X032144Y006462D01*
X032187Y006505D01*
X032231Y006462D01*
X032892Y006462D01*
X032997Y006567D01*
X032997Y006677D01*
X033079Y006677D01*
X033295Y006677D01*
X033447Y006829D01*
X033508Y006829D01*
X033640Y006884D01*
X033645Y006888D01*
X033627Y006659D01*
X033575Y006310D01*
X033496Y005965D01*
X033392Y005628D01*
X033309Y005416D01*
X033286Y005470D01*
X033208Y005612D01*
X033118Y005746D01*
X033015Y005872D01*
X032902Y005988D01*
X032779Y006093D01*
X032779Y006093D01*
X032646Y006186D01*
X032506Y006267D01*
X032359Y006335D01*
X032359Y006335D01*
X032206Y006390D01*
X032049Y006430D01*
X031889Y006456D01*
X031797Y006462D01*
X031889Y006456D02*
X031889Y006456D01*
X032049Y006430D02*
X032049Y006430D01*
X032149Y006468D02*
X032225Y006468D01*
X032206Y006390D02*
X032206Y006390D01*
X032416Y006309D02*
X033575Y006309D01*
X033599Y006468D02*
X032897Y006468D01*
X032997Y006626D02*
X033623Y006626D01*
X033637Y006785D02*
X033402Y006785D01*
X033187Y006937D02*
X033437Y007187D01*
X033187Y006937D02*
X032561Y006937D01*
X032506Y006267D02*
X032506Y006267D01*
X032646Y006186D02*
X032646Y006186D01*
X032697Y006151D02*
X033539Y006151D01*
X033502Y005992D02*
X032897Y005992D01*
X032902Y005988D02*
X032902Y005988D01*
X033015Y005872D02*
X033015Y005872D01*
X033047Y005834D02*
X033456Y005834D01*
X033407Y005675D02*
X033165Y005675D01*
X033208Y005612D02*
X033208Y005612D01*
X033260Y005516D02*
X033348Y005516D01*
X033286Y005470D02*
X033286Y005470D01*
X033118Y005746D02*
X033118Y005746D01*
X030403Y003455D02*
X015494Y003455D01*
X017043Y003614D02*
X017331Y003614D01*
X017207Y003773D02*
X017167Y003773D01*
X017167Y003931D02*
X017207Y003931D01*
X017207Y004090D02*
X017167Y004090D01*
X017164Y004248D02*
X017055Y004248D01*
X016992Y004407D02*
X016896Y004407D01*
X016207Y005041D02*
X013167Y005041D01*
X012457Y005041D02*
X012417Y005041D01*
X012417Y005199D02*
X012457Y005199D01*
X012457Y005358D02*
X012417Y005358D01*
X012417Y005516D02*
X012457Y005516D01*
X012457Y005675D02*
X012417Y005675D01*
X012417Y005834D02*
X012457Y005834D01*
X012457Y005992D02*
X012417Y005992D01*
X012417Y006151D02*
X012457Y006151D01*
X012457Y006309D02*
X012417Y006309D01*
X012417Y006468D02*
X012457Y006468D01*
X012457Y006626D02*
X012417Y006626D01*
X012417Y006785D02*
X012457Y006785D01*
X012457Y006943D02*
X012417Y006943D01*
X012417Y007102D02*
X012457Y007102D01*
X012457Y007260D02*
X012417Y007260D01*
X012417Y007419D02*
X012457Y007419D01*
X012417Y007532D02*
X012282Y007667D01*
X012239Y007710D01*
X012239Y007880D01*
X012182Y007937D01*
X012239Y007994D01*
X012239Y008380D01*
X012182Y008437D01*
X012239Y008494D01*
X012239Y008880D01*
X012182Y008937D01*
X012239Y008994D01*
X012239Y009187D01*
X011626Y009187D01*
X011013Y009187D01*
X011013Y008994D01*
X011070Y008937D01*
X011013Y008880D01*
X011013Y008494D01*
X011070Y008437D01*
X011050Y008417D01*
X010282Y008417D01*
X009782Y008917D01*
X009646Y008917D01*
X009717Y008988D01*
X009717Y009386D01*
X009646Y009457D01*
X009782Y009457D01*
X009917Y009592D01*
X010167Y009842D01*
X010167Y010032D01*
X010167Y011092D01*
X010532Y011457D01*
X011088Y011457D01*
X011108Y011437D01*
X011050Y011380D01*
X011050Y010994D01*
X011156Y010889D01*
X012171Y010889D01*
X012239Y010957D01*
X012292Y010957D01*
X012457Y010792D01*
X012457Y004386D01*
X012417Y004346D01*
X012417Y007532D01*
X012457Y007578D02*
X012372Y007578D01*
X012457Y007736D02*
X012239Y007736D01*
X012224Y007895D02*
X012457Y007895D01*
X012457Y008053D02*
X012239Y008053D01*
X012239Y008212D02*
X012457Y008212D01*
X012457Y008370D02*
X012239Y008370D01*
X012239Y008529D02*
X012457Y008529D01*
X012457Y008687D02*
X012239Y008687D01*
X012239Y008846D02*
X012457Y008846D01*
X012457Y009004D02*
X012239Y009004D01*
X012239Y009163D02*
X012457Y009163D01*
X012457Y009322D02*
X012239Y009322D01*
X012239Y009380D02*
X012134Y009485D01*
X011626Y009485D01*
X011118Y009485D01*
X011013Y009380D01*
X011013Y009187D01*
X011626Y009187D01*
X011626Y009187D01*
X011626Y009485D01*
X011626Y009187D01*
X011626Y009187D01*
X011626Y009187D01*
X012239Y009187D01*
X012239Y009380D01*
X012139Y009480D02*
X012457Y009480D01*
X012457Y009639D02*
X009964Y009639D01*
X009917Y009592D02*
X009917Y009592D01*
X009805Y009480D02*
X011113Y009480D01*
X011013Y009322D02*
X009717Y009322D01*
X009717Y009163D02*
X011013Y009163D01*
X011013Y009004D02*
X009717Y009004D01*
X009853Y008846D02*
X011013Y008846D01*
X011013Y008687D02*
X010012Y008687D01*
X010171Y008529D02*
X011013Y008529D01*
X011626Y009322D02*
X011626Y009322D01*
X011626Y009480D02*
X011626Y009480D01*
X012457Y009797D02*
X010122Y009797D01*
X010167Y009956D02*
X012457Y009956D01*
X012457Y010114D02*
X010167Y010114D01*
X010167Y010273D02*
X012457Y010273D01*
X012457Y010431D02*
X010167Y010431D01*
X010167Y010590D02*
X012457Y010590D01*
X012457Y010748D02*
X010167Y010748D01*
X010167Y010907D02*
X011138Y010907D01*
X011050Y011066D02*
X010167Y011066D01*
X010299Y011224D02*
X011050Y011224D01*
X011053Y011383D02*
X010458Y011383D01*
X010124Y011700D02*
X008217Y011700D01*
X008217Y011858D02*
X008287Y011858D01*
X008217Y011928D02*
X008217Y011446D01*
X008438Y011667D01*
X009436Y011667D01*
X009717Y011386D01*
X009717Y011292D01*
X010342Y011917D01*
X010532Y011917D01*
X011088Y011917D01*
X011108Y011937D01*
X011050Y011994D01*
X011050Y012380D01*
X011108Y012437D01*
X011050Y012494D01*
X011050Y012687D01*
X011663Y012687D01*
X011663Y012687D01*
X011050Y012687D01*
X011050Y012880D01*
X011156Y012985D01*
X011663Y012985D01*
X011663Y012687D01*
X011664Y012687D01*
X011664Y012687D01*
X012276Y012687D01*
X012276Y012494D01*
X012219Y012437D01*
X012239Y012417D01*
X012482Y012417D01*
X012617Y012282D01*
X012732Y012167D01*
X012774Y012167D01*
X012734Y012184D01*
X012634Y012284D01*
X012579Y012416D01*
X012579Y012558D01*
X012634Y012690D01*
X012734Y012791D01*
X012866Y012845D01*
X012970Y012845D01*
X013042Y012917D01*
X013135Y012917D01*
X013203Y012985D01*
X014218Y012985D01*
X014324Y012880D01*
X014324Y012494D01*
X014266Y012437D01*
X014286Y012417D01*
X015842Y012417D01*
X016032Y012417D01*
X016154Y012295D01*
X016258Y012295D01*
X016390Y012241D01*
X016491Y012140D01*
X016545Y012008D01*
X016545Y011866D01*
X016491Y011734D01*
X016390Y011634D01*
X016258Y011579D01*
X016116Y011579D01*
X015984Y011634D01*
X015884Y011734D01*
X015829Y011866D01*
X015829Y011957D01*
X014286Y011957D01*
X014266Y011937D01*
X014324Y011880D01*
X014324Y011494D01*
X014276Y011447D01*
X014462Y011447D01*
X014462Y011492D01*
X014567Y011597D01*
X015307Y011597D01*
X015412Y011492D01*
X015412Y011421D01*
X017955Y011421D01*
X018137Y011421D01*
X018137Y013813D01*
X018137Y014061D01*
X018137Y016813D01*
X017439Y017511D01*
X009912Y017511D01*
X009912Y017481D01*
X009869Y017437D01*
X009912Y017394D01*
X009912Y017111D01*
X009485Y017111D01*
X009485Y017015D01*
X009485Y016627D01*
X009807Y016627D01*
X009912Y016733D01*
X009912Y017015D01*
X009485Y017015D01*
X009389Y017015D01*
X009389Y016627D01*
X009067Y016627D01*
X008962Y016733D01*
X008962Y017015D01*
X009389Y017015D01*
X009389Y017111D01*
X008962Y017111D01*
X008962Y017394D01*
X009005Y017437D01*
X008962Y017481D01*
X008962Y017637D01*
X008133Y017637D01*
X008217Y017553D01*
X008217Y017321D01*
X008217Y012446D01*
X008438Y012667D01*
X009436Y012667D01*
X009717Y012386D01*
X009717Y011988D01*
X009436Y011707D01*
X008438Y011707D01*
X008217Y011928D01*
X008217Y011541D02*
X008312Y011541D01*
X008264Y012492D02*
X008217Y012492D01*
X008217Y012651D02*
X008422Y012651D01*
X008217Y012809D02*
X011050Y012809D01*
X011050Y012651D02*
X009452Y012651D01*
X009611Y012492D02*
X011052Y012492D01*
X011050Y012334D02*
X009717Y012334D01*
X009717Y012175D02*
X011050Y012175D01*
X011050Y012017D02*
X009717Y012017D01*
X009587Y011858D02*
X010283Y011858D01*
X009966Y011541D02*
X009562Y011541D01*
X009717Y011383D02*
X009807Y011383D01*
X008157Y010261D02*
X008157Y009988D01*
X008228Y009917D01*
X006282Y009917D01*
X006092Y009917D01*
X005842Y009667D01*
X005707Y009532D01*
X005707Y008032D01*
X005707Y007842D01*
X005957Y007592D01*
X006092Y007457D01*
X006261Y007457D01*
X006481Y007237D01*
X007393Y007237D01*
X007613Y007457D01*
X008228Y007457D01*
X008157Y007386D01*
X008157Y007207D01*
X008917Y007207D01*
X008917Y007167D01*
X008957Y007167D01*
X008957Y006707D01*
X009436Y006707D01*
X009717Y006988D01*
X009717Y007167D01*
X008957Y007167D01*
X008957Y007207D01*
X009717Y007207D01*
X009717Y007332D01*
X010957Y006092D01*
X010957Y004346D01*
X010886Y004417D01*
X010488Y004417D01*
X010207Y004136D01*
X010207Y003738D01*
X010488Y003457D01*
X010886Y003457D01*
X010957Y003528D01*
X010957Y003346D01*
X010886Y003417D01*
X010488Y003417D01*
X010207Y003136D01*
X010207Y002738D01*
X010478Y002467D01*
X009896Y002467D01*
X010167Y002738D01*
X010167Y003136D01*
X009886Y003417D01*
X009488Y003417D01*
X009207Y003136D01*
X009207Y002738D01*
X009478Y002467D01*
X008896Y002467D01*
X009167Y002738D01*
X009167Y003136D01*
X008987Y003316D01*
X008987Y003558D01*
X009167Y003738D01*
X009167Y004136D01*
X008961Y004342D01*
X008961Y004712D01*
X008992Y004712D01*
X009097Y004817D01*
X009097Y005557D01*
X008992Y005662D01*
X008961Y005662D01*
X009061Y005762D01*
X010231Y005762D01*
X010234Y005759D01*
X010366Y005704D01*
X010508Y005704D01*
X010640Y005759D01*
X010741Y005859D01*
X010795Y005991D01*
X010795Y006133D01*
X010741Y006265D01*
X010640Y006366D01*
X010508Y006420D01*
X010366Y006420D01*
X010234Y006366D01*
X010231Y006362D01*
X009061Y006362D01*
X007936Y006362D01*
X007811Y006487D01*
X007563Y006487D01*
X007497Y006487D01*
X007497Y006557D01*
X007392Y006662D01*
X006731Y006662D01*
X006687Y006619D01*
X006644Y006662D01*
X005983Y006662D01*
X005877Y006557D01*
X005877Y006447D01*
X005684Y006447D01*
X005640Y006491D01*
X005508Y006545D01*
X005366Y006545D01*
X005234Y006491D01*
X005134Y006390D01*
X005079Y006258D01*
X005079Y006116D01*
X005134Y005984D01*
X005234Y005884D01*
X005366Y005829D01*
X005508Y005829D01*
X005640Y005884D01*
X005684Y005927D01*
X005877Y005927D01*
X005877Y005817D01*
X005983Y005712D01*
X006644Y005712D01*
X006687Y005755D01*
X006731Y005712D01*
X007392Y005712D01*
X007497Y005817D01*
X007497Y005887D01*
X007563Y005887D01*
X007688Y005762D01*
X007936Y005762D01*
X008361Y005762D01*
X008361Y005662D01*
X008331Y005662D01*
X008287Y005619D01*
X008244Y005662D01*
X007961Y005662D01*
X007961Y005235D01*
X007865Y005235D01*
X007865Y005139D01*
X007961Y005139D01*
X007961Y004712D01*
X008244Y004712D01*
X008287Y004755D01*
X008331Y004712D01*
X008361Y004712D01*
X008361Y004290D01*
X008207Y004136D01*
X008207Y003738D01*
X008387Y003558D01*
X008387Y003316D01*
X008207Y003136D01*
X008207Y002738D01*
X008478Y002467D01*
X007896Y002467D01*
X008167Y002738D01*
X008167Y002917D01*
X007707Y002917D01*
X007707Y002957D01*
X007667Y002957D01*
X007667Y003417D01*
X007488Y003417D01*
X007465Y003394D01*
X007467Y003437D01*
X007465Y003480D01*
X007488Y003457D01*
X007667Y003457D01*
X007667Y003917D01*
X007707Y003917D01*
X007707Y003457D01*
X007886Y003457D01*
X008167Y003738D01*
X008167Y003917D01*
X007707Y003917D01*
X007707Y003957D01*
X007667Y003957D01*
X007667Y004417D01*
X007488Y004417D01*
X007287Y004216D01*
X007286Y004220D01*
X007286Y004220D01*
X007208Y004362D01*
X007118Y004496D01*
X007015Y004622D01*
X006902Y004738D01*
X006779Y004843D01*
X006779Y004843D01*
X006646Y004936D01*
X006506Y005017D01*
X006359Y005085D01*
X006359Y005085D01*
X006206Y005140D01*
X006049Y005180D01*
X005889Y005206D01*
X005728Y005217D01*
X005728Y005217D01*
X005566Y005213D01*
X005566Y005213D01*
X005405Y005194D01*
X005246Y005162D01*
X005091Y005114D01*
X004941Y005053D01*
X004797Y004979D01*
X004661Y004891D01*
X004661Y004891D01*
X004533Y004792D01*
X004533Y004792D01*
X004414Y004681D01*
X004306Y004560D01*
X004210Y004430D01*
X004126Y004292D01*
X004126Y004292D01*
X004054Y004146D01*
X003997Y003995D01*
X003953Y003839D01*
X003924Y003679D01*
X003909Y003518D01*
X003909Y003356D01*
X003924Y003195D01*
X003953Y003035D01*
X003997Y002879D01*
X004054Y002728D01*
X004126Y002582D01*
X004196Y002467D01*
X002467Y002467D01*
X002467Y010157D01*
X007821Y010157D01*
X008053Y010157D01*
X008157Y010261D01*
X008157Y010114D02*
X002467Y010114D01*
X002467Y009956D02*
X008190Y009956D01*
X005972Y009797D02*
X002467Y009797D01*
X002467Y009639D02*
X005813Y009639D01*
X005707Y009480D02*
X002467Y009480D01*
X002467Y009322D02*
X005707Y009322D01*
X005707Y009163D02*
X002467Y009163D01*
X002467Y009004D02*
X005707Y009004D01*
X005707Y008846D02*
X002467Y008846D01*
X002467Y008687D02*
X005707Y008687D01*
X005707Y008529D02*
X002467Y008529D01*
X002467Y008370D02*
X005707Y008370D01*
X005707Y008212D02*
X002467Y008212D01*
X002467Y008053D02*
X005707Y008053D01*
X005707Y007895D02*
X002467Y007895D01*
X002467Y007736D02*
X005813Y007736D01*
X005971Y007578D02*
X002467Y007578D01*
X002467Y007419D02*
X006299Y007419D01*
X006457Y007260D02*
X002467Y007260D01*
X002467Y007102D02*
X008157Y007102D01*
X008157Y007167D02*
X008157Y006988D01*
X008438Y006707D01*
X008917Y006707D01*
X008917Y007167D01*
X008157Y007167D01*
X008157Y007260D02*
X007417Y007260D01*
X007575Y007419D02*
X008190Y007419D01*
X008202Y006943D02*
X002467Y006943D01*
X002467Y006785D02*
X008361Y006785D01*
X007831Y006468D02*
X010581Y006468D01*
X010696Y006309D02*
X010740Y006309D01*
X010788Y006151D02*
X010898Y006151D01*
X010957Y005992D02*
X010795Y005992D01*
X010715Y005834D02*
X010957Y005834D01*
X010957Y005675D02*
X008974Y005675D01*
X009097Y005516D02*
X010957Y005516D01*
X010957Y005358D02*
X009097Y005358D01*
X009097Y005199D02*
X010957Y005199D01*
X010957Y005041D02*
X009097Y005041D01*
X009097Y004882D02*
X010957Y004882D01*
X010957Y004724D02*
X009004Y004724D01*
X008961Y004565D02*
X010957Y004565D01*
X010957Y004407D02*
X010896Y004407D01*
X010478Y004407D02*
X009896Y004407D01*
X009886Y004417D02*
X009488Y004417D01*
X009207Y004136D01*
X009207Y003738D01*
X009488Y003457D01*
X009886Y003457D01*
X010167Y003738D01*
X010167Y004136D01*
X009886Y004417D01*
X010055Y004248D02*
X010319Y004248D01*
X010207Y004090D02*
X010167Y004090D01*
X010167Y003931D02*
X010207Y003931D01*
X010207Y003773D02*
X010167Y003773D01*
X010043Y003614D02*
X010331Y003614D01*
X010368Y003297D02*
X010006Y003297D01*
X010165Y003138D02*
X010210Y003138D01*
X010207Y002980D02*
X010167Y002980D01*
X010167Y002821D02*
X010207Y002821D01*
X010283Y002663D02*
X010091Y002663D01*
X009933Y002504D02*
X010441Y002504D01*
X009441Y002504D02*
X008933Y002504D01*
X009091Y002663D02*
X009283Y002663D01*
X009207Y002821D02*
X009167Y002821D01*
X009167Y002980D02*
X009207Y002980D01*
X009210Y003138D02*
X009165Y003138D01*
X009006Y003297D02*
X009368Y003297D01*
X009331Y003614D02*
X009043Y003614D01*
X008987Y003455D02*
X010957Y003455D01*
X012417Y004407D02*
X012457Y004407D01*
X012457Y004565D02*
X012417Y004565D01*
X012417Y004724D02*
X012457Y004724D01*
X012457Y004882D02*
X012417Y004882D01*
X013167Y005834D02*
X013284Y005834D01*
X013204Y005992D02*
X013167Y005992D01*
X013167Y006151D02*
X013211Y006151D01*
X013167Y006309D02*
X013303Y006309D01*
X013167Y006468D02*
X013627Y006468D01*
X013627Y006626D02*
X013167Y006626D01*
X013167Y006785D02*
X014015Y006785D01*
X014015Y006835D02*
X013627Y006835D01*
X013627Y007157D01*
X013733Y007262D01*
X014015Y007262D01*
X014015Y006835D01*
X014015Y006943D02*
X014111Y006943D01*
X014111Y007102D02*
X014015Y007102D01*
X014015Y007260D02*
X014111Y007260D01*
X014210Y007419D02*
X013167Y007419D01*
X013167Y007578D02*
X014135Y007578D01*
X014135Y007736D02*
X013167Y007736D01*
X013167Y007895D02*
X014150Y007895D01*
X014135Y008053D02*
X013167Y008053D01*
X013167Y008212D02*
X014135Y008212D01*
X014135Y008370D02*
X013167Y008370D01*
X013167Y008529D02*
X014135Y008529D01*
X014135Y008687D02*
X013167Y008687D01*
X013171Y008846D02*
X014135Y008846D01*
X014172Y009417D02*
X013167Y009417D01*
X013167Y010925D01*
X013203Y010889D01*
X014218Y010889D01*
X014256Y010927D01*
X014462Y010927D01*
X014462Y010831D01*
X014505Y010787D01*
X014462Y010744D01*
X014462Y010461D01*
X014889Y010461D01*
X014889Y010365D01*
X014985Y010365D01*
X014985Y009977D01*
X015307Y009977D01*
X015412Y010083D01*
X015412Y010365D01*
X014985Y010365D01*
X014985Y010461D01*
X015412Y010461D01*
X015412Y010744D01*
X015369Y010787D01*
X015412Y010831D01*
X015412Y010901D01*
X015895Y010901D01*
X015884Y010890D01*
X015829Y010758D01*
X015829Y010616D01*
X015884Y010484D01*
X015957Y010411D01*
X015957Y009032D01*
X015957Y008917D01*
X015324Y008917D01*
X015304Y008937D01*
X015361Y008994D01*
X015361Y009380D01*
X015256Y009485D01*
X014240Y009485D01*
X014172Y009417D01*
X014235Y009480D02*
X013167Y009480D01*
X013167Y009639D02*
X015957Y009639D01*
X015957Y009797D02*
X013167Y009797D01*
X013167Y009956D02*
X015957Y009956D01*
X015957Y010114D02*
X015412Y010114D01*
X015412Y010273D02*
X015957Y010273D01*
X015936Y010431D02*
X014985Y010431D01*
X014889Y010431D02*
X013167Y010431D01*
X013167Y010273D02*
X014462Y010273D01*
X014462Y010365D02*
X014462Y010083D01*
X014567Y009977D01*
X014889Y009977D01*
X014889Y010365D01*
X014462Y010365D01*
X014462Y010590D02*
X013167Y010590D01*
X013167Y010748D02*
X014467Y010748D01*
X014462Y010907D02*
X014236Y010907D01*
X013711Y011187D02*
X013687Y011187D01*
X013711Y011211D01*
X013711Y011687D01*
X013711Y011187D02*
X014937Y011187D01*
X014937Y011161D02*
X018063Y011161D01*
X018437Y010787D01*
X018737Y010748D02*
X021637Y010748D01*
X021637Y010590D02*
X018737Y010590D01*
X018737Y010431D02*
X020175Y010431D01*
X020085Y010273D02*
X018737Y010273D01*
X018737Y010907D02*
X021637Y010907D01*
X021637Y011066D02*
X018737Y011066D01*
X018737Y011224D02*
X021637Y011224D01*
X021637Y011383D02*
X018737Y011383D01*
X018737Y011541D02*
X021637Y011541D01*
X021637Y011700D02*
X018737Y011700D01*
X018737Y011858D02*
X021637Y011858D01*
X021637Y012017D02*
X018737Y012017D01*
X018737Y012175D02*
X021637Y012175D01*
X021637Y012334D02*
X018737Y012334D01*
X018737Y012492D02*
X021637Y012492D01*
X021637Y012651D02*
X018737Y012651D01*
X018737Y012809D02*
X021637Y012809D01*
X021637Y012968D02*
X018737Y012968D01*
X018737Y013127D02*
X021637Y013127D01*
X021540Y013285D02*
X018737Y013285D01*
X018137Y013285D02*
X008217Y013285D01*
X008217Y013127D02*
X018137Y013127D01*
X018137Y012968D02*
X014235Y012968D01*
X014324Y012809D02*
X018137Y012809D01*
X018137Y012651D02*
X014324Y012651D01*
X014322Y012492D02*
X018137Y012492D01*
X018137Y012334D02*
X016116Y012334D01*
X016455Y012175D02*
X018137Y012175D01*
X018137Y012017D02*
X016542Y012017D01*
X016542Y011858D02*
X018137Y011858D01*
X018137Y011700D02*
X016456Y011700D01*
X015918Y011700D02*
X014324Y011700D01*
X014324Y011858D02*
X015832Y011858D01*
X015363Y011541D02*
X018137Y011541D01*
X015829Y010748D02*
X015407Y010748D01*
X015412Y010590D02*
X015840Y010590D01*
X014985Y010273D02*
X014889Y010273D01*
X014889Y010114D02*
X014985Y010114D01*
X014462Y010114D02*
X013167Y010114D01*
X013167Y010907D02*
X013185Y010907D01*
X012342Y010907D02*
X012189Y010907D01*
X012724Y012175D02*
X012754Y012175D01*
X012613Y012334D02*
X012566Y012334D01*
X012579Y012492D02*
X012274Y012492D01*
X012276Y012651D02*
X012617Y012651D01*
X012780Y012809D02*
X012276Y012809D01*
X012276Y012880D02*
X012171Y012985D01*
X011664Y012985D01*
X011664Y012687D01*
X012276Y012687D01*
X012276Y012880D01*
X012188Y012968D02*
X013186Y012968D01*
X011664Y012968D02*
X011663Y012968D01*
X011663Y012809D02*
X011664Y012809D01*
X011139Y012968D02*
X008217Y012968D01*
X008217Y013444D02*
X018137Y013444D01*
X018137Y013602D02*
X008217Y013602D01*
X008217Y013761D02*
X018137Y013761D01*
X018137Y013919D02*
X008217Y013919D01*
X008217Y014078D02*
X018137Y014078D01*
X018137Y014236D02*
X008217Y014236D01*
X008217Y014395D02*
X018137Y014395D01*
X018137Y014553D02*
X008217Y014553D01*
X008217Y014712D02*
X018137Y014712D01*
X018137Y014871D02*
X008217Y014871D01*
X008217Y015029D02*
X018137Y015029D01*
X018137Y015188D02*
X008217Y015188D01*
X008217Y015346D02*
X018137Y015346D01*
X018137Y015505D02*
X008217Y015505D01*
X008217Y015663D02*
X018137Y015663D01*
X018137Y015822D02*
X008217Y015822D01*
X008217Y015980D02*
X018137Y015980D01*
X018137Y016139D02*
X008217Y016139D01*
X008217Y016297D02*
X018137Y016297D01*
X018137Y016456D02*
X008217Y016456D01*
X008217Y016615D02*
X018137Y016615D01*
X018137Y016773D02*
X009912Y016773D01*
X009912Y016932D02*
X018018Y016932D01*
X017860Y017090D02*
X009485Y017090D01*
X009389Y017090D02*
X008217Y017090D01*
X008217Y016932D02*
X008962Y016932D01*
X008962Y016773D02*
X008217Y016773D01*
X008217Y017249D02*
X008962Y017249D01*
X008976Y017407D02*
X008217Y017407D01*
X008204Y017566D02*
X008962Y017566D01*
X009437Y017811D02*
X009437Y017937D01*
X009531Y018247D02*
X009576Y018292D01*
X009576Y018545D01*
X009139Y018545D01*
X009139Y018581D01*
X009576Y018581D01*
X009576Y018834D01*
X009715Y018834D01*
X009707Y018842D02*
X009842Y018707D01*
X010092Y018457D01*
X010127Y018457D01*
X010127Y018317D01*
X010233Y018212D01*
X010894Y018212D01*
X010937Y018255D01*
X010981Y018212D01*
X011263Y018212D01*
X011263Y018639D01*
X011359Y018639D01*
X011359Y018212D01*
X011642Y018212D01*
X011747Y018317D01*
X011747Y018639D01*
X011359Y018639D01*
X011359Y018735D01*
X011747Y018735D01*
X011747Y019057D01*
X011723Y019081D01*
X012366Y019081D01*
X012556Y019081D01*
X012782Y019307D01*
X012917Y019442D01*
X012917Y021488D01*
X013167Y021738D01*
X013167Y022136D01*
X012886Y022417D01*
X012525Y022417D01*
X012562Y022457D01*
X012886Y022457D01*
X013167Y022738D01*
X013167Y023136D01*
X012896Y023407D01*
X013478Y023407D01*
X013207Y023136D01*
X013207Y022738D01*
X013488Y022457D01*
X013886Y022457D01*
X014167Y022738D01*
X014167Y023136D01*
X013896Y023407D01*
X014478Y023407D01*
X014207Y023136D01*
X014207Y022738D01*
X014488Y022457D01*
X014886Y022457D01*
X015167Y022738D01*
X015167Y023136D01*
X014896Y023407D01*
X015478Y023407D01*
X015207Y023136D01*
X015207Y022738D01*
X015488Y022457D01*
X015886Y022457D01*
X016167Y022738D01*
X016167Y023136D01*
X015896Y023407D01*
X016478Y023407D01*
X016207Y023136D01*
X016207Y022738D01*
X016488Y022457D01*
X016886Y022457D01*
X017167Y022738D01*
X017167Y023136D01*
X016896Y023407D01*
X017478Y023407D01*
X017207Y023136D01*
X017207Y022738D01*
X017488Y022457D01*
X017886Y022457D01*
X018167Y022738D01*
X018167Y023136D01*
X017896Y023407D01*
X018478Y023407D01*
X018207Y023136D01*
X018207Y022738D01*
X018488Y022457D01*
X018886Y022457D01*
X019167Y022738D01*
X019167Y023136D01*
X018896Y023407D01*
X019478Y023407D01*
X019207Y023136D01*
X019207Y022738D01*
X019488Y022457D01*
X019886Y022457D01*
X020167Y022738D01*
X020167Y023136D01*
X019896Y023407D01*
X020478Y023407D01*
X020207Y023136D01*
X020207Y022738D01*
X020488Y022457D01*
X020886Y022457D01*
X021167Y022738D01*
X021167Y023136D01*
X020896Y023407D01*
X021478Y023407D01*
X021207Y023136D01*
X021207Y022738D01*
X021488Y022457D01*
X021886Y022457D01*
X022167Y022738D01*
X022167Y023136D01*
X021896Y023407D01*
X022478Y023407D01*
X022207Y023136D01*
X022207Y022738D01*
X022488Y022457D01*
X022886Y022457D01*
X023167Y022738D01*
X023167Y023136D01*
X022896Y023407D01*
X023478Y023407D01*
X023207Y023136D01*
X023207Y022738D01*
X023488Y022457D01*
X023886Y022457D01*
X024167Y022738D01*
X024167Y023136D01*
X023896Y023407D01*
X024478Y023407D01*
X024207Y023136D01*
X024207Y022738D01*
X024488Y022457D01*
X024886Y022457D01*
X025167Y022738D01*
X025167Y023136D01*
X024896Y023407D01*
X025478Y023407D01*
X025207Y023136D01*
X025207Y022738D01*
X025488Y022457D01*
X025886Y022457D01*
X026167Y022738D01*
X026167Y023136D01*
X025896Y023407D01*
X026478Y023407D01*
X026207Y023136D01*
X026207Y022738D01*
X026488Y022457D01*
X026886Y022457D01*
X027167Y022738D01*
X027167Y023136D01*
X026896Y023407D01*
X027478Y023407D01*
X027207Y023136D01*
X027207Y022738D01*
X027488Y022457D01*
X027886Y022457D01*
X028167Y022738D01*
X028167Y023136D01*
X027896Y023407D01*
X028478Y023407D01*
X028207Y023136D01*
X028207Y022738D01*
X028488Y022457D01*
X028886Y022457D01*
X029167Y022738D01*
X029167Y023136D01*
X028896Y023407D01*
X028937Y023407D01*
X029114Y023404D01*
X029450Y023379D01*
X029207Y023136D01*
X029207Y022738D01*
X029488Y022457D01*
X029886Y022457D01*
X030167Y022738D01*
X030167Y023136D01*
X030026Y023276D01*
X030159Y023246D01*
X030496Y023142D01*
X030825Y023013D01*
X031117Y022872D01*
X031091Y022864D01*
X030941Y022803D01*
X030797Y022729D01*
X030661Y022641D01*
X030661Y022641D01*
X030533Y022542D01*
X030533Y022542D01*
X030414Y022431D01*
X030306Y022310D01*
X030210Y022180D01*
X030167Y022110D01*
X030167Y022136D01*
X029886Y022417D01*
X029488Y022417D01*
X029207Y022136D01*
X029207Y021738D01*
X029488Y021457D01*
X029886Y021457D01*
X029938Y021510D01*
X029924Y021429D01*
X029909Y021268D01*
X029909Y021106D01*
X029924Y020945D01*
X029953Y020785D01*
X029997Y020629D01*
X030054Y020478D01*
X030126Y020332D01*
X030210Y020194D01*
X030306Y020064D01*
X030414Y019943D01*
X030414Y019943D01*
X030414Y019943D01*
X030533Y019832D01*
X030655Y019737D01*
X028162Y019737D01*
X028162Y019892D01*
X028057Y019997D01*
X027317Y019997D01*
X027212Y019892D01*
X027212Y019861D01*
X024435Y019861D01*
X024187Y019861D01*
X023813Y019487D01*
X023637Y019311D01*
X023637Y014063D01*
X023637Y010311D01*
X023563Y010237D01*
X023563Y010237D01*
X022561Y010237D01*
X022237Y010561D01*
X022237Y013188D01*
X022237Y013436D01*
X021862Y013811D01*
X021686Y013987D01*
X018811Y013987D01*
X018737Y014061D01*
X018737Y017061D01*
X018561Y017237D01*
X017687Y018111D01*
X017439Y018111D01*
X009912Y018111D01*
X009912Y018142D01*
X009807Y018247D01*
X009531Y018247D01*
X009576Y018359D02*
X010127Y018359D01*
X010032Y018517D02*
X009576Y018517D01*
X009576Y018676D02*
X009873Y018676D01*
X009707Y018842D02*
X009707Y019081D01*
X009576Y019081D01*
X009576Y019040D01*
X009473Y018937D01*
X009576Y018834D01*
X009529Y018993D02*
X009707Y018993D01*
X009576Y019541D02*
X009576Y019582D01*
X009471Y019687D01*
X009576Y019792D01*
X009576Y020045D01*
X009139Y020045D01*
X009139Y020081D01*
X009576Y020081D01*
X009576Y020334D01*
X009473Y020437D01*
X009576Y020540D01*
X009576Y020581D01*
X009707Y020581D01*
X009707Y020342D01*
X009842Y020207D01*
X010092Y019957D01*
X010127Y019957D01*
X010127Y019817D01*
X010233Y019712D01*
X010894Y019712D01*
X010937Y019755D01*
X010981Y019712D01*
X011263Y019712D01*
X011263Y020139D01*
X011359Y020139D01*
X011359Y019712D01*
X011642Y019712D01*
X011747Y019817D01*
X011747Y020139D01*
X011359Y020139D01*
X011359Y020235D01*
X011747Y020235D01*
X011747Y020557D01*
X011723Y020581D01*
X011866Y020581D01*
X012040Y020581D01*
X012056Y020581D01*
X012114Y020638D01*
X012266Y020757D01*
X012282Y020757D01*
X012340Y020814D01*
X012363Y020838D01*
X012417Y020892D01*
X012417Y021528D01*
X012457Y021488D01*
X012457Y019632D01*
X012366Y019541D01*
X010032Y019541D01*
X009842Y019541D01*
X009576Y019541D01*
X009531Y019627D02*
X012452Y019627D01*
X012457Y019785D02*
X011715Y019785D01*
X011747Y019944D02*
X012457Y019944D01*
X012457Y020102D02*
X011747Y020102D01*
X011747Y020261D02*
X012457Y020261D01*
X012457Y020420D02*
X011747Y020420D01*
X011726Y020578D02*
X012457Y020578D01*
X012457Y020737D02*
X012240Y020737D01*
X012417Y020895D02*
X012457Y020895D01*
X012457Y021054D02*
X012417Y021054D01*
X012417Y021212D02*
X012457Y021212D01*
X012457Y021371D02*
X012417Y021371D01*
X012917Y021371D02*
X029918Y021371D01*
X029909Y021212D02*
X012917Y021212D01*
X012917Y021054D02*
X029914Y021054D01*
X029933Y020895D02*
X012917Y020895D01*
X012917Y020737D02*
X029967Y020737D01*
X030016Y020578D02*
X012917Y020578D01*
X012917Y020420D02*
X030083Y020420D01*
X030054Y020478D02*
X030054Y020478D01*
X030126Y020332D02*
X030126Y020332D01*
X030169Y020261D02*
X012917Y020261D01*
X012917Y020102D02*
X030278Y020102D01*
X030306Y020064D02*
X030306Y020064D01*
X030413Y019944D02*
X028110Y019944D01*
X028162Y019785D02*
X030593Y019785D01*
X030533Y019832D02*
X030533Y019832D01*
X030210Y020194D02*
X030210Y020194D01*
X030563Y019137D02*
X028905Y019137D01*
X028960Y019082D01*
X028960Y018830D01*
X028523Y018830D01*
X028523Y018793D01*
X028960Y018793D01*
X028960Y018753D01*
X029020Y018814D01*
X029720Y018814D01*
X029826Y018708D01*
X029826Y018697D01*
X030191Y018697D01*
X030234Y018741D01*
X030366Y018795D01*
X030508Y018795D01*
X030637Y018742D01*
X030637Y019063D01*
X030563Y019137D01*
X030637Y018993D02*
X028960Y018993D01*
X028960Y018834D02*
X030637Y018834D01*
X031187Y018937D02*
X031312Y018937D01*
X031797Y019412D02*
X031889Y019419D01*
X032049Y019444D01*
X032049Y019444D01*
X032206Y019484D01*
X032359Y019539D01*
X032506Y019607D01*
X032646Y019688D01*
X032646Y019688D01*
X032779Y019781D01*
X032902Y019886D01*
X032902Y019886D01*
X032902Y019886D01*
X033015Y020002D01*
X033118Y020128D01*
X033208Y020262D01*
X033286Y020404D01*
X033309Y020458D01*
X033392Y020246D01*
X033496Y019909D01*
X033575Y019565D01*
X033627Y019216D01*
X033645Y018986D01*
X033640Y018991D01*
X033508Y019045D01*
X033447Y019045D01*
X033295Y019197D01*
X033079Y019197D01*
X032997Y019197D01*
X032997Y019307D01*
X032892Y019412D01*
X032231Y019412D01*
X032187Y019369D01*
X032144Y019412D01*
X031797Y019412D01*
X031889Y019419D02*
X031889Y019419D01*
X032143Y019468D02*
X033589Y019468D01*
X033613Y019310D02*
X032994Y019310D01*
X033341Y019151D02*
X033632Y019151D01*
X033635Y018993D02*
X033644Y018993D01*
X033437Y018687D02*
X033187Y018937D01*
X032561Y018937D01*
X032206Y019484D02*
X032206Y019484D01*
X032359Y019539D02*
X032359Y019539D01*
X032506Y019607D02*
X032506Y019607D01*
X032541Y019627D02*
X033561Y019627D01*
X033524Y019785D02*
X032784Y019785D01*
X032779Y019781D02*
X032779Y019781D01*
X032958Y019944D02*
X033485Y019944D01*
X033436Y020102D02*
X033097Y020102D01*
X033118Y020128D02*
X033118Y020128D01*
X033207Y020261D02*
X033386Y020261D01*
X033324Y020420D02*
X033292Y020420D01*
X033015Y020002D02*
X033015Y020002D01*
X030437Y018437D02*
X029370Y018437D01*
X029020Y018060D02*
X029720Y018060D01*
X029826Y018166D01*
X029826Y018177D01*
X030191Y018177D01*
X030234Y018134D01*
X030366Y018079D01*
X030508Y018079D01*
X030637Y018132D01*
X030637Y017242D01*
X030508Y017295D01*
X030366Y017295D01*
X030234Y017241D01*
X030191Y017197D01*
X029826Y017197D01*
X029826Y017208D01*
X029720Y017314D01*
X029020Y017314D01*
X028960Y017253D01*
X028960Y017293D01*
X028523Y017293D01*
X028523Y017330D01*
X028960Y017330D01*
X028960Y017582D01*
X028855Y017687D01*
X028960Y017792D01*
X028960Y018121D01*
X029020Y018060D01*
X028960Y018041D02*
X030637Y018041D01*
X030637Y017883D02*
X028960Y017883D01*
X028892Y017724D02*
X030637Y017724D01*
X030637Y017566D02*
X028960Y017566D01*
X028960Y017407D02*
X030637Y017407D01*
X030620Y017249D02*
X030637Y017249D01*
X030437Y016937D02*
X029370Y016937D01*
X029020Y016560D02*
X028960Y016621D01*
X028960Y016292D01*
X028854Y016186D01*
X028154Y016186D01*
X028099Y016241D01*
X028008Y016204D01*
X027866Y016204D01*
X027734Y016259D01*
X027686Y016307D01*
X026847Y016307D01*
X026847Y016167D01*
X026742Y016062D01*
X026081Y016062D01*
X026037Y016105D01*
X025994Y016062D01*
X025711Y016062D01*
X025711Y016489D01*
X025615Y016489D01*
X025615Y016062D01*
X025333Y016062D01*
X025227Y016167D01*
X025227Y016489D01*
X025615Y016489D01*
X025615Y016585D01*
X025227Y016585D01*
X025227Y016907D01*
X025333Y017012D01*
X025615Y017012D01*
X025615Y016585D01*
X025711Y016585D01*
X025711Y017012D01*
X025994Y017012D01*
X026037Y016969D01*
X026081Y017012D01*
X026742Y017012D01*
X026847Y016907D01*
X026847Y016767D01*
X027636Y016767D01*
X027734Y016866D01*
X027866Y016920D01*
X028008Y016920D01*
X028097Y016883D01*
X028151Y016937D01*
X028048Y017040D01*
X028048Y017293D01*
X028485Y017293D01*
X028485Y017330D01*
X028048Y017330D01*
X028048Y017582D01*
X028153Y017687D01*
X028099Y017741D01*
X028008Y017704D01*
X027866Y017704D01*
X027734Y017759D01*
X027636Y017857D01*
X026847Y017857D01*
X026847Y017717D01*
X026742Y017612D01*
X026081Y017612D01*
X026037Y017655D01*
X025994Y017612D01*
X025711Y017612D01*
X025711Y018039D01*
X025615Y018039D01*
X025615Y017612D01*
X025333Y017612D01*
X025227Y017717D01*
X025227Y018039D01*
X025615Y018039D01*
X025615Y018135D01*
X025227Y018135D01*
X025227Y018457D01*
X025333Y018562D01*
X025615Y018562D01*
X025615Y018135D01*
X025711Y018135D01*
X025711Y018562D01*
X025994Y018562D01*
X026037Y018519D01*
X026081Y018562D01*
X026742Y018562D01*
X026847Y018457D01*
X026847Y018317D01*
X027686Y018317D01*
X027734Y018366D01*
X027762Y018377D01*
X027735Y018377D01*
X027735Y018765D01*
X027639Y018765D01*
X027639Y018377D01*
X027317Y018377D01*
X027212Y018483D01*
X027212Y018765D01*
X027639Y018765D01*
X027639Y018861D01*
X027212Y018861D01*
X027212Y019144D01*
X027255Y019187D01*
X027212Y019231D01*
X027212Y019261D01*
X024435Y019261D01*
X024237Y019063D01*
X024237Y014911D01*
X024438Y015112D01*
X024686Y015112D01*
X027212Y015112D01*
X027212Y015142D01*
X027317Y015247D01*
X028057Y015247D01*
X028162Y015142D01*
X028162Y014987D01*
X030563Y014987D01*
X030811Y014987D01*
X031061Y014737D01*
X031311Y014487D01*
X031377Y014487D01*
X031377Y014557D01*
X031483Y014662D01*
X032144Y014662D01*
X032187Y014619D01*
X032231Y014662D01*
X032892Y014662D01*
X032997Y014557D01*
X032997Y014447D01*
X033079Y014447D01*
X033295Y014447D01*
X033447Y014295D01*
X033508Y014295D01*
X033640Y014241D01*
X033657Y014223D01*
X033657Y016401D01*
X033640Y016384D01*
X033508Y016329D01*
X033447Y016329D01*
X033295Y016177D01*
X033079Y016177D01*
X032997Y016177D01*
X032997Y016067D01*
X032892Y015962D01*
X032231Y015962D01*
X032187Y016005D01*
X032144Y015962D01*
X031483Y015962D01*
X031377Y016067D01*
X031377Y016137D01*
X031063Y016137D01*
X030887Y016313D01*
X030813Y016387D01*
X030637Y016563D01*
X030637Y016632D01*
X030508Y016579D01*
X030366Y016579D01*
X030234Y016634D01*
X030191Y016677D01*
X029826Y016677D01*
X029826Y016666D01*
X029720Y016560D01*
X029020Y016560D01*
X028966Y016615D02*
X028960Y016615D01*
X028960Y016456D02*
X030744Y016456D01*
X030637Y016615D02*
X030594Y016615D01*
X030280Y016615D02*
X029775Y016615D01*
X028960Y016297D02*
X030902Y016297D01*
X031061Y016139D02*
X026819Y016139D01*
X026847Y016297D02*
X027695Y016297D01*
X027642Y016773D02*
X026847Y016773D01*
X026822Y016932D02*
X028146Y016932D01*
X028048Y017090D02*
X024237Y017090D01*
X024237Y016932D02*
X025252Y016932D01*
X025227Y016773D02*
X024237Y016773D01*
X024237Y016615D02*
X025227Y016615D01*
X025227Y016456D02*
X024237Y016456D01*
X024237Y016297D02*
X025227Y016297D01*
X025256Y016139D02*
X024237Y016139D01*
X024237Y015980D02*
X031464Y015980D01*
X032162Y015980D02*
X032212Y015980D01*
X032561Y016437D02*
X033187Y016437D01*
X033437Y016687D01*
X033415Y016297D02*
X033657Y016297D01*
X033657Y016139D02*
X032997Y016139D01*
X032910Y015980D02*
X033657Y015980D01*
X033657Y015822D02*
X024237Y015822D01*
X024237Y015663D02*
X033657Y015663D01*
X033657Y015505D02*
X024237Y015505D01*
X024237Y015346D02*
X033657Y015346D01*
X033657Y015188D02*
X028116Y015188D01*
X028162Y015029D02*
X033657Y015029D01*
X033657Y014871D02*
X030928Y014871D01*
X031086Y014712D02*
X033657Y014712D01*
X033657Y014553D02*
X032997Y014553D01*
X033347Y014395D02*
X033657Y014395D01*
X033644Y014236D02*
X033657Y014236D01*
X033437Y013937D02*
X033187Y014187D01*
X032561Y014187D01*
X031377Y014553D02*
X031245Y014553D01*
X030637Y014313D02*
X030637Y013992D01*
X030508Y014045D01*
X030366Y014045D01*
X030234Y013991D01*
X030191Y013947D01*
X029826Y013947D01*
X029826Y013958D01*
X029720Y014064D01*
X029020Y014064D01*
X028960Y014003D01*
X028960Y014043D01*
X028523Y014043D01*
X028523Y014080D01*
X028960Y014080D01*
X028960Y014332D01*
X028905Y014387D01*
X030563Y014387D01*
X030637Y014313D01*
X030637Y014236D02*
X028960Y014236D01*
X028523Y014078D02*
X030637Y014078D01*
X031187Y014187D02*
X031312Y014187D01*
X030437Y013687D02*
X029370Y013687D01*
X029020Y013310D02*
X029720Y013310D01*
X029826Y013416D01*
X029826Y013427D01*
X030191Y013427D01*
X030234Y013384D01*
X030366Y013329D01*
X030508Y013329D01*
X030637Y013382D01*
X030637Y012492D01*
X030508Y012545D01*
X030366Y012545D01*
X030234Y012491D01*
X030191Y012447D01*
X029826Y012447D01*
X029826Y012458D01*
X029720Y012564D01*
X029020Y012564D01*
X028960Y012503D01*
X028960Y012543D01*
X028523Y012543D01*
X028523Y012580D01*
X028960Y012580D01*
X028960Y012832D01*
X028855Y012937D01*
X028960Y013042D01*
X028960Y013371D01*
X029020Y013310D01*
X028960Y013285D02*
X030637Y013285D01*
X030637Y013127D02*
X028960Y013127D01*
X028886Y012968D02*
X030637Y012968D01*
X030637Y012809D02*
X028960Y012809D01*
X028960Y012651D02*
X030637Y012651D01*
X030636Y012492D02*
X030637Y012492D01*
X030437Y012187D02*
X029370Y012187D01*
X029020Y011810D02*
X028960Y011871D01*
X028960Y011542D01*
X028854Y011436D01*
X028154Y011436D01*
X028099Y011491D01*
X028008Y011454D01*
X027866Y011454D01*
X027734Y011509D01*
X027636Y011607D01*
X026847Y011607D01*
X026847Y011467D01*
X026742Y011362D01*
X026081Y011362D01*
X026037Y011405D01*
X025994Y011362D01*
X025711Y011362D01*
X025711Y011789D01*
X025615Y011789D01*
X025615Y011362D01*
X025333Y011362D01*
X025227Y011467D01*
X025227Y011789D01*
X025615Y011789D01*
X025615Y011885D01*
X025227Y011885D01*
X025227Y012207D01*
X025333Y012312D01*
X025615Y012312D01*
X025615Y011885D01*
X025711Y011885D01*
X025711Y012312D01*
X025994Y012312D01*
X026037Y012269D01*
X026081Y012312D01*
X026742Y012312D01*
X026847Y012207D01*
X026847Y012067D01*
X027686Y012067D01*
X027734Y012116D01*
X027866Y012170D01*
X028008Y012170D01*
X028097Y012133D01*
X028151Y012187D01*
X028048Y012290D01*
X028048Y012543D01*
X028485Y012543D01*
X028485Y012580D01*
X028048Y012580D01*
X028048Y012832D01*
X028153Y012937D01*
X028099Y012991D01*
X028008Y012954D01*
X027866Y012954D01*
X027734Y013009D01*
X027636Y013107D01*
X026847Y013107D01*
X026847Y012967D01*
X026742Y012862D01*
X026081Y012862D01*
X026037Y012905D01*
X025994Y012862D01*
X025711Y012862D01*
X025711Y013289D01*
X025615Y013289D01*
X025615Y012862D01*
X025333Y012862D01*
X025227Y012967D01*
X025227Y013289D01*
X025615Y013289D01*
X025615Y013385D01*
X025227Y013385D01*
X025227Y013707D01*
X025333Y013812D01*
X025615Y013812D01*
X025615Y013385D01*
X025711Y013385D01*
X025711Y013812D01*
X025994Y013812D01*
X026037Y013769D01*
X026081Y013812D01*
X026742Y013812D01*
X026847Y013707D01*
X026847Y013567D01*
X027686Y013567D01*
X027734Y013616D01*
X027762Y013627D01*
X027735Y013627D01*
X027735Y014015D01*
X027639Y014015D01*
X027639Y013627D01*
X027317Y013627D01*
X027212Y013733D01*
X027212Y014015D01*
X027639Y014015D01*
X027639Y014111D01*
X027212Y014111D01*
X027212Y014394D01*
X027255Y014437D01*
X027212Y014481D01*
X027212Y014512D01*
X024686Y014512D01*
X024237Y014063D01*
X024237Y014063D01*
X024237Y010311D01*
X024237Y010237D01*
X027212Y010237D01*
X027212Y010392D01*
X027317Y010497D01*
X028057Y010497D01*
X028162Y010392D01*
X028162Y010237D01*
X030811Y010237D01*
X030987Y010061D01*
X031061Y009987D01*
X031061Y009987D01*
X031311Y009737D01*
X031377Y009737D01*
X031377Y009807D01*
X031483Y009912D01*
X032144Y009912D01*
X032187Y009869D01*
X032231Y009912D01*
X032892Y009912D01*
X032997Y009807D01*
X032997Y009697D01*
X033079Y009697D01*
X033295Y009697D01*
X033447Y009545D01*
X033508Y009545D01*
X033640Y009491D01*
X033657Y009473D01*
X033657Y011651D01*
X033640Y011634D01*
X033508Y011579D01*
X033447Y011579D01*
X033295Y011427D01*
X033079Y011427D01*
X032997Y011427D01*
X032997Y011317D01*
X032892Y011212D01*
X032231Y011212D01*
X032187Y011255D01*
X032144Y011212D01*
X031483Y011212D01*
X031377Y011317D01*
X031377Y011387D01*
X031063Y011387D01*
X030887Y011563D01*
X030887Y011563D01*
X030813Y011637D01*
X030637Y011813D01*
X030637Y011882D01*
X030508Y011829D01*
X030366Y011829D01*
X030234Y011884D01*
X030191Y011927D01*
X029826Y011927D01*
X029826Y011916D01*
X029720Y011810D01*
X029020Y011810D01*
X028972Y011858D02*
X028960Y011858D01*
X028960Y011700D02*
X030750Y011700D01*
X030637Y011858D02*
X030579Y011858D01*
X030295Y011858D02*
X029768Y011858D01*
X028959Y011541D02*
X030909Y011541D01*
X031377Y011383D02*
X026762Y011383D01*
X026847Y011541D02*
X027702Y011541D01*
X028139Y012175D02*
X026847Y012175D01*
X026847Y012968D02*
X027832Y012968D01*
X028042Y012968D02*
X028122Y012968D01*
X028048Y012809D02*
X024237Y012809D01*
X024237Y012651D02*
X028048Y012651D01*
X028048Y012492D02*
X024237Y012492D01*
X024237Y012334D02*
X028048Y012334D01*
X029792Y012492D02*
X030239Y012492D01*
X031470Y011224D02*
X024237Y011224D01*
X024237Y011066D02*
X033657Y011066D01*
X033657Y011224D02*
X032904Y011224D01*
X032997Y011383D02*
X033657Y011383D01*
X033657Y011541D02*
X033409Y011541D01*
X033187Y011687D02*
X033437Y011937D01*
X033187Y011687D02*
X032561Y011687D01*
X032218Y011224D02*
X032156Y011224D01*
X033657Y010907D02*
X024237Y010907D01*
X024237Y010748D02*
X033657Y010748D01*
X033657Y010590D02*
X024237Y010590D01*
X024237Y010431D02*
X027252Y010431D01*
X027212Y010273D02*
X024237Y010273D01*
X023637Y010431D02*
X022367Y010431D01*
X022237Y010590D02*
X023637Y010590D01*
X023637Y010748D02*
X022237Y010748D01*
X022237Y010907D02*
X023637Y010907D01*
X023637Y011066D02*
X022237Y011066D01*
X022237Y011224D02*
X023637Y011224D01*
X023637Y011383D02*
X022237Y011383D01*
X022237Y011541D02*
X023637Y011541D01*
X023637Y011700D02*
X022237Y011700D01*
X022237Y011858D02*
X023637Y011858D01*
X023637Y012017D02*
X022237Y012017D01*
X022237Y012175D02*
X023637Y012175D01*
X023637Y012334D02*
X022237Y012334D01*
X022237Y012492D02*
X023637Y012492D01*
X023637Y012651D02*
X022237Y012651D01*
X022237Y012809D02*
X023637Y012809D01*
X023637Y012968D02*
X022237Y012968D01*
X022237Y013127D02*
X023637Y013127D01*
X023637Y013285D02*
X022237Y013285D01*
X022230Y013444D02*
X023637Y013444D01*
X023637Y013602D02*
X022071Y013602D01*
X021913Y013761D02*
X023637Y013761D01*
X023637Y013919D02*
X021754Y013919D01*
X023637Y014078D02*
X018737Y014078D01*
X018737Y014236D02*
X023637Y014236D01*
X023637Y014395D02*
X018737Y014395D01*
X018737Y014553D02*
X023637Y014553D01*
X023637Y014712D02*
X018737Y014712D01*
X018737Y014871D02*
X023637Y014871D01*
X023637Y015029D02*
X018737Y015029D01*
X018737Y015188D02*
X023637Y015188D01*
X023637Y015346D02*
X018737Y015346D01*
X018737Y015505D02*
X023637Y015505D01*
X023637Y015663D02*
X018737Y015663D01*
X018737Y015822D02*
X023637Y015822D01*
X023637Y015980D02*
X018737Y015980D01*
X018737Y016139D02*
X023637Y016139D01*
X023637Y016297D02*
X018737Y016297D01*
X018737Y016456D02*
X023637Y016456D01*
X023637Y016615D02*
X018737Y016615D01*
X018737Y016773D02*
X023637Y016773D01*
X023637Y016932D02*
X018737Y016932D01*
X018708Y017090D02*
X023637Y017090D01*
X023637Y017249D02*
X018550Y017249D01*
X018391Y017407D02*
X023637Y017407D01*
X023637Y017566D02*
X018233Y017566D01*
X018074Y017724D02*
X023637Y017724D01*
X023637Y017883D02*
X017915Y017883D01*
X017757Y018041D02*
X023637Y018041D01*
X023637Y018200D02*
X009854Y018200D01*
X009101Y018545D02*
X008665Y018545D01*
X008665Y018292D01*
X008719Y018237D01*
X007561Y018237D01*
X007237Y018561D01*
X007237Y018561D01*
X007121Y018677D01*
X007798Y018677D01*
X007798Y018666D01*
X007904Y018560D01*
X008604Y018560D01*
X008665Y018621D01*
X008665Y018581D01*
X009101Y018581D01*
X009101Y018545D01*
X008665Y018517D02*
X007281Y018517D01*
X007123Y018676D02*
X007798Y018676D01*
X007440Y018359D02*
X008665Y018359D01*
X008254Y018937D02*
X006687Y018937D01*
X006934Y019197D02*
X006890Y019241D01*
X006758Y019295D01*
X006616Y019295D01*
X006484Y019241D01*
X006384Y019140D01*
X006329Y019008D01*
X006329Y018866D01*
X006382Y018737D01*
X006237Y018737D01*
X006237Y020745D01*
X006359Y020789D01*
X006506Y020857D01*
X006646Y020938D01*
X006646Y020938D01*
X006779Y021031D01*
X006902Y021136D01*
X006902Y021136D01*
X006902Y021136D01*
X007015Y021252D01*
X007118Y021378D01*
X007208Y021512D01*
X007208Y021512D01*
X007286Y021654D01*
X007286Y021654D01*
X007287Y021658D01*
X007488Y021457D01*
X007667Y021457D01*
X007667Y021917D01*
X007707Y021917D01*
X007707Y021457D01*
X007886Y021457D01*
X008167Y021738D01*
X008167Y021917D01*
X007707Y021917D01*
X007707Y021957D01*
X007667Y021957D01*
X007667Y022417D01*
X007488Y022417D01*
X007465Y022394D01*
X007467Y022437D01*
X007465Y022480D01*
X007488Y022457D01*
X007667Y022457D01*
X007667Y022917D01*
X007707Y022917D01*
X007707Y022457D01*
X007886Y022457D01*
X008167Y022738D01*
X008167Y022917D01*
X007707Y022917D01*
X007707Y022957D01*
X008167Y022957D01*
X008167Y023136D01*
X007896Y023407D01*
X008478Y023407D01*
X008207Y023136D01*
X008207Y022738D01*
X008488Y022457D01*
X008886Y022457D01*
X009167Y022738D01*
X009167Y023136D01*
X008896Y023407D01*
X009478Y023407D01*
X009207Y023136D01*
X009207Y022738D01*
X009488Y022457D01*
X009886Y022457D01*
X010167Y022738D01*
X010167Y023136D01*
X009896Y023407D01*
X010478Y023407D01*
X010207Y023136D01*
X010207Y022738D01*
X010488Y022457D01*
X010886Y022457D01*
X011167Y022738D01*
X011167Y023136D01*
X010896Y023407D01*
X011478Y023407D01*
X011207Y023136D01*
X011207Y022738D01*
X011488Y022457D01*
X011886Y022457D01*
X012167Y022738D01*
X012167Y023136D01*
X011896Y023407D01*
X012478Y023407D01*
X012207Y023136D01*
X012207Y022751D01*
X012020Y022546D01*
X011957Y022482D01*
X011957Y022476D01*
X011957Y022346D01*
X011886Y022417D01*
X011488Y022417D01*
X011207Y022136D01*
X011207Y021738D01*
X011488Y021457D01*
X011886Y021457D01*
X011957Y021528D01*
X011957Y021099D01*
X011882Y021041D01*
X010032Y021041D01*
X009842Y021041D01*
X009576Y021041D01*
X009576Y021082D01*
X009470Y021188D01*
X008770Y021188D01*
X008665Y021082D01*
X008665Y020753D01*
X008604Y020814D01*
X007904Y020814D01*
X007798Y020708D01*
X007798Y020697D01*
X006934Y020697D01*
X006890Y020741D01*
X006758Y020795D01*
X006616Y020795D01*
X006484Y020741D01*
X006384Y020640D01*
X006329Y020508D01*
X006329Y020366D01*
X006384Y020234D01*
X006484Y020134D01*
X006616Y020079D01*
X006758Y020079D01*
X006890Y020134D01*
X006934Y020177D01*
X007798Y020177D01*
X007798Y020166D01*
X007904Y020060D01*
X008604Y020060D01*
X008665Y020121D01*
X008665Y020081D01*
X009101Y020081D01*
X009101Y020045D01*
X008665Y020045D01*
X008665Y019792D01*
X008769Y019687D01*
X008665Y019582D01*
X008665Y019253D01*
X008604Y019314D01*
X007904Y019314D01*
X007798Y019208D01*
X007798Y019197D01*
X006934Y019197D01*
X006395Y019151D02*
X006237Y019151D01*
X006237Y018993D02*
X006329Y018993D01*
X006342Y018834D02*
X006237Y018834D01*
X006237Y019310D02*
X007900Y019310D01*
X008608Y019310D02*
X008665Y019310D01*
X008665Y019468D02*
X006237Y019468D01*
X006237Y019627D02*
X008709Y019627D01*
X008671Y019785D02*
X006237Y019785D01*
X006237Y019944D02*
X008665Y019944D01*
X008665Y020102D02*
X008646Y020102D01*
X008254Y020437D02*
X006687Y020437D01*
X006358Y020578D02*
X006237Y020578D01*
X006237Y020420D02*
X006329Y020420D01*
X006372Y020261D02*
X006237Y020261D01*
X006237Y020102D02*
X006559Y020102D01*
X006815Y020102D02*
X007862Y020102D01*
X007827Y020737D02*
X006894Y020737D01*
X006779Y021031D02*
X006779Y021031D01*
X006805Y021054D02*
X008665Y021054D01*
X008665Y020895D02*
X006573Y020895D01*
X006506Y020857D02*
X006506Y020857D01*
X006480Y020737D02*
X006237Y020737D01*
X006359Y020789D02*
X006359Y020789D01*
X006976Y021212D02*
X011957Y021212D01*
X011957Y021371D02*
X007112Y021371D01*
X007118Y021378D02*
X007118Y021378D01*
X007015Y021252D02*
X007015Y021252D01*
X007217Y021529D02*
X007416Y021529D01*
X007667Y021529D02*
X007707Y021529D01*
X007707Y021688D02*
X007667Y021688D01*
X007667Y021846D02*
X007707Y021846D01*
X007707Y021957D02*
X008167Y021957D01*
X008167Y022136D01*
X007886Y022417D01*
X007707Y022417D01*
X007707Y021957D01*
X007707Y022005D02*
X007667Y022005D01*
X007667Y022164D02*
X007707Y022164D01*
X007707Y022322D02*
X007667Y022322D01*
X007667Y022481D02*
X007707Y022481D01*
X007707Y022639D02*
X007667Y022639D01*
X007667Y022798D02*
X007707Y022798D01*
X007707Y022956D02*
X008207Y022956D01*
X008207Y022798D02*
X008167Y022798D01*
X008068Y022639D02*
X008306Y022639D01*
X008465Y022481D02*
X007909Y022481D01*
X007981Y022322D02*
X008393Y022322D01*
X008488Y022417D02*
X008207Y022136D01*
X008207Y021738D01*
X008488Y021457D01*
X008886Y021457D01*
X009167Y021738D01*
X009167Y022136D01*
X008886Y022417D01*
X008488Y022417D01*
X008235Y022164D02*
X008139Y022164D01*
X008167Y022005D02*
X008207Y022005D01*
X008207Y021846D02*
X008167Y021846D01*
X008117Y021688D02*
X008257Y021688D01*
X008416Y021529D02*
X007958Y021529D01*
X008958Y021529D02*
X009416Y021529D01*
X009488Y021457D02*
X009207Y021738D01*
X009207Y022136D01*
X009488Y022417D01*
X009886Y022417D01*
X010167Y022136D01*
X010167Y021738D01*
X009886Y021457D01*
X009488Y021457D01*
X009257Y021688D02*
X009117Y021688D01*
X009167Y021846D02*
X009207Y021846D01*
X009207Y022005D02*
X009167Y022005D01*
X009139Y022164D02*
X009235Y022164D01*
X009393Y022322D02*
X008981Y022322D01*
X008909Y022481D02*
X009465Y022481D01*
X009306Y022639D02*
X009068Y022639D01*
X009167Y022798D02*
X009207Y022798D01*
X009207Y022956D02*
X009167Y022956D01*
X009167Y023115D02*
X009207Y023115D01*
X009345Y023273D02*
X009030Y023273D01*
X008345Y023273D02*
X008030Y023273D01*
X008167Y023115D02*
X008207Y023115D01*
X009909Y022481D02*
X010465Y022481D01*
X010488Y022417D02*
X010207Y022136D01*
X010207Y021738D01*
X010488Y021457D01*
X010886Y021457D01*
X011167Y021738D01*
X011167Y022136D01*
X010886Y022417D01*
X010488Y022417D01*
X010393Y022322D02*
X009981Y022322D01*
X010139Y022164D02*
X010235Y022164D01*
X010207Y022005D02*
X010167Y022005D01*
X010167Y021846D02*
X010207Y021846D01*
X010257Y021688D02*
X010117Y021688D01*
X009958Y021529D02*
X010416Y021529D01*
X010958Y021529D02*
X011416Y021529D01*
X011257Y021688D02*
X011117Y021688D01*
X011167Y021846D02*
X011207Y021846D01*
X011207Y022005D02*
X011167Y022005D01*
X011139Y022164D02*
X011235Y022164D01*
X011393Y022322D02*
X010981Y022322D01*
X010909Y022481D02*
X011465Y022481D01*
X011306Y022639D02*
X011068Y022639D01*
X011167Y022798D02*
X011207Y022798D01*
X011207Y022956D02*
X011167Y022956D01*
X011167Y023115D02*
X011207Y023115D01*
X011345Y023273D02*
X011030Y023273D01*
X010345Y023273D02*
X010030Y023273D01*
X010167Y023115D02*
X010207Y023115D01*
X010207Y022956D02*
X010167Y022956D01*
X010167Y022798D02*
X010207Y022798D01*
X010306Y022639D02*
X010068Y022639D01*
X011909Y022481D02*
X011957Y022481D01*
X012068Y022639D02*
X012105Y022639D01*
X012167Y022798D02*
X012207Y022798D01*
X012207Y022956D02*
X012167Y022956D01*
X012167Y023115D02*
X012207Y023115D01*
X012345Y023273D02*
X012030Y023273D01*
X013030Y023273D02*
X013345Y023273D01*
X013207Y023115D02*
X013167Y023115D01*
X013167Y022956D02*
X013207Y022956D01*
X013207Y022798D02*
X013167Y022798D01*
X013068Y022639D02*
X013306Y022639D01*
X013465Y022481D02*
X012909Y022481D01*
X012981Y022322D02*
X013393Y022322D01*
X013488Y022417D02*
X013207Y022136D01*
X013207Y021738D01*
X013488Y021457D01*
X013886Y021457D01*
X014167Y021738D01*
X014167Y022136D01*
X013886Y022417D01*
X013488Y022417D01*
X013235Y022164D02*
X013139Y022164D01*
X013167Y022005D02*
X013207Y022005D01*
X013207Y021846D02*
X013167Y021846D01*
X013117Y021688D02*
X013257Y021688D01*
X013416Y021529D02*
X012958Y021529D01*
X013958Y021529D02*
X014416Y021529D01*
X014488Y021457D02*
X014886Y021457D01*
X015167Y021738D01*
X015167Y022136D01*
X014886Y022417D01*
X014488Y022417D01*
X014207Y022136D01*
X014207Y021738D01*
X014488Y021457D01*
X014257Y021688D02*
X014117Y021688D01*
X014167Y021846D02*
X014207Y021846D01*
X014207Y022005D02*
X014167Y022005D01*
X014139Y022164D02*
X014235Y022164D01*
X014393Y022322D02*
X013981Y022322D01*
X013909Y022481D02*
X014465Y022481D01*
X014306Y022639D02*
X014068Y022639D01*
X014167Y022798D02*
X014207Y022798D01*
X014207Y022956D02*
X014167Y022956D01*
X014167Y023115D02*
X014207Y023115D01*
X014345Y023273D02*
X014030Y023273D01*
X015030Y023273D02*
X015345Y023273D01*
X015207Y023115D02*
X015167Y023115D01*
X015167Y022956D02*
X015207Y022956D01*
X015207Y022798D02*
X015167Y022798D01*
X015068Y022639D02*
X015306Y022639D01*
X015465Y022481D02*
X014909Y022481D01*
X014981Y022322D02*
X015393Y022322D01*
X015488Y022417D02*
X015207Y022136D01*
X015207Y021738D01*
X015488Y021457D01*
X015886Y021457D01*
X016167Y021738D01*
X016167Y022136D01*
X015886Y022417D01*
X015488Y022417D01*
X015235Y022164D02*
X015139Y022164D01*
X015167Y022005D02*
X015207Y022005D01*
X015207Y021846D02*
X015167Y021846D01*
X015117Y021688D02*
X015257Y021688D01*
X015416Y021529D02*
X014958Y021529D01*
X015958Y021529D02*
X016416Y021529D01*
X016488Y021457D02*
X016886Y021457D01*
X017167Y021738D01*
X017167Y022136D01*
X016886Y022417D01*
X016488Y022417D01*
X016207Y022136D01*
X016207Y021738D01*
X016488Y021457D01*
X016257Y021688D02*
X016117Y021688D01*
X016167Y021846D02*
X016207Y021846D01*
X016207Y022005D02*
X016167Y022005D01*
X016139Y022164D02*
X016235Y022164D01*
X016393Y022322D02*
X015981Y022322D01*
X015909Y022481D02*
X016465Y022481D01*
X016306Y022639D02*
X016068Y022639D01*
X016167Y022798D02*
X016207Y022798D01*
X016207Y022956D02*
X016167Y022956D01*
X016167Y023115D02*
X016207Y023115D01*
X016345Y023273D02*
X016030Y023273D01*
X017030Y023273D02*
X017345Y023273D01*
X017207Y023115D02*
X017167Y023115D01*
X017167Y022956D02*
X017207Y022956D01*
X017207Y022798D02*
X017167Y022798D01*
X017068Y022639D02*
X017306Y022639D01*
X017465Y022481D02*
X016909Y022481D01*
X016981Y022322D02*
X017393Y022322D01*
X017488Y022417D02*
X017207Y022136D01*
X017207Y021738D01*
X017488Y021457D01*
X017886Y021457D01*
X018167Y021738D01*
X018167Y022136D01*
X017886Y022417D01*
X017488Y022417D01*
X017235Y022164D02*
X017139Y022164D01*
X017167Y022005D02*
X017207Y022005D01*
X017207Y021846D02*
X017167Y021846D01*
X017117Y021688D02*
X017257Y021688D01*
X017416Y021529D02*
X016958Y021529D01*
X017958Y021529D02*
X018416Y021529D01*
X018488Y021457D02*
X018886Y021457D01*
X019167Y021738D01*
X019167Y022136D01*
X018886Y022417D01*
X018488Y022417D01*
X018207Y022136D01*
X018207Y021738D01*
X018488Y021457D01*
X018257Y021688D02*
X018117Y021688D01*
X018167Y021846D02*
X018207Y021846D01*
X018207Y022005D02*
X018167Y022005D01*
X018139Y022164D02*
X018235Y022164D01*
X018393Y022322D02*
X017981Y022322D01*
X017909Y022481D02*
X018465Y022481D01*
X018306Y022639D02*
X018068Y022639D01*
X018167Y022798D02*
X018207Y022798D01*
X018207Y022956D02*
X018167Y022956D01*
X018167Y023115D02*
X018207Y023115D01*
X018345Y023273D02*
X018030Y023273D01*
X019030Y023273D02*
X019345Y023273D01*
X019207Y023115D02*
X019167Y023115D01*
X019167Y022956D02*
X019207Y022956D01*
X019207Y022798D02*
X019167Y022798D01*
X019068Y022639D02*
X019306Y022639D01*
X019465Y022481D02*
X018909Y022481D01*
X018981Y022322D02*
X019393Y022322D01*
X019488Y022417D02*
X019207Y022136D01*
X019207Y021738D01*
X019488Y021457D01*
X019886Y021457D01*
X020167Y021738D01*
X020167Y022136D01*
X019886Y022417D01*
X019488Y022417D01*
X019235Y022164D02*
X019139Y022164D01*
X019167Y022005D02*
X019207Y022005D01*
X019207Y021846D02*
X019167Y021846D01*
X019117Y021688D02*
X019257Y021688D01*
X019416Y021529D02*
X018958Y021529D01*
X019958Y021529D02*
X020416Y021529D01*
X020488Y021457D02*
X020886Y021457D01*
X021167Y021738D01*
X021167Y022136D01*
X020886Y022417D01*
X020488Y022417D01*
X020207Y022136D01*
X020207Y021738D01*
X020488Y021457D01*
X020257Y021688D02*
X020117Y021688D01*
X020167Y021846D02*
X020207Y021846D01*
X020207Y022005D02*
X020167Y022005D01*
X020139Y022164D02*
X020235Y022164D01*
X020393Y022322D02*
X019981Y022322D01*
X019909Y022481D02*
X020465Y022481D01*
X020306Y022639D02*
X020068Y022639D01*
X020167Y022798D02*
X020207Y022798D01*
X020207Y022956D02*
X020167Y022956D01*
X020167Y023115D02*
X020207Y023115D01*
X020345Y023273D02*
X020030Y023273D01*
X021030Y023273D02*
X021345Y023273D01*
X021207Y023115D02*
X021167Y023115D01*
X021167Y022956D02*
X021207Y022956D01*
X021207Y022798D02*
X021167Y022798D01*
X021068Y022639D02*
X021306Y022639D01*
X021465Y022481D02*
X020909Y022481D01*
X020981Y022322D02*
X021393Y022322D01*
X021488Y022417D02*
X021207Y022136D01*
X021207Y021738D01*
X021488Y021457D01*
X021886Y021457D01*
X022167Y021738D01*
X022167Y022136D01*
X021886Y022417D01*
X021488Y022417D01*
X021235Y022164D02*
X021139Y022164D01*
X021167Y022005D02*
X021207Y022005D01*
X021207Y021846D02*
X021167Y021846D01*
X021117Y021688D02*
X021257Y021688D01*
X021416Y021529D02*
X020958Y021529D01*
X021958Y021529D02*
X022416Y021529D01*
X022488Y021457D02*
X022886Y021457D01*
X023167Y021738D01*
X023167Y022136D01*
X022886Y022417D01*
X022488Y022417D01*
X022207Y022136D01*
X022207Y021738D01*
X022488Y021457D01*
X022257Y021688D02*
X022117Y021688D01*
X022167Y021846D02*
X022207Y021846D01*
X022207Y022005D02*
X022167Y022005D01*
X022139Y022164D02*
X022235Y022164D01*
X022393Y022322D02*
X021981Y022322D01*
X021909Y022481D02*
X022465Y022481D01*
X022306Y022639D02*
X022068Y022639D01*
X022167Y022798D02*
X022207Y022798D01*
X022207Y022956D02*
X022167Y022956D01*
X022167Y023115D02*
X022207Y023115D01*
X022345Y023273D02*
X022030Y023273D01*
X023030Y023273D02*
X023345Y023273D01*
X023207Y023115D02*
X023167Y023115D01*
X023167Y022956D02*
X023207Y022956D01*
X023207Y022798D02*
X023167Y022798D01*
X023068Y022639D02*
X023306Y022639D01*
X023465Y022481D02*
X022909Y022481D01*
X022981Y022322D02*
X023393Y022322D01*
X023488Y022417D02*
X023207Y022136D01*
X023207Y021738D01*
X023488Y021457D01*
X023886Y021457D01*
X024167Y021738D01*
X024167Y022136D01*
X023886Y022417D01*
X023488Y022417D01*
X023235Y022164D02*
X023139Y022164D01*
X023167Y022005D02*
X023207Y022005D01*
X023207Y021846D02*
X023167Y021846D01*
X023117Y021688D02*
X023257Y021688D01*
X023416Y021529D02*
X022958Y021529D01*
X023958Y021529D02*
X024416Y021529D01*
X024488Y021457D02*
X024886Y021457D01*
X025167Y021738D01*
X025167Y022136D01*
X024886Y022417D01*
X024488Y022417D01*
X024207Y022136D01*
X024207Y021738D01*
X024488Y021457D01*
X024257Y021688D02*
X024117Y021688D01*
X024167Y021846D02*
X024207Y021846D01*
X024207Y022005D02*
X024167Y022005D01*
X024139Y022164D02*
X024235Y022164D01*
X024393Y022322D02*
X023981Y022322D01*
X023909Y022481D02*
X024465Y022481D01*
X024306Y022639D02*
X024068Y022639D01*
X024167Y022798D02*
X024207Y022798D01*
X024207Y022956D02*
X024167Y022956D01*
X024167Y023115D02*
X024207Y023115D01*
X024345Y023273D02*
X024030Y023273D01*
X025030Y023273D02*
X025345Y023273D01*
X025207Y023115D02*
X025167Y023115D01*
X025167Y022956D02*
X025207Y022956D01*
X025207Y022798D02*
X025167Y022798D01*
X025068Y022639D02*
X025306Y022639D01*
X025465Y022481D02*
X024909Y022481D01*
X024981Y022322D02*
X025393Y022322D01*
X025488Y022417D02*
X025207Y022136D01*
X025207Y021738D01*
X025488Y021457D01*
X025886Y021457D01*
X026167Y021738D01*
X026167Y022136D01*
X025886Y022417D01*
X025488Y022417D01*
X025235Y022164D02*
X025139Y022164D01*
X025167Y022005D02*
X025207Y022005D01*
X025207Y021846D02*
X025167Y021846D01*
X025117Y021688D02*
X025257Y021688D01*
X025416Y021529D02*
X024958Y021529D01*
X025958Y021529D02*
X026416Y021529D01*
X026488Y021457D02*
X026886Y021457D01*
X027167Y021738D01*
X027167Y022136D01*
X026886Y022417D01*
X026488Y022417D01*
X026207Y022136D01*
X026207Y021738D01*
X026488Y021457D01*
X026257Y021688D02*
X026117Y021688D01*
X026167Y021846D02*
X026207Y021846D01*
X026207Y022005D02*
X026167Y022005D01*
X026139Y022164D02*
X026235Y022164D01*
X026393Y022322D02*
X025981Y022322D01*
X025909Y022481D02*
X026465Y022481D01*
X026306Y022639D02*
X026068Y022639D01*
X026167Y022798D02*
X026207Y022798D01*
X026207Y022956D02*
X026167Y022956D01*
X026167Y023115D02*
X026207Y023115D01*
X026345Y023273D02*
X026030Y023273D01*
X027030Y023273D02*
X027345Y023273D01*
X027207Y023115D02*
X027167Y023115D01*
X027167Y022956D02*
X027207Y022956D01*
X027207Y022798D02*
X027167Y022798D01*
X027068Y022639D02*
X027306Y022639D01*
X027465Y022481D02*
X026909Y022481D01*
X026981Y022322D02*
X027393Y022322D01*
X027488Y022417D02*
X027207Y022136D01*
X027207Y021738D01*
X027488Y021457D01*
X027886Y021457D01*
X028167Y021738D01*
X028167Y022136D01*
X027886Y022417D01*
X027488Y022417D01*
X027235Y022164D02*
X027139Y022164D01*
X027167Y022005D02*
X027207Y022005D01*
X027207Y021846D02*
X027167Y021846D01*
X027117Y021688D02*
X027257Y021688D01*
X027416Y021529D02*
X026958Y021529D01*
X027958Y021529D02*
X028416Y021529D01*
X028488Y021457D02*
X028886Y021457D01*
X029167Y021738D01*
X029167Y022136D01*
X028886Y022417D01*
X028488Y022417D01*
X028207Y022136D01*
X028207Y021738D01*
X028488Y021457D01*
X028257Y021688D02*
X028117Y021688D01*
X028167Y021846D02*
X028207Y021846D01*
X028207Y022005D02*
X028167Y022005D01*
X028139Y022164D02*
X028235Y022164D01*
X028393Y022322D02*
X027981Y022322D01*
X027909Y022481D02*
X028465Y022481D01*
X028306Y022639D02*
X028068Y022639D01*
X028167Y022798D02*
X028207Y022798D01*
X028207Y022956D02*
X028167Y022956D01*
X028167Y023115D02*
X028207Y023115D01*
X028345Y023273D02*
X028030Y023273D01*
X029030Y023273D02*
X029345Y023273D01*
X029207Y023115D02*
X029167Y023115D01*
X029167Y022956D02*
X029207Y022956D01*
X029207Y022798D02*
X029167Y022798D01*
X029068Y022639D02*
X029306Y022639D01*
X029465Y022481D02*
X028909Y022481D01*
X028981Y022322D02*
X029393Y022322D01*
X029235Y022164D02*
X029139Y022164D01*
X029167Y022005D02*
X029207Y022005D01*
X029207Y021846D02*
X029167Y021846D01*
X029117Y021688D02*
X029257Y021688D01*
X029416Y021529D02*
X028958Y021529D01*
X029981Y022322D02*
X030317Y022322D01*
X030414Y022431D02*
X030414Y022431D01*
X030467Y022481D02*
X029909Y022481D01*
X030068Y022639D02*
X030658Y022639D01*
X030797Y022729D02*
X030797Y022729D01*
X030931Y022798D02*
X030167Y022798D01*
X030167Y022956D02*
X030943Y022956D01*
X030941Y022803D02*
X030941Y022803D01*
X031091Y022864D02*
X031091Y022864D01*
X030566Y023115D02*
X030167Y023115D01*
X030040Y023273D02*
X030030Y023273D01*
X030139Y022164D02*
X030200Y022164D01*
X027264Y019944D02*
X012917Y019944D01*
X012917Y019785D02*
X024111Y019785D01*
X023953Y019627D02*
X012917Y019627D01*
X012917Y019468D02*
X023794Y019468D01*
X023637Y019310D02*
X012785Y019310D01*
X012626Y019151D02*
X023637Y019151D01*
X023637Y018993D02*
X011747Y018993D01*
X011747Y018834D02*
X023637Y018834D01*
X023637Y018676D02*
X011359Y018676D01*
X011359Y018517D02*
X011263Y018517D01*
X011263Y018359D02*
X011359Y018359D01*
X011747Y018359D02*
X023637Y018359D01*
X023637Y018517D02*
X011747Y018517D01*
X011359Y019785D02*
X011263Y019785D01*
X011263Y019944D02*
X011359Y019944D01*
X011359Y020102D02*
X011263Y020102D01*
X011898Y021054D02*
X009576Y021054D01*
X009576Y020578D02*
X009707Y020578D01*
X009707Y020420D02*
X009491Y020420D01*
X009576Y020261D02*
X009788Y020261D01*
X009946Y020102D02*
X009576Y020102D01*
X009576Y019944D02*
X010127Y019944D01*
X010159Y019785D02*
X009569Y019785D01*
X007233Y017717D02*
X002467Y017717D01*
X002467Y018401D01*
X002484Y018384D01*
X002616Y018329D01*
X002677Y018329D01*
X002829Y018177D01*
X002877Y018177D01*
X002877Y018067D01*
X002983Y017962D01*
X003644Y017962D01*
X003687Y018005D01*
X003731Y017962D01*
X004392Y017962D01*
X004497Y018067D01*
X004497Y018137D01*
X005813Y018137D01*
X006813Y018137D01*
X007137Y017813D01*
X007137Y017813D01*
X007233Y017717D01*
X007226Y017724D02*
X002467Y017724D01*
X002467Y017883D02*
X007067Y017883D01*
X006909Y018041D02*
X004471Y018041D01*
X003313Y018437D02*
X002937Y018437D01*
X002687Y018687D01*
X002545Y018359D02*
X002467Y018359D01*
X002467Y018200D02*
X002806Y018200D01*
X002903Y018041D02*
X002467Y018041D01*
X002687Y020687D02*
X002937Y020937D01*
X003313Y020937D01*
X002877Y021197D02*
X002829Y021197D01*
X002677Y021045D01*
X002616Y021045D01*
X002484Y020991D01*
X002467Y020973D01*
X002467Y023407D01*
X004196Y023407D01*
X004126Y023292D01*
X004054Y023146D01*
X003997Y022995D01*
X003953Y022839D01*
X003924Y022679D01*
X003909Y022518D01*
X003909Y022356D01*
X003924Y022195D01*
X003953Y022035D01*
X003997Y021879D01*
X004054Y021728D01*
X004126Y021582D01*
X004210Y021444D01*
X004233Y021412D01*
X003731Y021412D01*
X003687Y021369D01*
X003644Y021412D01*
X002983Y021412D01*
X002877Y021307D01*
X002877Y021197D01*
X002877Y021212D02*
X002467Y021212D01*
X002467Y021054D02*
X002686Y021054D01*
X002467Y021371D02*
X002941Y021371D01*
X002467Y021529D02*
X004158Y021529D01*
X004210Y021444D02*
X004210Y021444D01*
X004074Y021688D02*
X002467Y021688D01*
X002467Y021846D02*
X004009Y021846D01*
X003961Y022005D02*
X002467Y022005D01*
X002467Y022164D02*
X003929Y022164D01*
X003912Y022322D02*
X002467Y022322D01*
X002467Y022481D02*
X003909Y022481D01*
X003920Y022639D02*
X002467Y022639D01*
X002467Y022798D02*
X003945Y022798D01*
X003986Y022956D02*
X002467Y022956D01*
X002467Y023115D02*
X004043Y023115D01*
X004117Y023273D02*
X002467Y023273D01*
X003685Y021371D02*
X003689Y021371D01*
X009389Y016932D02*
X009485Y016932D01*
X009485Y016773D02*
X009389Y016773D01*
X009912Y017249D02*
X017701Y017249D01*
X017543Y017407D02*
X009899Y017407D01*
X014324Y011541D02*
X014511Y011541D01*
X015261Y009480D02*
X015957Y009480D01*
X015957Y009322D02*
X015361Y009322D01*
X015361Y009163D02*
X015957Y009163D01*
X015957Y009004D02*
X015361Y009004D01*
X015361Y008370D02*
X016946Y008370D01*
X016957Y008212D02*
X015361Y008212D01*
X015361Y008053D02*
X016957Y008053D01*
X016957Y007895D02*
X015346Y007895D01*
X015361Y007736D02*
X016957Y007736D01*
X016957Y007578D02*
X015361Y007578D01*
X015286Y007419D02*
X016957Y007419D01*
X016957Y007260D02*
X015143Y007260D01*
X015247Y007102D02*
X016957Y007102D01*
X016957Y006943D02*
X015247Y006943D01*
X015247Y006785D02*
X016957Y006785D01*
X016957Y006626D02*
X015247Y006626D01*
X015247Y006468D02*
X016957Y006468D01*
X016957Y006309D02*
X016821Y006309D01*
X016913Y006151D02*
X016957Y006151D01*
X016957Y005992D02*
X016920Y005992D01*
X016957Y005834D02*
X016840Y005834D01*
X016707Y005516D02*
X016667Y005516D01*
X016667Y005358D02*
X016707Y005358D01*
X014811Y006311D02*
X014811Y006787D01*
X014811Y007563D01*
X014687Y007687D01*
X014748Y007687D01*
X014479Y007260D02*
X014395Y007260D01*
X013731Y007260D02*
X013167Y007260D01*
X013167Y007102D02*
X013627Y007102D01*
X013627Y006943D02*
X013167Y006943D01*
X014687Y006187D02*
X014687Y006062D01*
X014687Y006187D02*
X014811Y006311D01*
X018903Y004724D02*
X019472Y004724D01*
X019313Y004882D02*
X019061Y004882D01*
X019167Y005041D02*
X019207Y005041D01*
X019207Y005199D02*
X019167Y005199D01*
X019167Y005358D02*
X019207Y005358D01*
X019338Y005516D02*
X019036Y005516D01*
X019917Y005675D02*
X020457Y005675D01*
X020457Y005834D02*
X019917Y005834D01*
X019917Y005992D02*
X020457Y005992D01*
X020294Y006151D02*
X020080Y006151D01*
X020162Y006309D02*
X020212Y006309D01*
X020212Y006468D02*
X020162Y006468D01*
X020162Y006626D02*
X020212Y006626D01*
X020212Y006785D02*
X020162Y006785D01*
X020125Y006943D02*
X020249Y006943D01*
X020212Y007102D02*
X020162Y007102D01*
X020162Y007260D02*
X020212Y007260D01*
X020212Y007419D02*
X020162Y007419D01*
X020162Y007578D02*
X020212Y007578D01*
X020306Y007736D02*
X020068Y007736D01*
X019917Y007895D02*
X020457Y007895D01*
X020457Y008053D02*
X019917Y008053D01*
X019917Y008212D02*
X020457Y008212D01*
X020457Y008370D02*
X019917Y008370D01*
X021162Y007419D02*
X025127Y007419D01*
X025127Y007457D02*
X025127Y007135D01*
X025515Y007135D01*
X025515Y007562D01*
X025233Y007562D01*
X025127Y007457D01*
X025127Y007260D02*
X021162Y007260D01*
X021162Y007102D02*
X025515Y007102D01*
X025515Y007039D02*
X025127Y007039D01*
X025127Y006717D01*
X025233Y006612D01*
X025515Y006612D01*
X025515Y007039D01*
X025515Y006943D02*
X025611Y006943D01*
X025611Y006785D02*
X025515Y006785D01*
X025515Y006626D02*
X025611Y006626D01*
X025908Y006626D02*
X025966Y006626D01*
X025611Y007260D02*
X025515Y007260D01*
X025515Y007419D02*
X025611Y007419D01*
X025127Y006943D02*
X021125Y006943D01*
X021162Y006785D02*
X025127Y006785D01*
X025218Y006626D02*
X021162Y006626D01*
X021036Y005516D02*
X021338Y005516D01*
X021207Y005358D02*
X021167Y005358D01*
X021167Y005199D02*
X021207Y005199D01*
X021207Y005041D02*
X021167Y005041D01*
X021061Y004882D02*
X021313Y004882D01*
X021472Y004724D02*
X020903Y004724D01*
X020886Y004417D02*
X020488Y004417D01*
X020207Y004136D01*
X020207Y003738D01*
X020488Y003457D01*
X020886Y003457D01*
X021167Y003738D01*
X021167Y004136D01*
X020886Y004417D01*
X020896Y004407D02*
X021478Y004407D01*
X021488Y004417D02*
X021207Y004136D01*
X021207Y003738D01*
X021488Y003457D01*
X021886Y003457D01*
X022167Y003738D01*
X022167Y004136D01*
X021886Y004417D01*
X021488Y004417D01*
X021319Y004248D02*
X021055Y004248D01*
X021167Y004090D02*
X021207Y004090D01*
X021207Y003931D02*
X021167Y003931D01*
X021167Y003773D02*
X021207Y003773D01*
X021331Y003614D02*
X021043Y003614D01*
X021006Y003297D02*
X021368Y003297D01*
X021210Y003138D02*
X021165Y003138D01*
X021167Y002980D02*
X021207Y002980D01*
X021207Y002821D02*
X021167Y002821D01*
X021091Y002663D02*
X021283Y002663D01*
X021441Y002504D02*
X020933Y002504D01*
X020441Y002504D02*
X019933Y002504D01*
X020091Y002663D02*
X020283Y002663D01*
X020207Y002821D02*
X020167Y002821D01*
X020167Y002980D02*
X020207Y002980D01*
X020210Y003138D02*
X020165Y003138D01*
X020006Y003297D02*
X020368Y003297D01*
X020331Y003614D02*
X020043Y003614D01*
X020167Y003738D02*
X019886Y003457D01*
X019488Y003457D01*
X019207Y003738D01*
X019207Y004136D01*
X019488Y004417D01*
X019886Y004417D01*
X020167Y004136D01*
X020167Y003738D01*
X020167Y003773D02*
X020207Y003773D01*
X020207Y003931D02*
X020167Y003931D01*
X020167Y004090D02*
X020207Y004090D01*
X020319Y004248D02*
X020055Y004248D01*
X019896Y004407D02*
X020478Y004407D01*
X020472Y004724D02*
X019903Y004724D01*
X020061Y004882D02*
X020313Y004882D01*
X020207Y005041D02*
X020167Y005041D01*
X020167Y005199D02*
X020207Y005199D01*
X020207Y005358D02*
X020167Y005358D01*
X020036Y005516D02*
X020338Y005516D01*
X019478Y004407D02*
X018896Y004407D01*
X019055Y004248D02*
X019319Y004248D01*
X019207Y004090D02*
X019167Y004090D01*
X019167Y003931D02*
X019207Y003931D01*
X019207Y003773D02*
X019167Y003773D01*
X019043Y003614D02*
X019331Y003614D01*
X019368Y003297D02*
X019006Y003297D01*
X019165Y003138D02*
X019210Y003138D01*
X019207Y002980D02*
X019167Y002980D01*
X019167Y002821D02*
X019207Y002821D01*
X019283Y002663D02*
X019091Y002663D01*
X018933Y002504D02*
X019441Y002504D01*
X021933Y002504D02*
X022441Y002504D01*
X022283Y002663D02*
X022091Y002663D01*
X022167Y002821D02*
X022207Y002821D01*
X022207Y002980D02*
X022167Y002980D01*
X022165Y003138D02*
X022210Y003138D01*
X022368Y003297D02*
X022006Y003297D01*
X022043Y003614D02*
X022331Y003614D01*
X022207Y003738D02*
X022488Y003457D01*
X022886Y003457D01*
X023167Y003738D01*
X023167Y004136D01*
X022886Y004417D01*
X022488Y004417D01*
X022207Y004136D01*
X022207Y003738D01*
X022207Y003773D02*
X022167Y003773D01*
X022167Y003931D02*
X022207Y003931D01*
X022207Y004090D02*
X022167Y004090D01*
X022055Y004248D02*
X022319Y004248D01*
X022478Y004407D02*
X021896Y004407D01*
X022896Y004407D02*
X023478Y004407D01*
X023488Y004417D02*
X023207Y004136D01*
X023207Y003738D01*
X023488Y003457D01*
X023886Y003457D01*
X024167Y003738D01*
X024167Y004136D01*
X023886Y004417D01*
X023488Y004417D01*
X023319Y004248D02*
X023055Y004248D01*
X023167Y004090D02*
X023207Y004090D01*
X023207Y003931D02*
X023167Y003931D01*
X023167Y003773D02*
X023207Y003773D01*
X023331Y003614D02*
X023043Y003614D01*
X023006Y003297D02*
X023368Y003297D01*
X023210Y003138D02*
X023165Y003138D01*
X023167Y002980D02*
X023207Y002980D01*
X023207Y002821D02*
X023167Y002821D01*
X023091Y002663D02*
X023283Y002663D01*
X023441Y002504D02*
X022933Y002504D01*
X023933Y002504D02*
X024441Y002504D01*
X024283Y002663D02*
X024091Y002663D01*
X024167Y002821D02*
X024207Y002821D01*
X024207Y002980D02*
X024167Y002980D01*
X024165Y003138D02*
X024210Y003138D01*
X024368Y003297D02*
X024006Y003297D01*
X024043Y003614D02*
X024331Y003614D01*
X024207Y003738D02*
X024488Y003457D01*
X024886Y003457D01*
X025167Y003738D01*
X025167Y004136D01*
X024886Y004417D01*
X024488Y004417D01*
X024207Y004136D01*
X024207Y003738D01*
X024207Y003773D02*
X024167Y003773D01*
X024167Y003931D02*
X024207Y003931D01*
X024207Y004090D02*
X024167Y004090D01*
X024055Y004248D02*
X024319Y004248D01*
X024478Y004407D02*
X023896Y004407D01*
X024896Y004407D02*
X025478Y004407D01*
X025488Y004417D02*
X025207Y004136D01*
X025207Y003738D01*
X025488Y003457D01*
X025886Y003457D01*
X026167Y003738D01*
X026167Y004136D01*
X025886Y004417D01*
X025488Y004417D01*
X025319Y004248D02*
X025055Y004248D01*
X025167Y004090D02*
X025207Y004090D01*
X025207Y003931D02*
X025167Y003931D01*
X025167Y003773D02*
X025207Y003773D01*
X025331Y003614D02*
X025043Y003614D01*
X025006Y003297D02*
X025368Y003297D01*
X025210Y003138D02*
X025165Y003138D01*
X025167Y002980D02*
X025207Y002980D01*
X025207Y002821D02*
X025167Y002821D01*
X025091Y002663D02*
X025283Y002663D01*
X025441Y002504D02*
X024933Y002504D01*
X025933Y002504D02*
X026441Y002504D01*
X026283Y002663D02*
X026091Y002663D01*
X026167Y002821D02*
X026207Y002821D01*
X026207Y002980D02*
X026167Y002980D01*
X026165Y003138D02*
X026210Y003138D01*
X026368Y003297D02*
X026006Y003297D01*
X026043Y003614D02*
X026331Y003614D01*
X026207Y003738D02*
X026488Y003457D01*
X026886Y003457D01*
X027167Y003738D01*
X027167Y004136D01*
X026886Y004417D01*
X026488Y004417D01*
X026207Y004136D01*
X026207Y003738D01*
X026207Y003773D02*
X026167Y003773D01*
X026167Y003931D02*
X026207Y003931D01*
X026207Y004090D02*
X026167Y004090D01*
X026055Y004248D02*
X026319Y004248D01*
X026478Y004407D02*
X025896Y004407D01*
X026896Y004407D02*
X027478Y004407D01*
X027488Y004417D02*
X027207Y004136D01*
X027207Y003738D01*
X027488Y003457D01*
X027886Y003457D01*
X028167Y003738D01*
X028167Y004136D01*
X027886Y004417D01*
X027488Y004417D01*
X027319Y004248D02*
X027055Y004248D01*
X027167Y004090D02*
X027207Y004090D01*
X027207Y003931D02*
X027167Y003931D01*
X027167Y003773D02*
X027207Y003773D01*
X027331Y003614D02*
X027043Y003614D01*
X027006Y003297D02*
X027368Y003297D01*
X027210Y003138D02*
X027165Y003138D01*
X027167Y002980D02*
X027207Y002980D01*
X027207Y002821D02*
X027167Y002821D01*
X027091Y002663D02*
X027283Y002663D01*
X027441Y002504D02*
X026933Y002504D01*
X027933Y002504D02*
X028441Y002504D01*
X028283Y002663D02*
X028091Y002663D01*
X028167Y002821D02*
X028207Y002821D01*
X028207Y002957D02*
X028667Y002957D01*
X028667Y003417D01*
X028488Y003417D01*
X028207Y003136D01*
X028207Y002957D01*
X028207Y002980D02*
X028167Y002980D01*
X028165Y003138D02*
X028210Y003138D01*
X028368Y003297D02*
X028006Y003297D01*
X028043Y003614D02*
X028331Y003614D01*
X028207Y003738D02*
X028488Y003457D01*
X028667Y003457D01*
X028667Y003917D01*
X028707Y003917D01*
X028707Y003457D01*
X028886Y003457D01*
X029167Y003738D01*
X029167Y003917D01*
X028707Y003917D01*
X028707Y003957D01*
X029167Y003957D01*
X029167Y004136D01*
X028886Y004417D01*
X028707Y004417D01*
X028707Y003957D01*
X028667Y003957D01*
X028667Y003917D01*
X028207Y003917D01*
X028207Y003738D01*
X028207Y003773D02*
X028167Y003773D01*
X028167Y003931D02*
X028667Y003931D01*
X028667Y003957D02*
X028207Y003957D01*
X028207Y004136D01*
X028488Y004417D01*
X028667Y004417D01*
X028667Y003957D01*
X028707Y003931D02*
X029667Y003931D01*
X029667Y003917D02*
X029207Y003917D01*
X029207Y003738D01*
X029488Y003457D01*
X029667Y003457D01*
X029667Y003917D01*
X029667Y003957D02*
X029207Y003957D01*
X029207Y004136D01*
X029488Y004417D01*
X029667Y004417D01*
X029667Y003957D01*
X029667Y004090D02*
X029707Y004090D01*
X029707Y004248D02*
X029667Y004248D01*
X029667Y004407D02*
X029707Y004407D01*
X029896Y004407D02*
X029931Y004407D01*
X029478Y004407D02*
X028896Y004407D01*
X028707Y004407D02*
X028667Y004407D01*
X028667Y004248D02*
X028707Y004248D01*
X028707Y004090D02*
X028667Y004090D01*
X028667Y003773D02*
X028707Y003773D01*
X028707Y003614D02*
X028667Y003614D01*
X028707Y003417D02*
X028707Y002957D01*
X029167Y002957D01*
X029167Y003136D01*
X028886Y003417D01*
X028707Y003417D01*
X028707Y003297D02*
X028667Y003297D01*
X028667Y003138D02*
X028707Y003138D01*
X028707Y002980D02*
X028667Y002980D01*
X029006Y003297D02*
X029368Y003297D01*
X029488Y003417D02*
X029207Y003136D01*
X029207Y002957D01*
X029667Y002957D01*
X029667Y003417D01*
X029488Y003417D01*
X029667Y003297D02*
X029707Y003297D01*
X029707Y003417D02*
X029707Y002957D01*
X030167Y002957D01*
X030167Y003136D01*
X029886Y003417D01*
X029707Y003417D01*
X029707Y003614D02*
X029667Y003614D01*
X029667Y003773D02*
X029707Y003773D01*
X030043Y003614D02*
X030269Y003614D01*
X030306Y003564D02*
X030306Y003564D01*
X030210Y003694D02*
X030210Y003694D01*
X030006Y003297D02*
X030578Y003297D01*
X030533Y003332D02*
X030533Y003332D01*
X030661Y003233D02*
X030661Y003233D01*
X030797Y003146D02*
X030797Y003146D01*
X030811Y003138D02*
X030165Y003138D01*
X030167Y002980D02*
X031072Y002980D01*
X031091Y003010D02*
X031091Y003010D01*
X030941Y003071D02*
X030941Y003071D01*
X030724Y002821D02*
X030167Y002821D01*
X030091Y002663D02*
X030272Y002663D01*
X029707Y002980D02*
X029667Y002980D01*
X029667Y003138D02*
X029707Y003138D01*
X029210Y003138D02*
X029165Y003138D01*
X029167Y002980D02*
X029207Y002980D01*
X029207Y002821D02*
X029167Y002821D01*
X029091Y002663D02*
X029283Y002663D01*
X029441Y002504D02*
X028933Y002504D01*
X029043Y003614D02*
X029331Y003614D01*
X029207Y003773D02*
X029167Y003773D01*
X029167Y004090D02*
X029207Y004090D01*
X029319Y004248D02*
X029055Y004248D01*
X028478Y004407D02*
X027896Y004407D01*
X028055Y004248D02*
X028319Y004248D01*
X028207Y004090D02*
X028167Y004090D01*
X025611Y008687D02*
X025515Y008687D01*
X025515Y008846D02*
X025611Y008846D01*
X025611Y009004D02*
X025515Y009004D01*
X025901Y009004D02*
X025973Y009004D01*
X026649Y009004D02*
X027212Y009004D01*
X027639Y009004D02*
X027735Y009004D01*
X027735Y009163D02*
X027639Y009163D01*
X027714Y008846D02*
X026747Y008846D01*
X027687Y009937D02*
X027687Y010061D01*
X028162Y010273D02*
X033657Y010273D01*
X033657Y010431D02*
X028123Y010431D01*
X026060Y011383D02*
X026014Y011383D01*
X025711Y011383D02*
X025615Y011383D01*
X025615Y011541D02*
X025711Y011541D01*
X025711Y011700D02*
X025615Y011700D01*
X025615Y011858D02*
X024237Y011858D01*
X024237Y011700D02*
X025227Y011700D01*
X025227Y011541D02*
X024237Y011541D01*
X024237Y011383D02*
X025312Y011383D01*
X025227Y012017D02*
X024237Y012017D01*
X024237Y012175D02*
X025227Y012175D01*
X025615Y012175D02*
X025711Y012175D01*
X025711Y012017D02*
X025615Y012017D01*
X025615Y012968D02*
X025711Y012968D01*
X025711Y013127D02*
X025615Y013127D01*
X025615Y013285D02*
X025711Y013285D01*
X025711Y013444D02*
X025615Y013444D01*
X025615Y013602D02*
X025711Y013602D01*
X025711Y013761D02*
X025615Y013761D01*
X025281Y013761D02*
X024237Y013761D01*
X024237Y013919D02*
X027212Y013919D01*
X027212Y013761D02*
X026793Y013761D01*
X026847Y013602D02*
X027721Y013602D01*
X027735Y013761D02*
X027639Y013761D01*
X027639Y013919D02*
X027735Y013919D01*
X027735Y014015D02*
X027735Y014111D01*
X028048Y014111D01*
X028048Y014080D01*
X028485Y014080D01*
X028485Y014043D01*
X028048Y014043D01*
X028048Y014015D01*
X027735Y014015D01*
X027735Y014078D02*
X028485Y014078D01*
X027639Y014078D02*
X024252Y014078D01*
X024411Y014236D02*
X027212Y014236D01*
X027213Y014395D02*
X024569Y014395D01*
X024355Y015029D02*
X024237Y015029D01*
X024237Y015188D02*
X027258Y015188D01*
X027687Y014812D02*
X027687Y014811D01*
X025711Y016139D02*
X025615Y016139D01*
X025615Y016297D02*
X025711Y016297D01*
X025711Y016456D02*
X025615Y016456D01*
X025615Y016615D02*
X025711Y016615D01*
X025711Y016773D02*
X025615Y016773D01*
X025615Y016932D02*
X025711Y016932D01*
X025711Y017724D02*
X025615Y017724D01*
X025615Y017883D02*
X025711Y017883D01*
X025615Y018041D02*
X024237Y018041D01*
X024237Y017883D02*
X025227Y017883D01*
X025227Y017724D02*
X024237Y017724D01*
X024237Y017566D02*
X028048Y017566D01*
X028057Y017724D02*
X028116Y017724D01*
X027817Y017724D02*
X026847Y017724D01*
X026847Y018359D02*
X027727Y018359D01*
X027735Y018517D02*
X027639Y018517D01*
X027639Y018676D02*
X027735Y018676D01*
X027735Y018765D02*
X027735Y018861D01*
X028048Y018861D01*
X028048Y018830D01*
X028485Y018830D01*
X028485Y018793D01*
X028048Y018793D01*
X028048Y018765D01*
X027735Y018765D01*
X027735Y018834D02*
X028048Y018834D01*
X027639Y018834D02*
X024237Y018834D01*
X024237Y018676D02*
X027212Y018676D01*
X027212Y018517D02*
X026787Y018517D01*
X027212Y018993D02*
X024237Y018993D01*
X024325Y019151D02*
X027220Y019151D01*
X027687Y019561D02*
X027687Y019562D01*
X027812Y019437D01*
X025711Y018517D02*
X025615Y018517D01*
X025615Y018359D02*
X025711Y018359D01*
X025711Y018200D02*
X025615Y018200D01*
X025227Y018200D02*
X024237Y018200D01*
X024237Y018359D02*
X025227Y018359D01*
X025287Y018517D02*
X024237Y018517D01*
X024237Y017407D02*
X028048Y017407D01*
X028048Y017249D02*
X024237Y017249D01*
X024237Y013602D02*
X025227Y013602D01*
X025227Y013444D02*
X024237Y013444D01*
X024237Y013285D02*
X025227Y013285D01*
X025227Y013127D02*
X024237Y013127D01*
X024237Y012968D02*
X025227Y012968D01*
X021637Y010431D02*
X020699Y010431D01*
X020789Y010273D02*
X021677Y010273D01*
X021836Y010114D02*
X020794Y010114D01*
X020853Y009956D02*
X021994Y009956D01*
X022153Y009797D02*
X020917Y009797D01*
X020917Y009639D02*
X022311Y009639D01*
X022526Y010273D02*
X023599Y010273D01*
X030934Y010114D02*
X033657Y010114D01*
X033657Y009956D02*
X031093Y009956D01*
X031251Y009797D02*
X031377Y009797D01*
X031312Y009437D02*
X031187Y009437D01*
X032561Y009437D02*
X033187Y009437D01*
X033437Y009187D01*
X033650Y009480D02*
X033657Y009480D01*
X033657Y009639D02*
X033353Y009639D01*
X033657Y009797D02*
X032997Y009797D01*
X030254Y017249D02*
X029785Y017249D01*
X010423Y006626D02*
X007428Y006626D01*
X006695Y006626D02*
X006680Y006626D01*
X006313Y006187D02*
X005437Y006187D01*
X005100Y006309D02*
X002467Y006309D01*
X002467Y006151D02*
X005079Y006151D01*
X005130Y005992D02*
X002467Y005992D01*
X002467Y005834D02*
X005355Y005834D01*
X005519Y005834D02*
X005877Y005834D01*
X005877Y006468D02*
X005663Y006468D01*
X005947Y006626D02*
X002467Y006626D01*
X002467Y006468D02*
X005211Y006468D01*
X005405Y005194D02*
X005405Y005194D01*
X005448Y005199D02*
X002467Y005199D01*
X002467Y005041D02*
X004917Y005041D01*
X004941Y005053D02*
X004941Y005053D01*
X004797Y004979D02*
X004797Y004979D01*
X004649Y004882D02*
X002467Y004882D01*
X002467Y004724D02*
X004460Y004724D01*
X004414Y004681D02*
X004414Y004681D01*
X004311Y004565D02*
X002467Y004565D01*
X002467Y004407D02*
X004196Y004407D01*
X004210Y004430D02*
X004210Y004430D01*
X004306Y004560D02*
X004306Y004560D01*
X004104Y004248D02*
X002467Y004248D01*
X002467Y004090D02*
X004033Y004090D01*
X004054Y004146D02*
X004054Y004146D01*
X003979Y003931D02*
X002467Y003931D01*
X002467Y003773D02*
X003941Y003773D01*
X003918Y003614D02*
X002467Y003614D01*
X002467Y003455D02*
X003909Y003455D01*
X003914Y003297D02*
X002467Y003297D01*
X002467Y003138D02*
X003934Y003138D01*
X003969Y002980D02*
X002467Y002980D01*
X002467Y002821D02*
X004019Y002821D01*
X004086Y002663D02*
X002467Y002663D01*
X002467Y002504D02*
X004173Y002504D01*
X006902Y004738D02*
X006902Y004738D01*
X006916Y004724D02*
X007571Y004724D01*
X007583Y004712D02*
X007865Y004712D01*
X007865Y005139D01*
X007477Y005139D01*
X007477Y004817D01*
X007583Y004712D01*
X007477Y004882D02*
X006723Y004882D01*
X006646Y004936D02*
X006646Y004936D01*
X006506Y005017D02*
X006506Y005017D01*
X006455Y005041D02*
X007477Y005041D01*
X007477Y005235D02*
X007865Y005235D01*
X007865Y005662D01*
X007583Y005662D01*
X007477Y005557D01*
X007477Y005235D01*
X007477Y005358D02*
X002467Y005358D01*
X002467Y005516D02*
X007477Y005516D01*
X007865Y005516D02*
X007961Y005516D01*
X007961Y005358D02*
X007865Y005358D01*
X007865Y005199D02*
X005927Y005199D01*
X005889Y005206D02*
X005889Y005206D01*
X006049Y005180D02*
X006049Y005180D01*
X006206Y005140D02*
X006206Y005140D01*
X007015Y004622D02*
X007015Y004622D01*
X007062Y004565D02*
X008361Y004565D01*
X008361Y004407D02*
X007896Y004407D01*
X007886Y004417D02*
X007707Y004417D01*
X007707Y003957D01*
X008167Y003957D01*
X008167Y004136D01*
X007886Y004417D01*
X007707Y004407D02*
X007667Y004407D01*
X007667Y004248D02*
X007707Y004248D01*
X007707Y004090D02*
X007667Y004090D01*
X007707Y003931D02*
X008207Y003931D01*
X008207Y003773D02*
X008167Y003773D01*
X008043Y003614D02*
X008331Y003614D01*
X008387Y003455D02*
X007466Y003455D01*
X007707Y003417D02*
X007707Y002957D01*
X008167Y002957D01*
X008167Y003136D01*
X007886Y003417D01*
X007707Y003417D01*
X007707Y003297D02*
X007667Y003297D01*
X007667Y003138D02*
X007707Y003138D01*
X007707Y002980D02*
X007667Y002980D01*
X008006Y003297D02*
X008368Y003297D01*
X008210Y003138D02*
X008165Y003138D01*
X008167Y002980D02*
X008207Y002980D01*
X008207Y002821D02*
X008167Y002821D01*
X008091Y002663D02*
X008283Y002663D01*
X008441Y002504D02*
X007933Y002504D01*
X007707Y003614D02*
X007667Y003614D01*
X007667Y003773D02*
X007707Y003773D01*
X008167Y004090D02*
X008207Y004090D01*
X008319Y004248D02*
X008055Y004248D01*
X007961Y004724D02*
X007865Y004724D01*
X007865Y004882D02*
X007961Y004882D01*
X007961Y005041D02*
X007865Y005041D01*
X008255Y004724D02*
X008319Y004724D01*
X008961Y004407D02*
X009478Y004407D01*
X009319Y004248D02*
X009055Y004248D01*
X009167Y004090D02*
X009207Y004090D01*
X009207Y003931D02*
X009167Y003931D01*
X009167Y003773D02*
X009207Y003773D01*
X008687Y003937D02*
X008661Y003963D01*
X007478Y004407D02*
X007178Y004407D01*
X007118Y004496D02*
X007118Y004496D01*
X007270Y004248D02*
X007319Y004248D01*
X008361Y005675D02*
X002467Y005675D01*
X005091Y005114D02*
X005091Y005114D01*
X005246Y005162D02*
X005246Y005162D01*
X007497Y005834D02*
X007616Y005834D01*
X008917Y006785D02*
X008957Y006785D01*
X008957Y006943D02*
X008917Y006943D01*
X008917Y007102D02*
X008957Y007102D01*
X009514Y006785D02*
X010264Y006785D01*
X010106Y006943D02*
X009672Y006943D01*
X009717Y007102D02*
X009947Y007102D01*
X009788Y007260D02*
X009717Y007260D01*
D19*
X010437Y006062D03*
X013562Y006062D03*
X016562Y006062D03*
X017687Y006062D03*
X017187Y003437D03*
X020187Y003437D03*
X022187Y003437D03*
X024187Y003437D03*
X026187Y003437D03*
X025937Y006187D03*
X027937Y007062D03*
X027937Y008562D03*
X025937Y009437D03*
X025937Y010937D03*
X027937Y011812D03*
X027937Y013312D03*
X025937Y014187D03*
X025937Y015687D03*
X027937Y016562D03*
X027937Y018062D03*
X026687Y018937D03*
X030437Y018437D03*
X030437Y016937D03*
X033437Y016687D03*
X033437Y015187D03*
X033437Y013937D03*
X033437Y011937D03*
X033437Y010687D03*
X033437Y009187D03*
X033437Y007187D03*
X033187Y006187D03*
X030437Y007437D03*
X030187Y006187D03*
X029687Y004937D03*
X030437Y008937D03*
X030437Y012187D03*
X030437Y013687D03*
X033437Y018687D03*
X033187Y019687D03*
X029187Y022437D03*
X026187Y022437D03*
X023187Y022437D03*
X021187Y022437D03*
X019187Y022437D03*
X017187Y022437D03*
X013187Y022437D03*
X010187Y022437D03*
X011937Y020187D03*
X011937Y018687D03*
X008437Y017187D03*
X007687Y018437D03*
X006687Y018937D03*
X006437Y017937D03*
X004937Y017937D03*
X002687Y017937D03*
X002687Y018687D03*
X002687Y020687D03*
X002687Y021687D03*
X003937Y021687D03*
X003687Y023187D03*
X002687Y023187D03*
X006687Y020437D03*
X007687Y019687D03*
X008437Y015687D03*
X008437Y013687D03*
X010937Y012687D03*
X012937Y012487D03*
X012937Y011487D03*
X013437Y010687D03*
X014187Y010687D03*
X016187Y010687D03*
X016187Y011937D03*
X019437Y009687D03*
X020437Y010187D03*
X011937Y010687D03*
X010937Y010687D03*
X010937Y009187D03*
X009937Y009187D03*
X005437Y006187D03*
X002687Y006187D03*
X002687Y004187D03*
X002687Y002687D03*
X002687Y008187D03*
X002687Y009937D03*
X004937Y009937D03*
D20*
X005937Y009437D02*
X005937Y007937D01*
X006187Y007687D01*
X006937Y007687D01*
X009687Y007687D01*
X011187Y006187D01*
X011187Y002687D01*
X011437Y002437D01*
X017437Y002437D01*
X017687Y002687D01*
X017687Y002937D01*
X017687Y003937D02*
X017687Y004087D01*
X017187Y004537D01*
X017187Y008437D01*
X016987Y008687D01*
X016437Y008687D01*
X016187Y008937D01*
X016187Y010687D01*
X014937Y011161D02*
X014937Y011187D01*
X015937Y012187D02*
X016187Y011937D01*
X015937Y012187D02*
X013711Y012187D01*
X013711Y011687D02*
X013337Y011687D01*
X013087Y011937D01*
X012637Y011937D01*
X012387Y012187D01*
X011663Y012187D01*
X011663Y011687D02*
X010437Y011687D01*
X009937Y011187D01*
X009937Y009937D01*
X009687Y009687D01*
X006187Y009687D01*
X005937Y009437D01*
X006937Y008687D02*
X009687Y008687D01*
X010187Y008187D01*
X011626Y008187D01*
X011437Y008187D01*
X011626Y007687D02*
X011937Y007687D01*
X012187Y007437D01*
X012187Y003687D01*
X012437Y003437D01*
X015187Y003437D01*
X015687Y002937D01*
X015687Y003937D02*
X014937Y004687D01*
X013187Y004687D01*
X012937Y004937D01*
X012937Y008887D01*
X012937Y011487D01*
X012387Y011187D02*
X011663Y011187D01*
X011637Y011187D01*
X012387Y011187D02*
X012687Y010887D01*
X012687Y003937D01*
X014748Y008687D02*
X016437Y008687D01*
X014987Y008687D02*
X014748Y008687D01*
X014748Y009187D02*
X013187Y009187D01*
X012937Y008937D01*
X012937Y008887D01*
X012937Y012487D02*
X013137Y012687D01*
X013711Y012687D01*
X019437Y009687D02*
X019687Y009437D01*
X019687Y007311D01*
X020687Y007311D02*
X020687Y009787D01*
X020437Y010187D01*
X020687Y006563D02*
X020687Y005187D01*
X019687Y005187D02*
X019687Y006563D01*
X026311Y007087D02*
X027987Y007087D01*
X027962Y007062D01*
X027937Y007062D01*
X027938Y007063D01*
X028504Y007063D01*
X028504Y008563D02*
X027938Y008563D01*
X027937Y008562D01*
X027937Y008487D01*
X027887Y008537D01*
X026311Y008537D01*
X026411Y011837D02*
X027887Y011837D01*
X027937Y011787D01*
X027937Y011812D01*
X027938Y011813D01*
X028504Y011813D01*
X028504Y013313D02*
X027938Y013313D01*
X027937Y013312D01*
X027962Y013312D01*
X027937Y013337D01*
X026411Y013337D01*
X027962Y013312D02*
X027987Y013287D01*
X027937Y016537D02*
X026411Y016537D01*
X027937Y016562D02*
X027937Y016537D01*
X027937Y016562D02*
X027938Y016563D01*
X028504Y016563D01*
X028504Y018063D02*
X027938Y018063D01*
X027937Y018062D01*
X027937Y018037D01*
X027887Y018087D01*
X026411Y018087D01*
X027937Y018037D02*
X027987Y017987D01*
X012687Y019537D02*
X012461Y019311D01*
X009937Y019311D01*
X009937Y018937D01*
X010187Y018687D01*
X010563Y018687D01*
X009937Y019311D02*
X009120Y019311D01*
X010187Y020187D02*
X009937Y020437D01*
X009937Y020811D01*
X011961Y020811D01*
X012187Y020987D01*
X012187Y022387D01*
X012687Y022937D01*
X012687Y021937D02*
X012687Y019537D01*
X010563Y020187D02*
X010187Y020187D01*
X009937Y020811D02*
X009120Y020811D01*
D21*
X005937Y020687D02*
X005937Y018437D01*
X004061Y018437D01*
X003937Y018437D01*
X005937Y018437D02*
X006937Y018437D01*
X007437Y017937D01*
X009437Y017937D01*
X009437Y017811D02*
X017563Y017811D01*
X018437Y016937D01*
X018437Y013937D01*
X018687Y013687D01*
X021562Y013687D01*
X021937Y013312D01*
X021937Y010437D01*
X022437Y009937D01*
X023687Y009937D01*
X023937Y010187D01*
X023937Y014187D01*
X023937Y019187D01*
X024311Y019561D01*
X027687Y019561D01*
X027812Y019437D02*
X030687Y019437D01*
X030937Y019187D01*
X031187Y018937D01*
X031813Y018937D01*
X030937Y019187D02*
X030937Y016687D01*
X031187Y016437D01*
X031813Y016437D01*
X030687Y014687D02*
X027812Y014687D01*
X027687Y014812D01*
X024562Y014812D01*
X023937Y014187D01*
X018437Y013937D02*
X018437Y010787D01*
X018437Y006437D01*
X018062Y006062D01*
X017687Y006062D01*
X016562Y006062D02*
X014687Y006062D01*
X013562Y006062D01*
X010437Y006062D02*
X008937Y006062D01*
X007812Y006062D01*
X007687Y006187D01*
X007061Y006187D01*
X008661Y005786D02*
X008661Y005187D01*
X008661Y003963D01*
X008687Y003937D02*
X008737Y003987D01*
X008687Y003937D02*
X008687Y002937D01*
X008661Y005786D02*
X008937Y006062D01*
X023687Y009937D02*
X027687Y009937D01*
X030687Y009937D01*
X030937Y009687D01*
X031187Y009437D01*
X031813Y009437D01*
X030937Y009687D02*
X030937Y007187D01*
X031187Y006937D01*
X031813Y006937D01*
X031813Y011687D02*
X031187Y011687D01*
X030937Y011937D01*
X030937Y014437D01*
X031187Y014187D01*
X031813Y014187D01*
X030937Y014437D02*
X030687Y014687D01*
X005937Y020687D02*
X005687Y020937D01*
X004061Y020937D01*
X003937Y020937D01*
M02*
