%
M48
M72
T01C0.0236
T02C0.0360
T03C0.0400
T04C0.1260
%
T01
X2687Y2687
X2687Y4187
X2687Y6187
X5437Y6187
X2687Y8187
X2687Y9937
X4937Y9937
X9937Y9187
X10937Y9187
X10937Y10687
X11937Y10687
X12937Y11487
X13437Y10687
X14187Y10687
X16187Y10687
X16187Y11937
X12937Y12487
X10937Y12687
X8437Y13687
X8437Y15687
X8437Y17187
X7687Y18437
X6687Y18937
X6437Y17937
X4937Y17937
X2687Y17937
X2687Y18687
X2687Y20687
X2687Y21687
X3937Y21687
X3687Y23187
X2687Y23187
X6687Y20437
X7687Y19687
X10187Y22437
X13187Y22437
X11937Y20187
X11937Y18687
X17187Y22437
X19187Y22437
X21187Y22437
X23187Y22437
X26187Y22437
X29187Y22437
X33187Y19687
X33437Y18687
X33437Y16687
X33437Y15187
X33437Y13937
X33437Y11937
X33437Y10687
X33437Y9187
X33437Y7187
X33187Y6187
X30437Y7437
X30187Y6187
X29687Y4937
X27937Y7062
X25937Y6187
X27937Y8562
X25937Y9437
X25937Y10937
X27937Y11812
X27937Y13312
X25937Y14187
X25937Y15687
X27937Y16562
X27937Y18062
X26687Y18937
X30437Y18437
X30437Y16937
X30437Y13687
X30437Y12187
X30437Y8937
X26187Y3437
X24187Y3437
X22187Y3437
X20187Y3437
X17187Y3437
X17687Y6062
X16562Y6062
X13562Y6062
X10437Y6062
X19437Y9687
X20437Y10187
T02
X6937Y8687
X6937Y7687
T03
X8937Y7187
X8937Y8187
X8937Y9187
X8937Y10187
X8937Y11187
X8937Y12187
X16687Y5187
X17687Y5187
X18687Y5187
X19687Y5187
X20687Y5187
X21687Y5187
X21687Y3937
X21687Y2937
X20687Y2937
X19687Y2937
X18687Y2937
X17687Y2937
X16687Y2937
X15687Y2937
X14687Y2937
X13687Y2937
X12687Y2937
X11687Y2937
X10687Y2937
X9687Y2937
X8687Y2937
X7687Y2937
X7687Y3937
X8687Y3937
X9687Y3937
X10687Y3937
X11687Y3937
X12687Y3937
X13687Y3937
X14687Y3937
X15687Y3937
X16687Y3937
X17687Y3937
X18687Y3937
X19687Y3937
X20687Y3937
X22687Y3937
X22687Y2937
X23687Y2937
X24687Y2937
X24687Y3937
X23687Y3937
X25687Y3937
X25687Y2937
X26687Y2937
X26687Y3937
X27687Y3937
X28687Y3937
X28687Y2937
X27687Y2937
X29687Y2937
X29687Y3937
X29687Y21937
X28687Y21937
X27687Y21937
X26687Y21937
X25687Y21937
X24687Y21937
X23687Y21937
X22687Y21937
X21687Y21937
X20687Y21937
X19687Y21937
X18687Y21937
X17687Y21937
X16687Y21937
X15687Y21937
X14687Y21937
X13687Y21937
X12687Y21937
X11687Y21937
X10687Y21937
X9687Y21937
X8687Y21937
X7687Y21937
X7687Y22937
X8687Y22937
X9687Y22937
X10687Y22937
X11687Y22937
X12687Y22937
X13687Y22937
X14687Y22937
X15687Y22937
X16687Y22937
X17687Y22937
X18687Y22937
X19687Y22937
X20687Y22937
X21687Y22937
X22687Y22937
X23687Y22937
X24687Y22937
X25687Y22937
X26687Y22937
X27687Y22937
X28687Y22937
X29687Y22937
T04
X31687Y21187
X31687Y4687
X5687Y3437
X5687Y22437
M30
